<?xml version="1.0" encoding="utf-8" standalone="no"?>
<!DOCTYPE svg PUBLIC "-//W3C//DTD SVG 1.1//EN"
  "http://www.w3.org/Graphics/SVG/1.1/DTD/svg11.dtd">
<!-- Created with matplotlib (https://matplotlib.org/) -->
<svg height="231.84pt" version="1.1" viewBox="0 0 349.2 231.84" width="349.2pt" xmlns="http://www.w3.org/2000/svg" xmlns:xlink="http://www.w3.org/1999/xlink">
 <defs>
  <style type="text/css">
*{stroke-linecap:butt;stroke-linejoin:round;}
  </style>
 </defs>
 <g id="figure_1">
  <g id="patch_1">
   <path d="M 0 231.84 
L 349.2 231.84 
L 349.2 0 
L 0 0 
z
" style="fill:#ffffff;"/>
  </g>
  <g id="axes_1">
   <g id="LineCollection_1">
    <path clip-path="url(#pd8299a4ee5)" d="M 100.472662 148.865632 
L 248.727328 148.865632 
" style="fill:none;stroke:#000000;stroke-width:1.5;"/>
   </g>
   <g id="line2d_1">
    <path clip-path="url(#pd8299a4ee5)" d="M 273.436458 115.920125 
L 272.469441 102.128169 
L 269.587313 88.606095 
L 264.846471 75.618501 
L 258.339684 63.41953 
L 250.194278 52.247891 
L 240.56964 42.32219 
L 229.654108 33.836655 
L 217.661274 26.95733 
L 204.825816 21.818829 
L 191.398898 18.521703 
L 177.643258 17.13047 
L 163.828066 17.672354 
L 150.223658 20.136751 
L 137.096245 24.475438 
L 124.702705 30.603515 
L 113.285554 38.401068 
L 103.068204 47.715515 
L 94.250587 58.36459 
L 87.005247 70.139912 
L 81.47396 82.811062 
L 77.764963 96.13009 
L 75.950834 109.83637 
L 76.067071 123.661697 
L 78.1114 137.335536 
L 82.043817 150.590319 
L 87.787373 163.166675 
L 95.229678 174.81851 
L 104.225101 185.317821 
L 114.59762 194.459158 
L 126.144264 202.063642 
L 138.639089 207.982469 
L 151.837596 212.09982 
L 165.481517 214.335125 
L 179.303867 214.644645 
L 193.034171 213.022323 
L 206.403753 209.499904 
L 219.150999 204.146316 
L 231.026468 197.066317 
L 241.797783 188.398448 
L 251.25417 178.312323 
L 259.210586 167.005307 
L 265.511341 154.698656 
L 270.03314 141.633187 
L 272.687502 128.064563 
L 273.435956 116.234949 
L 273.435956 116.234949 
" style="fill:none;stroke:#000000;stroke-linecap:round;stroke-width:1.5;"/>
   </g>
   <g id="line2d_2">
    <path clip-path="url(#pd8299a4ee5)" d="M 265.200081 115.920125 
L 264.182739 102.381009 
L 261.15356 89.145952 
L 256.180574 76.512185 
L 249.375463 64.763436 
L 240.891054 54.163556 
L 230.91789 44.950595 
L 219.679946 37.331457 
L 207.429602 31.47725 
L 194.441975 27.519449 
L 181.008738 25.546936 
L 167.431573 25.604011 
L 154.015395 27.68939 
L 141.061501 31.756242 
L 128.860808 37.713233 
L 117.687317 45.426582 
L 107.791961 54.723064 
L 99.396968 65.3939 
L 92.690871 77.199447 
L 87.824276 89.874576 
L 84.906475 103.134632 
L 84.002996 116.681823 
L 85.134128 130.211908 
L 88.27447 143.42103 
L 93.353496 156.012541 
L 100.257142 167.703663 
L 108.830366 178.231838 
L 118.880634 187.360627 
L 130.182236 194.885016 
L 142.481365 200.636023 
L 155.501808 204.484494 
L 168.951153 206.344001 
L 182.527358 206.172782 
L 195.92553 203.974683 
L 208.844775 199.799069 
L 220.994955 193.739714 
L 232.103203 185.932699 
L 241.920052 176.553353 
L 250.225036 165.812315 
L 256.831643 153.950806 
L 261.591503 141.23521 
L 264.397721 127.951091 
L 265.199621 116.208714 
L 265.199621 116.208714 
" style="fill:none;stroke:#000000;stroke-linecap:round;stroke-width:1.5;"/>
   </g>
   <g id="text_1">
    <!-- s -->
    <defs>
     <path d="M 3.46875 14.984375 
L 8.640625 14.984375 
Q 8.453125 13.578125 8.453125 12.3125 
Q 8.453125 3.421875 20.515625 3.421875 
Q 32.625 3.421875 34.375 12.3125 
Q 34.515625 13.1875 34.515625 14.75 
Q 34.515625 16.265625 32.859375 18.09375 
Q 31.203125 19.921875 24.21875 22.3125 
L 18.109375 24.515625 
Q 11.859375 26.65625 9.828125 29.40625 
Q 7.8125 32.171875 7.8125 35.359375 
Q 7.8125 36.625 8.0625 38.09375 
Q 9.46875 45.21875 15.46875 49.265625 
Q 21.484375 53.328125 30.171875 53.328125 
Q 38.8125 53.328125 47.90625 49.125 
L 45.703125 37.796875 
L 40.53125 37.796875 
Q 40.71875 38.921875 40.71875 39.890625 
Q 40.71875 43.453125 38.25 45.96875 
Q 35.796875 48.484375 30.078125 48.484375 
Q 18.609375 48.484375 17.046875 40.484375 
Q 16.84375 39.65625 16.84375 38.1875 
Q 16.84375 36.671875 18.421875 34.953125 
Q 20.015625 33.25 26.21875 31.203125 
L 32.90625 29 
Q 39.84375 26.703125 42.4375 23.25 
Q 44.234375 20.796875 44.234375 18.40625 
Q 44.234375 8.15625 36.03125 2.828125 
Q 29.59375 -1.421875 19.71875 -1.421875 
Q 9.859375 -1.421875 1.125 2.875 
z
" id="DejaVuSerif-Italic-115"/>
    </defs>
    <g style="fill:#008000;" transform="translate(113.677126 76.385517)scale(0.32 -0.32)">
     <use xlink:href="#DejaVuSerif-Italic-115"/>
    </g>
   </g>
   <g id="text_2">
    <!-- ata -->
    <defs>
     <path d="M 36.328125 8.109375 
Q 29.828125 -1.421875 19.34375 -1.421875 
Q 10.75 -1.421875 6.390625 4.390625 
Q 3.375 8.5 3.375 14.359375 
Q 3.375 16.84375 3.90625 19.625 
Q 7.234375 36.859375 19.234375 45.75 
Q 29.4375 53.328125 41.796875 53.328125 
Q 50.09375 53.328125 52.9375 51.90625 
L 43.84375 5.171875 
L 51.5625 5.171875 
L 50.59375 0 
L 34.765625 0 
z
M 12.84375 14.65625 
Q 12.84375 4.203125 22.953125 4.203125 
Q 29.109375 4.203125 33.28125 9.109375 
Q 37.453125 14.015625 39.3125 23.390625 
L 43.84375 46.921875 
L 43.84375 46.921875 
Q 43.84375 48.34375 39.9375 48.34375 
Q 30.5625 48.34375 23.296875 41.015625 
Q 16.0625 33.640625 13.484375 20.265625 
Q 12.84375 17.140625 12.84375 14.65625 
z
" id="DejaVuSerif-Italic-97"/>
     <path d="M 13.375 46.6875 
L 5.46875 46.6875 
L 6.5 51.90625 
L 14.40625 51.90625 
L 17.53125 68.015625 
L 26.5625 68.015625 
L 23.4375 51.90625 
L 40.328125 51.90625 
L 39.3125 46.6875 
L 22.40625 46.6875 
L 16.015625 13.71875 
Q 15.28125 9.859375 15.28125 7.625 
Q 15.28125 6.0625 15.625 5.28125 
Q 16.546875 3.421875 19.96875 3.421875 
Q 23.484375 3.421875 25.515625 5.484375 
Q 27.546875 7.5625 28.515625 12.203125 
L 35.296875 12.203125 
Q 33.546875 5.125 29.4375 1.84375 
Q 25.34375 -1.421875 18.265625 -1.421875 
Q 10.5 -1.421875 7.90625 2.046875 
Q 6.34375 4.15625 6.34375 8.0625 
Q 6.34375 10.546875 6.984375 13.71875 
z
" id="DejaVuSerif-Italic-116"/>
    </defs>
    <g style="fill:#ff0000;" transform="translate(129.322633 76.385517)scale(0.32 -0.32)">
     <use xlink:href="#DejaVuSerif-Italic-97"/>
     <use x="59.619141" xlink:href="#DejaVuSerif-Italic-116"/>
     <use x="99.804688" xlink:href="#DejaVuSerif-Italic-97"/>
    </g>
   </g>
   <g id="text_3">
    <!-- r -->
    <defs>
     <path d="M 52.734375 52 
L 50.203125 39.015625 
L 45.015625 39.015625 
Q 45.171875 39.984375 45.171875 40.828125 
Q 45.171875 43.359375 44 44.78125 
Q 42.484375 46.6875 38.8125 46.6875 
Q 32.171875 46.6875 27.734375 42.09375 
Q 23.296875 37.5 21.625 28.90625 
L 16.015625 0 
L 7.03125 0 
L 16.109375 46.78125 
L 7.515625 46.78125 
L 8.5 51.90625 
L 26.078125 51.90625 
L 24.3125 42.671875 
Q 27.984375 48.09375 32.640625 50.703125 
Q 37.3125 53.328125 43.265625 53.328125 
Q 45.453125 53.328125 47.796875 52.984375 
Q 50.140625 52.640625 52.734375 52 
z
" id="DejaVuSerif-Italic-114"/>
    </defs>
    <g style="fill:#0000ff;" transform="translate(178.483365 76.385517)scale(0.32 -0.32)">
     <use xlink:href="#DejaVuSerif-Italic-114"/>
    </g>
   </g>
   <g id="text_4">
    <!-- py -->
    <defs>
     <path d="M 22.90625 28.515625 
L 21.875 23.390625 
Q 21.140625 19.53125 21.140625 16.453125 
Q 21.140625 12.015625 22.703125 9.078125 
Q 25.34375 4.203125 32.171875 4.203125 
Q 39.0625 4.203125 43.671875 9.71875 
Q 48.296875 15.234375 50.390625 25.984375 
Q 51.3125 30.90625 51.3125 34.765625 
Q 51.3125 39.265625 50 42.234375 
Q 47.515625 47.703125 40.625 47.703125 
Q 33.796875 47.703125 29.25 42.765625 
Q 24.703125 37.84375 22.90625 28.515625 
z
M 17.4375 46.6875 
L 8.796875 46.6875 
L 9.8125 51.90625 
L 27.4375 51.90625 
L 25.875 43.796875 
Q 29.4375 48.6875 33.984375 51 
Q 38.53125 53.328125 44.53125 53.328125 
Q 54.109375 53.328125 58.640625 45.75 
Q 61.671875 40.765625 61.671875 33.796875 
Q 61.671875 30.125 60.890625 25.984375 
Q 58.5 13.765625 50.96875 6.171875 
Q 43.453125 -1.421875 33.890625 -1.421875 
Q 27.875 -1.421875 24.234375 0.890625 
Q 20.609375 3.21875 18.953125 8.109375 
L 13.28125 -20.796875 
L 4.296875 -20.796875 
z
" id="DejaVuSerif-Italic-112"/>
     <path d="M 57.515625 51.46875 
Q 52.6875 23.53125 44.1875 8.796875 
Q 31.734375 -12.84375 21.734375 -19.34375 
Q 17.28125 -22.21875 5.5625 -22.21875 
Q 3.265625 -22.21875 0.9375 -21.828125 
Q -1.375 -21.4375 -3.71875 -20.703125 
L -1.765625 -10.796875 
L 2.828125 -10.796875 
Q 2.734375 -11.578125 2.734375 -12.3125 
Q 2.734375 -14.359375 3.609375 -15.53125 
Q 4.828125 -17.1875 8.015625 -17.1875 
Q 16.609375 -17.1875 24.078125 -9.71875 
L 11.8125 46.6875 
L 5.90625 46.6875 
L 6.9375 51.90625 
L 20.359375 51.90625 
L 31.890625 0.390625 
Q 39.75 12.15625 41.65625 17 
Q 47.796875 32.171875 49.03125 46.234375 
L 43.109375 46.234375 
L 44.140625 51.46875 
z
" id="DejaVuSerif-Italic-121"/>
    </defs>
    <g style="fill:#ffa500;" transform="translate(194.852045 76.385517)scale(0.32 -0.32)">
     <use xlink:href="#DejaVuSerif-Italic-112"/>
     <use x="64.013672" xlink:href="#DejaVuSerif-Italic-121"/>
    </g>
   </g>
   <g id="text_5">
    <!-- 肆大派 -->
    <defs>
     <path d="M 96.203125 48 
Q 96.796875 47.296875 96.796875 47.046875 
Q 96.796875 46.796875 95.90625 46.796875 
L 84.296875 46.796875 
Q 84.296875 39.59375 84.5 37.296875 
L 84.796875 33.40625 
Q 84.796875 31.90625 82.796875 31 
Q 80.796875 30.09375 80.296875 30.09375 
Q 79.796875 30.09375 79.796875 31.59375 
L 79.796875 33.90625 
L 65.90625 33.90625 
L 65.90625 20.90625 
L 78.203125 20.90625 
L 81.90625 25.5 
L 86.59375 20.796875 
Q 87.5 19.90625 87.5 19.546875 
Q 87.5 19.203125 86.203125 19.203125 
L 65.90625 19.203125 
L 65.90625 7 
L 84.796875 7 
L 88.40625 12.09375 
L 93.59375 6.90625 
Q 94.5 6 94.5 5.640625 
Q 94.5 5.296875 93.203125 5.296875 
L 65.90625 5.296875 
Q 65.90625 -5.5 66 -8.203125 
L 66.09375 -13 
Q 66.09375 -13.796875 65.84375 -14.296875 
Q 65.59375 -14.796875 63.9375 -15.640625 
Q 62.296875 -16.5 61.640625 -16.5 
Q 61 -16.5 61 -14.59375 
L 61.203125 -7.796875 
Q 61.296875 -3.703125 61.296875 5.296875 
L 51.5 5.296875 
Q 47.59375 5.296875 44.796875 4.203125 
L 42 7.40625 
Q 46.796875 7 49.296875 7 
L 61.296875 7 
L 61.296875 19.203125 
L 53.40625 19.203125 
Q 49.5 19.203125 46.703125 18.09375 
L 43.90625 21.296875 
Q 48.703125 20.90625 51.203125 20.90625 
L 61.296875 20.90625 
L 61.296875 33.90625 
L 54 33.90625 
Q 50.09375 33.90625 47.296875 32.796875 
L 44.5 36 
Q 49.296875 35.59375 51.796875 35.59375 
L 61.296875 35.59375 
L 61.296875 46.796875 
L 51.296875 46.796875 
Q 47.40625 46.796875 44.59375 45.703125 
L 41.796875 48.90625 
Q 46.59375 48.5 49.09375 48.5 
L 61.296875 48.5 
L 61.296875 61.09375 
L 55.59375 61.09375 
Q 51.703125 61.09375 48.90625 60 
L 46.09375 63.203125 
Q 50.90625 62.796875 53.40625 62.796875 
L 61.296875 62.796875 
Q 61.296875 74.203125 61.09375 77.59375 
L 68.59375 73.5 
Q 69.59375 73 69.59375 72.703125 
Q 69.59375 72.40625 68.40625 71.796875 
L 65.90625 70.5 
L 65.90625 62.796875 
L 78.59375 62.796875 
L 81.296875 66.40625 
L 86.703125 62.296875 
Q 87.703125 61.59375 87.703125 61.25 
Q 87.703125 60.90625 86.796875 60.40625 
L 84.296875 59.09375 
L 84.296875 48.5 
L 88.296875 48.5 
L 91.40625 53 
z
M 79.796875 48.5 
L 79.796875 61.09375 
L 65.90625 61.09375 
L 65.90625 48.5 
z
M 79.796875 35.59375 
L 79.796875 46.796875 
L 65.90625 46.796875 
L 65.90625 35.59375 
z
M 45.09375 26.703125 
Q 45.703125 26.09375 45.703125 25.75 
Q 45.703125 25.40625 44.59375 25.40625 
L 11.796875 25.40625 
Q 7.90625 25.40625 5.09375 24.296875 
L 2.296875 27.5 
Q 7.09375 27.09375 9.59375 27.09375 
L 13.796875 27.09375 
L 13.796875 56.59375 
Q 13.796875 65.203125 13.5 71.09375 
L 19.203125 66.5 
L 35.296875 66.5 
L 38.703125 70.90625 
L 43.796875 65.796875 
Q 44.296875 65.296875 44.296875 65.046875 
Q 44.296875 64.796875 43.203125 64.796875 
L 18.5 64.796875 
L 18.5 52.5 
L 32.59375 52.5 
L 35.40625 56.796875 
L 40.203125 51.796875 
Q 40.59375 51.40625 40.59375 51.09375 
Q 40.59375 50.796875 39.59375 50.796875 
L 18.5 50.796875 
L 18.5 39.296875 
L 32.90625 39.296875 
L 36.203125 43.703125 
L 40.59375 38.59375 
Q 41 38.09375 41 37.84375 
Q 41 37.59375 40.09375 37.59375 
L 18.5 37.59375 
L 18.5 27.09375 
L 37.203125 27.09375 
L 40.5 31.5 
z
M 29.703125 14.703125 
Q 41.09375 4.796875 41.09375 -0.90625 
Q 41.09375 -2.59375 40.25 -3.6875 
Q 39.40625 -4.796875 38.546875 -4.796875 
Q 37.703125 -4.796875 37.09375 -4 
Q 36.5 -3.203125 35.890625 -0.703125 
Q 35.296875 1.796875 34.296875 4.09375 
Q 21 1.09375 16.390625 -0.15625 
Q 11.796875 -1.40625 10.84375 -2.09375 
Q 9.90625 -2.796875 9.5 -2.796875 
Q 9.09375 -2.796875 8.703125 -2.203125 
L 5 2.703125 
Q 7 3 8.890625 4.09375 
Q 10.796875 5.203125 11.84375 6.546875 
Q 12.90625 7.90625 15.59375 12.75 
Q 18.296875 17.59375 21.296875 24.40625 
L 26.703125 21.09375 
Q 27.203125 20.796875 27.203125 20.546875 
Q 27.203125 20.296875 26.703125 20.203125 
Q 24.90625 20 24.09375 19.09375 
L 10.90625 2.59375 
L 33.796875 5.40625 
Q 31.90625 10 28.796875 13.796875 
z
" id="STSong-32902"/>
     <path d="M 96.796875 -8.90625 
Q 92.5 -8.90625 90.140625 -9.703125 
Q 87.796875 -10.5 86.84375 -11.703125 
Q 85.90625 -12.90625 85.40625 -12.90625 
Q 84.203125 -12.90625 74.5 -5.203125 
Q 64.796875 2.5 58.140625 14.890625 
Q 51.5 27.296875 51.09375 45.09375 
L 50.203125 45.09375 
Q 48.703125 29.796875 44.84375 18.4375 
Q 41 7.09375 32.75 -0.796875 
Q 24.5 -8.703125 4.5 -16.796875 
L 3.796875 -15.5 
Q 26.203125 -4.59375 34.890625 8.453125 
Q 43.59375 21.5 45.296875 45.09375 
L 12.90625 45.09375 
Q 9 45.09375 6.203125 44 
L 3.40625 47.703125 
Q 8.203125 47.296875 10.703125 47.296875 
L 45.5 47.296875 
Q 46.90625 64.703125 47.09375 76.90625 
L 55.59375 72.90625 
Q 56.296875 72.59375 56.296875 72.1875 
Q 56.296875 71.796875 55.703125 71.40625 
L 52.5 69.40625 
Q 51.90625 60.5 50.40625 47.296875 
L 81.796875 47.296875 
L 86.703125 53.703125 
L 92.90625 46.90625 
Q 93.703125 46 93.703125 45.546875 
Q 93.703125 45.09375 92.5 45.09375 
L 52.796875 45.09375 
Q 55.09375 24 66.796875 10.046875 
Q 78.5 -3.90625 96.796875 -7.5 
z
" id="STSong-22823"/>
     <path d="M 90.703125 68.90625 
Q 91.09375 68.296875 91.09375 68 
Q 91.09375 67.703125 90.796875 67.703125 
Q 90.5 67.703125 89.140625 68.140625 
Q 87.796875 68.59375 86.046875 68.59375 
Q 84.296875 68.59375 82.90625 68.40625 
Q 71.40625 66.5 45.796875 63.90625 
Q 43.59375 26.703125 41.6875 17.046875 
Q 39.796875 7.40625 34.25 -1.34375 
Q 28.703125 -10.09375 21 -15.203125 
L 20.296875 -14.09375 
Q 25.59375 -9.203125 29.296875 -3.5 
Q 33 2.203125 35.203125 8.390625 
Q 37.40625 14.59375 38.25 20.84375 
Q 39.09375 27.09375 40 41.546875 
Q 40.90625 56 41.296875 70.796875 
L 46.5 65.59375 
Q 72.90625 70.40625 86.703125 74.703125 
z
M 11.90625 73 
Q 18.5 71.203125 23.640625 68.25 
Q 28.796875 65.296875 28.796875 62.09375 
Q 28.796875 60.5 27.796875 59.046875 
Q 26.796875 57.59375 25.796875 57.59375 
Q 24.796875 57.59375 24.25 58.1875 
Q 23.703125 58.796875 22.90625 60.59375 
Q 20.09375 66.796875 11.296875 72 
z
M 38.703125 65.59375 
Q 23.5 25.59375 20.953125 19.390625 
Q 18.40625 13.203125 18.40625 8.203125 
Q 18.40625 5.5 19.15625 0.75 
Q 19.90625 -4 19.90625 -6.890625 
Q 19.90625 -9.796875 19.046875 -11.1875 
Q 18.203125 -12.59375 15.640625 -12.59375 
Q 13.09375 -12.59375 13.09375 -7.796875 
Q 13.09375 -4.796875 14.046875 -0.046875 
Q 15 4.703125 15 6.890625 
Q 15 9.09375 14.453125 10.9375 
Q 13.90625 12.796875 10.203125 13.75 
Q 6.5 14.703125 3.90625 14.90625 
L 4.09375 16.203125 
Q 9.5 16.09375 11.75 16.4375 
Q 14 16.796875 15.046875 17.84375 
Q 16.09375 18.90625 17.296875 21.59375 
L 37.296875 66.40625 
z
M 97.40625 -5.5 
L 97 -6.703125 
Q 94.703125 -6.203125 92.90625 -6.203125 
Q 89.5 -6.203125 87.40625 -7.90625 
Q 86.703125 -8.40625 86.40625 -8.40625 
Q 85.40625 -8.40625 79.296875 0.09375 
Q 73.203125 8.59375 70.203125 19.5 
Q 67.203125 30.40625 66.796875 49.796875 
Q 57.5 47.796875 56.703125 47.703125 
L 56.703125 -4.90625 
L 70.59375 4.296875 
L 71.40625 3.203125 
Q 61.40625 -5.296875 58.453125 -8.140625 
Q 55.5 -11 54.453125 -12.75 
Q 53.40625 -14.5 53.09375 -14.5 
Q 52.796875 -14.5 52.296875 -14 
L 47.90625 -9.203125 
Q 52.296875 -6.09375 52.296875 -3.296875 
L 52.296875 43.59375 
Q 52.296875 50.40625 52 54.09375 
L 57.703125 49.796875 
Q 70.40625 53.296875 85.90625 59.40625 
L 90.796875 54.203125 
Q 91.296875 53.59375 91.296875 53.296875 
Q 91.296875 53 90.9375 53 
Q 90.59375 53 89.6875 53.25 
Q 88.796875 53.5 86.75 53.5 
Q 84.703125 53.5 83.203125 53.09375 
L 68.296875 50.09375 
Q 69.40625 37.203125 71.796875 27.703125 
L 88.796875 43.59375 
L 93.296875 38.5 
Q 94 37.796875 94 37.296875 
Q 94 36.796875 92.953125 37.046875 
Q 91.90625 37.296875 91.5 37.296875 
Q 89.90625 37.296875 86.40625 35.25 
Q 82.90625 33.203125 72.203125 26.203125 
Q 78.796875 1.59375 97.40625 -5.5 
z
M 3.703125 53 
Q 8.296875 51.59375 12.296875 49.25 
Q 16.296875 46.90625 18 44.953125 
Q 19.703125 43 19.703125 41.296875 
Q 19.703125 39.59375 18.59375 38.1875 
Q 17.5 36.796875 16.296875 36.796875 
Q 15.09375 36.796875 14.296875 38.90625 
Q 11.59375 46.09375 3.203125 52 
z
" id="STSong-27966"/>
    </defs>
    <g transform="translate(141.599937 175.222038)scale(0.22 -0.22)">
     <use xlink:href="#STSong-32902"/>
     <use x="99.999985" xlink:href="#STSong-22823"/>
     <use x="199.999969" xlink:href="#STSong-27966"/>
    </g>
   </g>
   <g id="text_6">
    <g id="patch_2">
     <path d="M 109.42201 132.461601 
L 139.4168 115.144101 
Q 142.534491 113.344101 140.734491 110.22641 
L 135.232304 100.696341 
Q 133.432304 97.57865 130.314612 99.37865 
L 100.319822 116.69615 
Q 97.202131 118.49615 99.002131 121.613841 
L 104.504318 131.14391 
Q 106.304318 134.261601 109.42201 132.461601 
z
" style="fill:#90ee90;opacity:0.8;stroke:#000000;stroke-linejoin:miter;"/>
    </g>
    <!-- Science -->
    <defs>
     <path d="M 37.59375 47.703125 
Q 34.703125 60.796875 23.203125 60.796875 
Q 17.796875 60.796875 14.140625 57.6875 
Q 10.5 54.59375 10.5 50.40625 
Q 10.5 47.09375 13.453125 44.296875 
Q 16.40625 41.5 25.703125 36.703125 
Q 35.203125 31.796875 39.453125 28.09375 
Q 43.703125 24.40625 43.703125 17.09375 
Q 43.703125 8.703125 37.84375 3.546875 
Q 32 -1.59375 21.5 -1.59375 
Q 11.796875 -1.59375 3.796875 3.09375 
L 4.90625 18 
L 6.296875 18 
Q 7.203125 10.59375 12.296875 5.84375 
Q 17.40625 1.09375 23.59375 1.09375 
Q 29.5 1.09375 33.546875 4.59375 
Q 37.59375 8.09375 37.59375 13 
Q 37.59375 17.40625 34.34375 20.40625 
Q 31.09375 23.40625 23.59375 27.296875 
Q 13.203125 32.703125 9.09375 37.09375 
Q 5 41.5 5 47.203125 
Q 5 54.296875 10.5 58.890625 
Q 16 63.5 24.796875 63.5 
Q 33.59375 63.5 39.296875 59.09375 
L 38.90625 47.703125 
z
" id="STSong-83"/>
     <path d="M 39 8.90625 
L 39.09375 5.796875 
Q 35.40625 1.90625 31.703125 0.15625 
Q 28 -1.59375 22.796875 -1.59375 
Q 15 -1.59375 9.75 4.5 
Q 4.5 10.59375 4.5 19.703125 
Q 4.5 29.59375 10 34.75 
Q 15.5 39.90625 26.09375 39.90625 
Q 31.59375 39.90625 35.046875 38.296875 
Q 38.5 36.703125 38.5 34 
Q 38.5 32.59375 37.546875 31.5 
Q 36.59375 30.40625 35 30.40625 
Q 32.40625 30.40625 29.40625 33.40625 
Q 26.09375 36.703125 22.5 36.703125 
Q 18.203125 36.703125 14.953125 32.046875 
Q 11.703125 27.40625 11.703125 20.40625 
Q 11.703125 12.40625 15.890625 7.703125 
Q 20.09375 3 25.796875 3 
Q 32.296875 3 39 8.90625 
z
" id="STSong-99"/>
     <path d="M 11.203125 64 
Q 12.90625 64 14.296875 62.703125 
Q 15.703125 61.40625 15.703125 59.703125 
Q 15.703125 58.09375 14.25 56.84375 
Q 12.796875 55.59375 11 55.59375 
Q 9.296875 55.59375 8.09375 56.796875 
Q 6.90625 58 6.90625 59.703125 
Q 6.90625 61.40625 8.203125 62.703125 
Q 9.5 64 11.203125 64 
z
M 22.203125 -0.40625 
Q 19.09375 0 11.203125 0 
Q 3.296875 0 0.203125 -0.40625 
L 0.203125 1.203125 
L 5.796875 2.296875 
Q 8.90625 2.90625 8.90625 5.90625 
L 8.90625 29.40625 
Q 8.90625 31.796875 7.703125 32.890625 
Q 6.5 34 2.90625 34.796875 
L 2.90625 36.203125 
Q 10 38 13.296875 43.40625 
L 14.90625 43.40625 
L 14.90625 5.59375 
Q 14.90625 4.09375 15.34375 3.390625 
Q 15.796875 2.703125 17.09375 2.40625 
L 22.203125 1.203125 
z
" id="STSong-105"/>
     <path d="M 38.703125 25.09375 
L 10.796875 25.09375 
Q 10.5 23.09375 10.5 21.09375 
Q 10.5 13.296875 14.75 8.390625 
Q 19 3.5 26.296875 3.5 
Q 29.796875 3.5 32.6875 4.890625 
Q 35.59375 6.296875 39 9.5 
L 39.40625 7.09375 
Q 32.40625 -1.59375 21.296875 -1.59375 
Q 14 -1.59375 9.09375 4.296875 
Q 4.203125 10.203125 4.203125 18.59375 
Q 4.203125 27.796875 9.640625 33.84375 
Q 15.09375 39.90625 23.5 39.90625 
Q 29.90625 39.90625 34.15625 35.84375 
Q 38.40625 31.796875 38.703125 25.09375 
z
M 11.296875 27.203125 
L 29.5 27.203125 
Q 32.203125 27.203125 32.203125 29.296875 
Q 32.203125 31.40625 30.203125 34.5 
Q 28.203125 37.59375 23.09375 37.59375 
Q 18.703125 37.59375 15.5 34.75 
Q 12.296875 31.90625 11.296875 27.203125 
z
" id="STSong-101"/>
     <path d="M 50 -0.296875 
Q 44.796875 0 39.59375 0 
Q 34.40625 0 29.203125 -0.296875 
L 29.203125 1.296875 
L 34.703125 2.09375 
Q 36.90625 2.40625 36.90625 6 
L 36.90625 25.703125 
Q 36.90625 30.09375 34.40625 32.6875 
Q 31.90625 35.296875 27.59375 35.296875 
Q 21.203125 35.296875 15.09375 29.203125 
L 15.09375 4.90625 
Q 15.09375 3.296875 17.5 2.703125 
L 23.40625 1.296875 
L 23.40625 -0.296875 
Q 19.703125 0 12.59375 0 
Q 5.5 0 1.796875 -0.296875 
L 1.796875 1.296875 
L 7.09375 2.296875 
Q 9.09375 2.59375 9.09375 5.296875 
L 9.09375 25.09375 
Q 9.09375 28.203125 7.84375 29.296875 
Q 6.59375 30.40625 3.40625 30.90625 
L 3.40625 32.703125 
Q 9.796875 34.203125 13.5 41.703125 
L 15.09375 41.703125 
L 15.09375 32.703125 
Q 18.90625 36 23.5 37.953125 
Q 28.09375 39.90625 31.59375 39.90625 
Q 43.09375 39.90625 43.09375 26.203125 
L 43.09375 6.296875 
Q 43.09375 4.40625 43.59375 3.40625 
Q 44.09375 2.40625 45.59375 2.09375 
L 50 1.296875 
z
" id="STSong-110"/>
    </defs>
    <g style="fill:#262626;" transform="translate(106.079822 126.672762)rotate(-30)scale(0.12 -0.12)">
     <use xlink:href="#STSong-83"/>
     <use x="47.899994" xlink:href="#STSong-99"/>
     <use x="89.599991" xlink:href="#STSong-105"/>
     <use x="112.499985" xlink:href="#STSong-101"/>
     <use x="154.199982" xlink:href="#STSong-110"/>
     <use x="205.199966" xlink:href="#STSong-99"/>
     <use x="246.899963" xlink:href="#STSong-101"/>
    </g>
   </g>
   <g id="text_7">
    <g id="patch_3">
     <path d="M 146.443532 118.17832 
L 165.92748 129.427382 
Q 169.045171 131.227382 170.845171 128.109691 
L 176.347359 118.579622 
Q 178.147359 115.461931 175.029667 113.661931 
L 155.545719 102.412868 
Q 152.428028 100.612868 150.628028 103.73056 
L 145.12584 113.260628 
Q 143.32584 116.37832 146.443532 118.17832 
z
" style="fill:#ffff00;opacity:0.8;stroke:#000000;stroke-linejoin:miter;"/>
    </g>
    <!-- Data -->
    <defs>
     <path d="M 11.90625 55.09375 
Q 11.90625 57.5 11.296875 58.5 
Q 10.703125 59.5 9 59.796875 
L 2.203125 61 
L 2.203125 62.59375 
Q 8.59375 62.40625 17.796875 62.953125 
Q 27 63.5 30.796875 63.5 
Q 40.59375 63.5 46.296875 62.390625 
Q 52 61.296875 57.046875 58.390625 
Q 62.09375 55.5 65.34375 51.640625 
Q 68.59375 47.796875 70.390625 42.796875 
Q 72.203125 37.796875 72.203125 32.203125 
Q 72.203125 22.796875 67 14.140625 
Q 61.796875 5.5 53.5 2.703125 
Q 45.203125 -0.09375 37.40625 -0.09375 
L 21.203125 0.296875 
L 1.203125 0.296875 
L 1.203125 1.90625 
L 9 3.59375 
Q 10.59375 3.90625 11.25 4.90625 
Q 11.90625 5.90625 11.90625 8.703125 
z
M 20.09375 11.09375 
Q 20.09375 7.90625 23.546875 5.15625 
Q 27 2.40625 33.5 2.40625 
Q 45 2.40625 53.640625 9.953125 
Q 62.296875 17.5 62.296875 32.59375 
Q 62.296875 45.796875 53.296875 53.390625 
Q 44.296875 61 28.296875 61 
Q 22.90625 61 21.5 59.953125 
Q 20.09375 58.90625 20.09375 55.09375 
z
" id="STSong-68"/>
     <path d="M 39.90625 6.296875 
L 41.203125 5.59375 
Q 38.296875 -1.59375 33.203125 -1.59375 
Q 30.09375 -1.59375 28.34375 0.15625 
Q 26.59375 1.90625 26.59375 5.203125 
Q 21.09375 1 18.4375 -0.296875 
Q 15.796875 -1.59375 11.796875 -1.59375 
Q 5.296875 -1.59375 5.296875 3.703125 
Q 5.296875 8.40625 11.046875 13.703125 
Q 16.796875 19 26.796875 22.703125 
L 26.796875 29.5 
Q 26.796875 32.703125 25 34.75 
Q 23.203125 36.796875 20.203125 36.796875 
Q 16.703125 36.796875 14.203125 34.4375 
Q 11.703125 32.09375 11.203125 27.90625 
Q 11 26.203125 9.546875 25 
Q 8.09375 23.796875 6.5 23.796875 
Q 5.796875 23.796875 5.046875 24.140625 
Q 4.296875 24.5 4.296875 25.296875 
Q 4.296875 26.703125 6.890625 31 
Q 9.5 35.296875 13.390625 37.59375 
Q 17.296875 39.90625 21 39.90625 
Q 27.203125 39.90625 30 37.453125 
Q 32.796875 35 32.796875 29.59375 
L 32.796875 9.296875 
Q 32.796875 7 32.9375 5.75 
Q 33.09375 4.5 34 3.84375 
Q 34.90625 3.203125 35.796875 3.203125 
Q 38 3.203125 39.90625 6.296875 
z
M 26.796875 10.203125 
L 26.796875 20.5 
Q 20.40625 18 16.296875 13.890625 
Q 12.203125 9.796875 12.203125 6.40625 
Q 12.203125 4.5 13.453125 3.25 
Q 14.703125 2 16.59375 2 
Q 19.296875 2 23.046875 4.75 
Q 26.796875 7.5 26.796875 10.203125 
z
" id="STSong-97"/>
     <path d="M 15.296875 48.203125 
L 16.5 48.203125 
L 16.59375 37.5 
L 30.203125 37.796875 
L 30.203125 34.203125 
L 16.59375 33.796875 
L 16.59375 10 
Q 16.59375 5.5 17.84375 3.5 
Q 19.09375 1.5 21.90625 1.5 
Q 25.296875 1.5 30.09375 4.296875 
L 31 2.90625 
Q 28.90625 0.5 26.15625 -0.546875 
Q 23.40625 -1.59375 18.703125 -1.59375 
Q 13.5 -1.59375 11.890625 0.953125 
Q 10.296875 3.5 10.296875 11 
L 10.296875 33.59375 
L 4.90625 33.5 
Q 3.5 33.5 3.5 34.296875 
Q 3.5 35 4.796875 35.59375 
Q 9.09375 37.40625 11.046875 39.75 
Q 13 42.09375 15.296875 48.203125 
z
" id="STSong-116"/>
    </defs>
    <g style="fill:#262626;" transform="translate(149.785719 112.389481)rotate(-330)scale(0.12 -0.12)">
     <use xlink:href="#STSong-68"/>
     <use x="77.099991" xlink:href="#STSong-97"/>
     <use x="117.699982" xlink:href="#STSong-116"/>
     <use x="146.899979" xlink:href="#STSong-97"/>
    </g>
   </g>
   <g id="text_8">
    <g id="patch_4">
     <path d="M 185.97814 121.927851 
L 192.473331 125.677851 
Q 195.591022 127.477851 197.391022 124.36016 
L 202.89321 114.830091 
Q 204.69321 111.7124 201.575518 109.9124 
L 195.080328 106.1624 
Q 191.962636 104.3624 190.162636 107.480091 
L 184.660449 117.01016 
Q 182.860449 120.127851 185.97814 121.927851 
z
" style="fill:#add8e6;opacity:0.8;stroke:#000000;stroke-linejoin:miter;"/>
    </g>
    <!-- R -->
    <defs>
     <path d="M 2.09375 1.203125 
L 7.59375 1.796875 
Q 10.5 2.09375 11.453125 2.9375 
Q 12.40625 3.796875 12.40625 7 
L 12.40625 53.796875 
Q 12.40625 56.90625 11.59375 58.203125 
Q 10.796875 59.5 6.90625 60.203125 
L 2.5 61 
L 2.40625 62.5 
Q 6.796875 62.5 8.59375 62.59375 
L 25 63.5 
Q 27 63.59375 28.796875 63.59375 
Q 39.40625 63.59375 44.546875 59.890625 
Q 49.703125 56.203125 49.703125 48.40625 
Q 49.703125 42.5 46.75 39.046875 
Q 43.796875 35.59375 37.703125 32.703125 
L 48.703125 13.203125 
Q 53.203125 5.5 56.140625 3.84375 
Q 59.09375 2.203125 64.09375 1.5 
L 64.09375 -0.09375 
Q 59.90625 0 53.796875 0 
Q 48.703125 0 46.59375 -0.09375 
L 31.296875 28.203125 
Q 29.59375 31.296875 26.296875 31.296875 
L 20.703125 31.296875 
L 20.703125 7.59375 
Q 20.703125 5.203125 21.640625 4.09375 
Q 22.59375 3 25 2.40625 
L 29.90625 1.203125 
L 29.90625 -0.40625 
Q 22.703125 0 16 0 
Q 8.09375 0 2.09375 -0.40625 
z
M 20.703125 34 
Q 40.90625 33.296875 40.90625 46.796875 
Q 40.90625 53 36.34375 56.84375 
Q 31.796875 60.703125 24.09375 60.703125 
Q 22.5 60.703125 20.703125 60.5 
z
" id="STSong-82"/>
    </defs>
    <g style="fill:#262626;" transform="translate(189.320328 116.139012)rotate(-330)scale(0.12 -0.12)">
     <use xlink:href="#STSong-82"/>
    </g>
   </g>
   <g id="text_9">
    <g id="patch_5">
     <path d="M 221.436733 132.208945 
L 250.556296 115.396757 
Q 253.673987 113.596757 251.873987 110.479066 
L 246.3718 100.948997 
Q 244.5718 97.831306 241.454108 99.631306 
L 212.334545 116.443493 
Q 209.216854 118.243493 211.016854 121.361185 
L 216.519042 130.891253 
Q 218.319042 134.008945 221.436733 132.208945 
z
" style="fill:#ffa500;opacity:0.8;stroke:#000000;stroke-linejoin:miter;"/>
    </g>
    <!-- Python -->
    <defs>
     <path d="M 2.09375 62.5 
Q 11.796875 62.5 15.296875 62.703125 
L 29.5 63.5 
Q 31.09375 63.59375 32.59375 63.59375 
Q 43.796875 63.59375 48.6875 57.890625 
Q 53.59375 52.203125 53.59375 45.203125 
Q 53.59375 37.40625 47.9375 31.953125 
Q 42.296875 26.5 34.09375 26.5 
Q 27.796875 26.5 24.5 30.40625 
L 25.09375 31 
Q 27.703125 30.09375 30.5 30.09375 
Q 36.59375 30.09375 40.75 34.046875 
Q 44.90625 38 44.90625 44.796875 
Q 44.90625 51.40625 40.25 56.046875 
Q 35.59375 60.703125 25.59375 60.703125 
Q 22.09375 60.703125 20.296875 59.90625 
L 20.296875 6.09375 
Q 20.296875 4.59375 20.9375 3.9375 
Q 21.59375 3.296875 23.796875 2.796875 
L 31.09375 1.203125 
L 31.09375 -0.40625 
Q 22.703125 0 17.59375 0 
Q 14.09375 0 4.09375 -0.296875 
L 4.09375 1.296875 
L 9.703125 2.09375 
Q 11.203125 2.40625 11.703125 3.203125 
Q 12.203125 4 12.203125 5.90625 
L 12.203125 53.59375 
Q 12.203125 57.40625 9.84375 58.703125 
Q 7.5 60 2.09375 60.59375 
z
" id="STSong-80"/>
     <path d="M 0.296875 38.59375 
Q 6.59375 38.09375 10.296875 38.09375 
Q 16.203125 38.09375 20.40625 38.59375 
L 20.40625 37 
L 14.296875 35.796875 
Q 12.796875 35.5 12.796875 34.40625 
Q 12.796875 34 13.09375 33.09375 
L 23.203125 4.59375 
L 32.5 30.40625 
Q 33 31.703125 33 32.796875 
Q 33 35.203125 31.203125 35.59375 
L 25.59375 37 
L 25.59375 38.59375 
Q 30.09375 38.09375 34.09375 38.09375 
Q 37.59375 38.09375 42.59375 38.59375 
L 42.59375 37 
L 39.40625 36.09375 
Q 38 35.703125 37 34.453125 
Q 36 33.203125 34.59375 29.40625 
L 17.703125 -15.203125 
Q 16 -19.90625 13.5 -22.296875 
Q 11 -24.703125 8.203125 -24.703125 
Q 3.90625 -24.703125 3.90625 -21.5 
Q 3.90625 -17.90625 7.59375 -17.90625 
Q 8.90625 -17.90625 10.703125 -18.296875 
Q 11.5 -18.5 12 -18.5 
Q 12.796875 -18.5 13.34375 -18 
Q 13.90625 -17.5 15.59375 -14.546875 
Q 17.296875 -11.59375 18.546875 -8.09375 
Q 19.796875 -4.59375 19.796875 -3.5 
Q 19.796875 -1.796875 18.796875 0.796875 
L 6.59375 33.09375 
Q 5.796875 35.40625 4 35.90625 
L 0.296875 37 
z
" id="STSong-121"/>
     <path d="M 9 55.296875 
Q 9 58 7.75 59.046875 
Q 6.5 60.09375 1.59375 61.203125 
L 1.59375 62.40625 
Q 5.796875 62.59375 12.59375 66 
L 15 66 
L 15 30.703125 
Q 22.296875 39.90625 31 39.90625 
Q 36.296875 39.90625 39.546875 36.296875 
Q 42.796875 32.703125 42.796875 26.296875 
L 42.796875 4.703125 
Q 42.796875 3.703125 43.1875 3.140625 
Q 43.59375 2.59375 45.296875 2.203125 
L 49.703125 1.203125 
L 49.703125 -0.40625 
Q 43.5 0 40.09375 0 
Q 36.59375 0 30.40625 -0.40625 
L 30.40625 1.203125 
L 34.5 2.296875 
Q 35.796875 2.703125 36.34375 3.203125 
Q 36.90625 3.703125 36.90625 5.40625 
L 36.90625 26.09375 
Q 36.90625 30.296875 34.40625 32.796875 
Q 31.90625 35.296875 27.5 35.296875 
Q 24.09375 35.296875 21.1875 33.34375 
Q 18.296875 31.40625 15 27.203125 
L 15 5.40625 
Q 15 4.203125 15.34375 3.703125 
Q 15.703125 3.203125 16.90625 2.90625 
L 23.703125 1.203125 
L 23.703125 -0.40625 
Q 20.5 0 12.59375 0 
Q 4.703125 0 1.5 -0.40625 
L 1.5 1.203125 
L 6.90625 2.296875 
Q 8.203125 2.59375 8.59375 2.9375 
Q 9 3.296875 9 4.5 
z
" id="STSong-104"/>
     <path d="M 24.796875 -1.59375 
Q 16.09375 -1.59375 10 4.203125 
Q 3.90625 10 3.90625 19.296875 
Q 3.90625 28.203125 10 34.046875 
Q 16.09375 39.90625 26 39.90625 
Q 35.203125 39.90625 41.09375 33.75 
Q 47 27.59375 47 18.5 
Q 47 10.203125 40.75 4.296875 
Q 34.5 -1.59375 24.796875 -1.59375 
z
M 11.09375 18.296875 
Q 11.09375 10 15 5.140625 
Q 18.90625 0.296875 25.09375 0.296875 
Q 31.5 0.296875 35.640625 5.390625 
Q 39.796875 10.5 39.796875 18.90625 
Q 39.796875 27.5 35.890625 32.75 
Q 32 38 25.59375 38 
Q 18.703125 38 14.890625 33 
Q 11.09375 28 11.09375 18.296875 
z
" id="STSong-111"/>
    </defs>
    <g style="fill:#262626;" transform="translate(218.094545 126.420106)rotate(-30)scale(0.12 -0.12)">
     <use xlink:href="#STSong-80"/>
     <use x="56.299988" xlink:href="#STSong-121"/>
     <use x="97.999985" xlink:href="#STSong-116"/>
     <use x="127.199982" xlink:href="#STSong-104"/>
     <use x="178.199966" xlink:href="#STSong-111"/>
     <use x="229.199951" xlink:href="#STSong-110"/>
    </g>
   </g>
  </g>
 </g>
 <defs>
  <clipPath id="pd8299a4ee5">
   <rect height="217.44" width="334.8" x="7.2" y="7.2"/>
  </clipPath>
 </defs>
</svg>
