<?xml version="1.0" encoding="utf-8" standalone="no"?>
<!DOCTYPE svg PUBLIC "-//W3C//DTD SVG 1.1//EN"
  "http://www.w3.org/Graphics/SVG/1.1/DTD/svg11.dtd">
<!-- Created with matplotlib (https://matplotlib.org/) -->
<svg height="335.096094pt" version="1.1" viewBox="0 0 891.383438 335.096094" width="891.383438pt" xmlns="http://www.w3.org/2000/svg" xmlns:xlink="http://www.w3.org/1999/xlink">
 <defs>
  <style type="text/css">
*{stroke-linecap:butt;stroke-linejoin:round;}
  </style>
 </defs>
 <g id="figure_1">
  <g id="patch_1">
   <path d="M 0 335.096094 
L 891.383438 335.096094 
L 891.383438 0 
L 0 0 
z
" style="fill:#ffffff;"/>
  </g>
  <g id="axes_1">
   <g id="patch_2">
    <path d="M 47.183438 292.92 
L 293.359908 292.92 
L 293.359908 21.12 
L 47.183438 21.12 
z
" style="fill:#ffffff;"/>
   </g>
   <g id="matplotlib.axis_1">
    <g id="xtick_1">
     <g id="line2d_1">
      <defs>
       <path d="M 0 0 
L 0 6 
" id="m2fe69ffa5c" style="stroke:#262626;stroke-width:1.25;"/>
      </defs>
      <g>
       <use style="fill:#262626;stroke:#262626;stroke-width:1.25;" x="98.70553" xlink:href="#m2fe69ffa5c" y="292.92"/>
      </g>
     </g>
     <g id="text_1">
      <!-- 16 -->
      <defs>
       <path d="M 35.5 -0.296875 
Q 30.296875 0 23.796875 0 
Q 17.296875 0 12.09375 -0.296875 
L 12.09375 1.296875 
L 17.296875 2.203125 
Q 20.796875 2.90625 20.796875 6.09375 
L 20.796875 55.5 
L 8.90625 47.796875 
L 7.5 49.703125 
Q 14.40625 54.203125 24.09375 63.5 
L 27.40625 63.5 
L 27.40625 6.09375 
Q 27.40625 2.703125 30.90625 2.09375 
L 35.5 1.296875 
z
" id="STSong-49"/>
       <path d="M 38.40625 63.796875 
L 39.203125 61.90625 
Q 26.703125 57.203125 19.25 45.84375 
Q 11.796875 34.5 11.796875 21.5 
Q 11.796875 12.90625 15.390625 6.75 
Q 19 0.59375 24.203125 0.59375 
Q 35.40625 0.59375 35.40625 18.40625 
Q 35.40625 25.90625 32.5 30.09375 
Q 29.59375 34.296875 25.203125 34.296875 
Q 23.5 34.296875 21.90625 33.59375 
L 20.796875 35.203125 
Q 24 36.59375 27.296875 36.59375 
Q 33.90625 36.59375 38.25 31.59375 
Q 42.59375 26.59375 42.59375 17.90625 
Q 42.59375 9.59375 37.4375 4 
Q 32.296875 -1.59375 24.09375 -1.59375 
Q 15.59375 -1.59375 10.25 5.046875 
Q 4.90625 11.703125 4.90625 23.09375 
Q 4.90625 36.90625 13.953125 48.25 
Q 23 59.59375 38.40625 63.796875 
z
" id="STSong-54"/>
      </defs>
      <g style="fill:#262626;" transform="translate(93.545843 309.68)scale(0.11 -0.11)">
       <use xlink:href="#STSong-49"/>
       <use x="46.899994" xlink:href="#STSong-54"/>
      </g>
     </g>
    </g>
    <g id="xtick_2">
     <g id="line2d_2">
      <g>
       <use style="fill:#262626;stroke:#262626;stroke-width:1.25;" x="151.810705" xlink:href="#m2fe69ffa5c" y="292.92"/>
      </g>
     </g>
     <g id="text_2">
      <!-- 18 -->
      <defs>
       <path d="M 19.796875 31.203125 
Q 7.703125 37.203125 7.703125 47.5 
Q 7.703125 53.703125 12.640625 58.59375 
Q 17.59375 63.5 24.296875 63.5 
Q 31.90625 63.5 36.59375 59.390625 
Q 41.296875 55.296875 41.296875 49.09375 
Q 41.296875 43.703125 38.296875 40.390625 
Q 35.296875 37.09375 29.703125 34.296875 
Q 38.90625 29.90625 41.5 25.40625 
Q 44.09375 20.90625 44.09375 16.40625 
Q 44.09375 9.09375 38.640625 3.75 
Q 33.203125 -1.59375 25.09375 -1.59375 
Q 16.703125 -1.59375 11.703125 3.046875 
Q 6.703125 7.703125 6.703125 14.796875 
Q 6.703125 19.09375 8.703125 23.25 
Q 10.703125 27.40625 19.796875 31.203125 
z
M 27.5 35.5 
Q 31.59375 37.40625 33.796875 41.046875 
Q 36 44.703125 36 49 
Q 36 54.296875 32.953125 57.75 
Q 29.90625 61.203125 24.5 61.203125 
Q 19.59375 61.203125 16.5 57.84375 
Q 13.40625 54.5 13.40625 49.59375 
Q 13.40625 47.09375 14.296875 44.6875 
Q 15.203125 42.296875 19.25 39.5 
Q 23.296875 36.703125 27.5 35.5 
z
M 22.203125 30.09375 
Q 17.09375 27.59375 14.890625 23.9375 
Q 12.703125 20.296875 12.703125 14.203125 
Q 12.703125 8.09375 16.203125 4.4375 
Q 19.703125 0.796875 25 0.796875 
Q 30.5 0.796875 34.140625 4.4375 
Q 37.796875 8.09375 37.796875 13.796875 
Q 37.796875 19.796875 34.140625 23.390625 
Q 30.5 27 22.203125 30.09375 
z
" id="STSong-56"/>
      </defs>
      <g style="fill:#262626;" transform="translate(146.651017 309.68)scale(0.11 -0.11)">
       <use xlink:href="#STSong-49"/>
       <use x="46.899994" xlink:href="#STSong-56"/>
      </g>
     </g>
    </g>
    <g id="xtick_3">
     <g id="line2d_3">
      <g>
       <use style="fill:#262626;stroke:#262626;stroke-width:1.25;" x="204.915879" xlink:href="#m2fe69ffa5c" y="292.92"/>
      </g>
     </g>
     <g id="text_3">
      <!-- 20 -->
      <defs>
       <path d="M 42.59375 -0.296875 
Q 35.40625 0 22.203125 0 
Q 9.296875 0 2.203125 -0.296875 
Q 4.09375 3.59375 7 7.09375 
Q 9.90625 10.59375 16.296875 17 
Q 25.59375 26.296875 29.890625 32.84375 
Q 34.203125 39.40625 34.203125 46.09375 
Q 34.203125 51.59375 30.75 55 
Q 27.296875 58.40625 22.203125 58.40625 
Q 17.203125 58.40625 13.09375 54.953125 
Q 9 51.5 7.40625 45.203125 
L 5.09375 45.59375 
Q 6.703125 54.09375 11.796875 58.796875 
Q 16.90625 63.5 24.203125 63.5 
Q 31.5 63.5 36.59375 58.640625 
Q 41.703125 53.796875 41.703125 47 
Q 41.703125 40.203125 36.953125 34.25 
Q 32.203125 28.296875 22.59375 19.40625 
Q 17.5 14.703125 9.90625 5.296875 
L 33.40625 5.296875 
Q 37.203125 5.296875 38.75 6.640625 
Q 40.296875 8 42 12.5 
L 44.09375 12.5 
z
" id="STSong-50"/>
       <path d="M 23.703125 63.5 
Q 32 63.5 38.046875 54.140625 
Q 44.09375 44.796875 44.09375 30.90625 
Q 44.09375 17.09375 38.046875 7.75 
Q 32 -1.59375 23.703125 -1.59375 
Q 15.703125 -1.59375 9.5 7.65625 
Q 3.296875 16.90625 3.296875 30.90625 
Q 3.296875 44.796875 9.34375 54.140625 
Q 15.40625 63.5 23.703125 63.5 
z
M 23.703125 0.703125 
Q 31.09375 0.703125 33.9375 8.046875 
Q 36.796875 15.40625 36.796875 30.90625 
Q 36.796875 46.40625 33.9375 53.796875 
Q 31.09375 61.203125 23.703125 61.203125 
Q 16.296875 61.203125 13.4375 53.796875 
Q 10.59375 46.40625 10.59375 30.90625 
Q 10.59375 0.703125 23.703125 0.703125 
z
" id="STSong-48"/>
      </defs>
      <g style="fill:#262626;" transform="translate(199.756192 309.68)scale(0.11 -0.11)">
       <use xlink:href="#STSong-50"/>
       <use x="46.899994" xlink:href="#STSong-48"/>
      </g>
     </g>
    </g>
    <g id="xtick_4">
     <g id="line2d_4">
      <g>
       <use style="fill:#262626;stroke:#262626;stroke-width:1.25;" x="258.021054" xlink:href="#m2fe69ffa5c" y="292.92"/>
      </g>
     </g>
     <g id="text_4">
      <!-- 22 -->
      <g style="fill:#262626;" transform="translate(252.861366 309.68)scale(0.11 -0.11)">
       <use xlink:href="#STSong-50"/>
       <use x="46.899994" xlink:href="#STSong-50"/>
      </g>
     </g>
    </g>
    <g id="text_5">
     <!-- 横轴 -->
     <defs>
      <path d="M 35.90625 53.796875 
Q 36.703125 52.90625 36.703125 52.34375 
Q 36.703125 51.796875 35.59375 51.796875 
L 23.40625 51.796875 
L 23.40625 39.703125 
Q 28.40625 37.203125 31.953125 34.296875 
Q 35.5 31.40625 35.5 28.296875 
Q 35.5 26.90625 34.796875 25.953125 
Q 34.09375 25 33.25 25 
Q 32.40625 25 31.59375 25.796875 
Q 30.796875 26.59375 30.34375 28.1875 
Q 29.90625 29.796875 28.046875 32.546875 
Q 26.203125 35.296875 23.40625 37.796875 
L 23.40625 0.59375 
Q 23.40625 -5.90625 23.5 -8.40625 
L 23.59375 -13.09375 
Q 23.59375 -14.796875 21.59375 -15.640625 
Q 19.59375 -16.5 19 -16.5 
Q 18.40625 -16.5 18.40625 -14.90625 
L 18.796875 -7.09375 
Q 19 -2.296875 19 2.59375 
L 19 40.703125 
Q 13.59375 23.59375 5 7.296875 
L 3.703125 8 
Q 13.09375 28.296875 17.796875 51.796875 
L 12.90625 51.796875 
Q 9 51.796875 6.203125 50.703125 
L 3.40625 54.40625 
Q 8.203125 54 10.703125 54 
L 19 54 
L 19 63.09375 
Q 19 69.796875 18.59375 77.703125 
L 25 74 
Q 26.09375 73.40625 26.09375 72.953125 
Q 26.09375 72.5 25.09375 71.90625 
L 23.40625 70.90625 
L 23.40625 54 
L 27.09375 54 
L 30.796875 59.09375 
z
M 95.796875 48.703125 
Q 96.90625 47.703125 96.90625 47.09375 
Q 96.90625 46.5 95.296875 46.5 
L 65.296875 46.5 
L 65.296875 36.09375 
L 79.5 36.09375 
L 81.90625 39.796875 
L 87.59375 35.59375 
Q 88.5 35 88.5 34.640625 
Q 88.5 34.296875 87.59375 33.703125 
L 85.5 32.296875 
L 85.5 16.703125 
Q 85.5 13 85.75 10 
Q 86 7 86 6.40625 
Q 86 4.90625 83.953125 3.84375 
Q 81.90625 2.796875 81.34375 2.796875 
Q 80.796875 2.796875 80.796875 4.203125 
L 80.796875 6.703125 
L 45.40625 6.703125 
L 45.40625 5 
Q 45.40625 3.796875 45.046875 3.296875 
Q 44.703125 2.796875 43.34375 2.140625 
Q 42 1.5 41.25 1.5 
Q 40.5 1.5 40.5 3.296875 
L 40.703125 7.703125 
Q 40.796875 10 40.796875 17 
L 40.796875 32.296875 
Q 40.796875 36.59375 40.5 40.90625 
L 46.703125 36.09375 
L 60.703125 36.09375 
L 60.703125 46.5 
L 41.203125 46.5 
Q 37.5 46.5 34.796875 45.5 
L 32.09375 49.09375 
Q 36.59375 48.703125 39.09375 48.703125 
L 50.09375 48.703125 
L 50.09375 60.59375 
L 46.703125 60.59375 
Q 42.90625 60.59375 40 59.59375 
L 37.203125 63.203125 
Q 41.90625 62.796875 44.5 62.796875 
L 50.09375 62.796875 
L 50.09375 67.703125 
Q 50.09375 72.5 49.796875 77.5 
L 56.703125 74.40625 
Q 57.59375 74 57.59375 73.59375 
Q 57.59375 73.203125 56.796875 72.703125 
L 54.796875 71.40625 
L 54.796875 62.796875 
L 71.296875 62.796875 
L 71.296875 67.296875 
Q 71.296875 72.09375 71 77.09375 
L 77.59375 74.40625 
Q 78.59375 74 78.59375 73.640625 
Q 78.59375 73.296875 77.796875 72.703125 
L 76 71.40625 
L 76 62.796875 
L 83.40625 62.796875 
L 86.703125 67.40625 
L 91.90625 62.40625 
Q 92.703125 61.59375 92.703125 61.09375 
Q 92.703125 60.59375 91.40625 60.59375 
L 76 60.59375 
L 76 48.703125 
L 86.40625 48.703125 
L 90.203125 54.09375 
z
M 71.296875 48.703125 
L 71.296875 60.59375 
L 54.796875 60.59375 
L 54.796875 48.703125 
z
M 80.796875 22.296875 
L 80.796875 33.90625 
L 65.296875 33.90625 
L 65.296875 22.296875 
z
M 60.703125 22.296875 
L 60.703125 33.90625 
L 45.40625 33.90625 
L 45.40625 22.296875 
z
M 80.796875 8.90625 
L 80.796875 20.09375 
L 65.296875 20.09375 
L 65.296875 8.90625 
z
M 60.703125 8.90625 
L 60.703125 20.09375 
L 45.40625 20.09375 
L 45.40625 8.90625 
z
M 59.59375 -2.203125 
Q 60.203125 -2.703125 60.203125 -3.09375 
Q 60.203125 -3.5 58.140625 -3.703125 
Q 56.09375 -3.90625 54.296875 -4.90625 
Q 40.59375 -12.5 28.40625 -17.203125 
L 28 -15.796875 
Q 43.90625 -7.703125 54.203125 2.40625 
z
M 68.40625 1.296875 
Q 78.09375 -1.5 83.1875 -3.59375 
Q 88.296875 -5.703125 90.1875 -7.75 
Q 92.09375 -9.796875 92.09375 -12.796875 
Q 92.09375 -15.796875 90.296875 -15.796875 
Q 89.5 -15.796875 86.25 -12.546875 
Q 83 -9.296875 79 -6.390625 
Q 75 -3.5 67.90625 0.09375 
z
" id="STSong-27178"/>
      <path d="M 91.59375 53.703125 
Q 92.40625 53.09375 92.40625 52.6875 
Q 92.40625 52.296875 91.5 51.59375 
L 89.09375 49.703125 
L 89.09375 12.90625 
Q 89.09375 5.09375 89.296875 -0.703125 
L 89.5 -9.40625 
Q 89.5 -10.796875 87.5 -11.890625 
Q 85.5 -13 84.953125 -13 
Q 84.40625 -13 84.40625 -11 
L 84.40625 -3.59375 
L 50.203125 -3.59375 
L 50.203125 -10.796875 
Q 50.203125 -11.703125 49.84375 -12.046875 
Q 49.5 -12.40625 48.046875 -13.15625 
Q 46.59375 -13.90625 46 -13.90625 
Q 45.40625 -13.90625 45.40625 -12.203125 
L 45.59375 -3.703125 
Q 45.796875 1.796875 45.796875 7.40625 
L 45.796875 48.5 
Q 45.796875 55.203125 45.5 59.40625 
L 52 53.796875 
L 64.796875 53.796875 
L 64.796875 62.296875 
Q 64.796875 71.796875 64.5 77.296875 
L 71.59375 73.5 
Q 72.703125 72.90625 72.703125 72.59375 
Q 72.703125 72.296875 71.59375 71.703125 
L 69.40625 70.5 
L 69.40625 53.796875 
L 82.90625 53.796875 
L 85.59375 58.203125 
z
M 84.40625 26.40625 
L 84.40625 51.59375 
L 69.40625 51.59375 
L 69.40625 26.40625 
z
M 64.796875 26.40625 
L 64.796875 51.59375 
L 50.203125 51.59375 
L 50.203125 26.40625 
z
M 84.40625 -1.40625 
L 84.40625 24.203125 
L 69.40625 24.203125 
L 69.40625 -1.40625 
z
M 64.796875 -1.40625 
L 64.796875 24.203125 
L 50.203125 24.203125 
L 50.203125 -1.40625 
z
M 42.5 16.203125 
L 28.5 12.296875 
L 28.5 4.5 
Q 28.5 -2.796875 28.640625 -7.1875 
Q 28.796875 -11.59375 28.796875 -12.25 
Q 28.796875 -12.90625 28.390625 -13.34375 
Q 28 -13.796875 26.453125 -14.59375 
Q 24.90625 -15.40625 24.25 -15.40625 
Q 23.59375 -15.40625 23.59375 -14.09375 
Q 23.59375 -12.796875 23.890625 -8.390625 
Q 24.203125 -4 24.203125 4.703125 
L 24.203125 11.203125 
Q 10.09375 7.296875 8.59375 5.40625 
Q 8.203125 4.796875 7.890625 4.796875 
Q 7.59375 4.796875 7.296875 5.40625 
L 4.59375 10.703125 
L 24.203125 14.296875 
L 24.203125 29.90625 
L 13.59375 29.90625 
L 11.40625 27.90625 
Q 10.796875 27.296875 10.546875 27.296875 
Q 10.296875 27.296875 9.90625 27.703125 
L 5 32.296875 
Q 7.59375 33.40625 8.5 34.5 
Q 9.40625 35.59375 11.25 40.640625 
Q 13.09375 45.703125 16.703125 56.90625 
L 13.90625 56.90625 
Q 10 56.90625 7.203125 55.796875 
L 4.40625 59.5 
Q 9.203125 59.09375 11.703125 59.09375 
L 17.296875 59.09375 
Q 21.09375 71.296875 22.59375 76.90625 
L 28.90625 73.203125 
Q 29.59375 72.796875 29.59375 72.546875 
Q 29.59375 72.296875 28.90625 72 
L 25.703125 70.5 
L 21.703125 59.09375 
L 33.203125 59.09375 
L 37.09375 64.203125 
L 41.703125 58.90625 
Q 42.703125 57.703125 42.703125 57.296875 
Q 42.703125 56.90625 41.296875 56.90625 
L 21 56.90625 
L 12.40625 32.09375 
L 24.203125 32.09375 
L 24.203125 36.09375 
Q 24.203125 44.59375 23.90625 50.5 
L 30.203125 47 
Q 31.09375 46.5 31.09375 46.296875 
Q 31.09375 46.09375 30.5 45.59375 
L 28.5 44 
L 28.5 32.09375 
L 32.09375 32.09375 
L 36.203125 36.703125 
L 40.296875 32.09375 
Q 41.40625 30.796875 41.40625 30.34375 
Q 41.40625 29.90625 39.90625 29.90625 
L 28.5 29.90625 
L 28.5 15.09375 
L 42.296875 17.703125 
z
" id="STSong-36724"/>
     </defs>
     <g style="fill:#262626;" transform="translate(158.271673 324.811719)scale(0.12 -0.12)">
      <use xlink:href="#STSong-27178"/>
      <use x="99.999985" xlink:href="#STSong-36724"/>
     </g>
    </g>
   </g>
   <g id="matplotlib.axis_2">
    <g id="ytick_1">
     <g id="line2d_5">
      <defs>
       <path d="M 0 0 
L -6 0 
" id="m5c887698d9" style="stroke:#262626;stroke-width:1.25;"/>
      </defs>
      <g>
       <use style="fill:#262626;stroke:#262626;stroke-width:1.25;" x="47.183438" xlink:href="#m5c887698d9" y="262.749067"/>
      </g>
     </g>
     <g id="text_6">
      <!-- 100 -->
      <g style="fill:#262626;" transform="translate(22.204375 266.379067)scale(0.11 -0.11)">
       <use xlink:href="#STSong-49"/>
       <use x="46.899994" xlink:href="#STSong-48"/>
       <use x="93.799988" xlink:href="#STSong-48"/>
      </g>
     </g>
    </g>
    <g id="ytick_2">
     <g id="line2d_6">
      <g>
       <use style="fill:#262626;stroke:#262626;stroke-width:1.25;" x="47.183438" xlink:href="#m5c887698d9" y="231.934021"/>
      </g>
     </g>
     <g id="text_7">
      <!-- 150 -->
      <defs>
       <path d="M 38 56.59375 
L 24 56.59375 
Q 16.203125 56.59375 15.40625 56.296875 
L 14.09375 38 
Q 18.5 40.09375 23.09375 40.09375 
Q 31.296875 40.09375 37 34.5 
Q 42.703125 28.90625 42.703125 19.90625 
Q 42.703125 9.90625 35.640625 4.15625 
Q 28.59375 -1.59375 19.59375 -1.59375 
Q 14.59375 -1.59375 10.390625 0.15625 
Q 6.203125 1.90625 6.203125 4 
Q 6.203125 5 7.09375 6.046875 
Q 8 7.09375 9.59375 7.09375 
Q 10.703125 7.09375 11.40625 6.59375 
Q 18.40625 1.296875 22.703125 1.296875 
Q 28.296875 1.296875 32.59375 6.140625 
Q 36.90625 11 36.90625 17.59375 
Q 36.90625 24.59375 32.546875 29.25 
Q 28.203125 33.90625 21.796875 33.90625 
Q 19 33.90625 16.546875 33 
Q 14.09375 32.09375 13 30.5 
L 11.296875 30.5 
L 13.203125 62.5 
L 24.09375 62.5 
Q 31.59375 62.5 34 62.703125 
Q 36.40625 62.90625 37.40625 64.203125 
L 38.90625 64.203125 
z
" id="STSong-53"/>
      </defs>
      <g style="fill:#262626;" transform="translate(22.204375 235.564021)scale(0.11 -0.11)">
       <use xlink:href="#STSong-49"/>
       <use x="46.899994" xlink:href="#STSong-53"/>
       <use x="93.799988" xlink:href="#STSong-48"/>
      </g>
     </g>
    </g>
    <g id="ytick_3">
     <g id="line2d_7">
      <g>
       <use style="fill:#262626;stroke:#262626;stroke-width:1.25;" x="47.183438" xlink:href="#m5c887698d9" y="201.118976"/>
      </g>
     </g>
     <g id="text_8">
      <!-- 200 -->
      <g style="fill:#262626;" transform="translate(22.204375 204.748976)scale(0.11 -0.11)">
       <use xlink:href="#STSong-50"/>
       <use x="46.899994" xlink:href="#STSong-48"/>
       <use x="93.799988" xlink:href="#STSong-48"/>
      </g>
     </g>
    </g>
    <g id="ytick_4">
     <g id="line2d_8">
      <g>
       <use style="fill:#262626;stroke:#262626;stroke-width:1.25;" x="47.183438" xlink:href="#m5c887698d9" y="170.30393"/>
      </g>
     </g>
     <g id="text_9">
      <!-- 250 -->
      <g style="fill:#262626;" transform="translate(22.204375 173.93393)scale(0.11 -0.11)">
       <use xlink:href="#STSong-50"/>
       <use x="46.899994" xlink:href="#STSong-53"/>
       <use x="93.799988" xlink:href="#STSong-48"/>
      </g>
     </g>
    </g>
    <g id="ytick_5">
     <g id="line2d_9">
      <g>
       <use style="fill:#262626;stroke:#262626;stroke-width:1.25;" x="47.183438" xlink:href="#m5c887698d9" y="139.488885"/>
      </g>
     </g>
     <g id="text_10">
      <!-- 300 -->
      <defs>
       <path d="M 9.40625 48.90625 
L 7.59375 49.90625 
Q 10.5 56.796875 14.59375 60.140625 
Q 18.703125 63.5 24.90625 63.5 
Q 30.5 63.5 34.296875 60.296875 
Q 38.09375 57.09375 38.09375 53.203125 
Q 38.09375 49.296875 35.4375 45.796875 
Q 32.796875 42.296875 27.203125 38.09375 
Q 34.5 38.59375 38.890625 33.796875 
Q 43.296875 29 43.296875 21.5 
Q 43.296875 11.796875 36.390625 5.09375 
Q 29.5 -1.59375 18.796875 -1.59375 
Q 11.90625 -1.59375 8.296875 0.046875 
Q 4.703125 1.703125 4.703125 3.90625 
Q 4.703125 4.90625 5.640625 5.75 
Q 6.59375 6.59375 7.703125 6.59375 
Q 9.40625 6.59375 11.59375 4.796875 
Q 17.203125 0.59375 21.09375 0.59375 
Q 27.203125 0.59375 31.84375 5.890625 
Q 36.5 11.203125 36.5 18.796875 
Q 36.5 25.203125 33.34375 29.34375 
Q 30.203125 33.5 25.40625 33.5 
Q 21.703125 33.5 17.796875 30.09375 
L 16.703125 32 
Q 18.703125 33.796875 21.09375 35.59375 
Q 32.09375 43.703125 32.09375 49.296875 
Q 32.09375 53.40625 29.34375 55.90625 
Q 26.59375 58.40625 22.5 58.40625 
Q 18.5 58.40625 14.953125 55.953125 
Q 11.40625 53.5 9.40625 48.90625 
z
" id="STSong-51"/>
      </defs>
      <g style="fill:#262626;" transform="translate(22.204375 143.118885)scale(0.11 -0.11)">
       <use xlink:href="#STSong-51"/>
       <use x="46.899994" xlink:href="#STSong-48"/>
       <use x="93.799988" xlink:href="#STSong-48"/>
      </g>
     </g>
    </g>
    <g id="ytick_6">
     <g id="line2d_10">
      <g>
       <use style="fill:#262626;stroke:#262626;stroke-width:1.25;" x="47.183438" xlink:href="#m5c887698d9" y="108.673839"/>
      </g>
     </g>
     <g id="text_11">
      <!-- 350 -->
      <g style="fill:#262626;" transform="translate(22.204375 112.303839)scale(0.11 -0.11)">
       <use xlink:href="#STSong-51"/>
       <use x="46.899994" xlink:href="#STSong-53"/>
       <use x="93.799988" xlink:href="#STSong-48"/>
      </g>
     </g>
    </g>
    <g id="ytick_7">
     <g id="line2d_11">
      <g>
       <use style="fill:#262626;stroke:#262626;stroke-width:1.25;" x="47.183438" xlink:href="#m5c887698d9" y="77.858793"/>
      </g>
     </g>
     <g id="text_12">
      <!-- 400 -->
      <defs>
       <path d="M 32.59375 63.5 
L 35 63.5 
L 35 22 
L 45.59375 22 
L 45.59375 17.40625 
L 35 17.40625 
L 35 -1.59375 
L 28.40625 -1.59375 
L 28.40625 17.40625 
L 2.796875 17.40625 
L 2.796875 20.703125 
L 14.703125 38.09375 
z
M 28.40625 22 
L 28.40625 52.703125 
Q 14.796875 33.796875 7.59375 22 
z
" id="STSong-52"/>
      </defs>
      <g style="fill:#262626;" transform="translate(22.204375 81.488793)scale(0.11 -0.11)">
       <use xlink:href="#STSong-52"/>
       <use x="46.899994" xlink:href="#STSong-48"/>
       <use x="93.799988" xlink:href="#STSong-48"/>
      </g>
     </g>
    </g>
    <g id="ytick_8">
     <g id="line2d_12">
      <g>
       <use style="fill:#262626;stroke:#262626;stroke-width:1.25;" x="47.183438" xlink:href="#m5c887698d9" y="47.043748"/>
      </g>
     </g>
     <g id="text_13">
      <!-- 450 -->
      <g style="fill:#262626;" transform="translate(22.204375 50.673748)scale(0.11 -0.11)">
       <use xlink:href="#STSong-52"/>
       <use x="46.899994" xlink:href="#STSong-53"/>
       <use x="93.799988" xlink:href="#STSong-48"/>
      </g>
     </g>
    </g>
    <g id="text_14">
     <!-- Verticle -->
     <defs>
      <path d="M 68.59375 61.203125 
L 63.203125 60.296875 
Q 60.203125 59.703125 59.09375 57 
L 36.09375 -2.296875 
L 34 -2.296875 
L 9.59375 55.296875 
Q 8.5 57.90625 7.640625 58.796875 
Q 6.796875 59.703125 5.296875 60 
L -0.296875 61.203125 
L -0.296875 62.796875 
Q 3.09375 62.5 14.203125 62.5 
Q 23.90625 62.5 28.796875 62.796875 
L 28.796875 61.203125 
L 22.40625 60.796875 
Q 19.796875 60.703125 18.6875 60.046875 
Q 17.59375 59.40625 17.59375 58 
Q 17.59375 56.5 19.203125 52.703125 
L 37.40625 8.90625 
L 53.40625 53.296875 
Q 54.40625 56.203125 54.40625 57.40625 
Q 54.40625 58.90625 53.046875 59.546875 
Q 51.703125 60.203125 47.90625 60.703125 
L 43.90625 61.203125 
L 43.90625 62.796875 
Q 46.59375 62.5 56.203125 62.5 
Q 66.40625 62.5 68.59375 62.796875 
z
" id="STSong-86"/>
      <path d="M 38.703125 25.09375 
L 10.796875 25.09375 
Q 10.5 23.09375 10.5 21.09375 
Q 10.5 13.296875 14.75 8.390625 
Q 19 3.5 26.296875 3.5 
Q 29.796875 3.5 32.6875 4.890625 
Q 35.59375 6.296875 39 9.5 
L 39.40625 7.09375 
Q 32.40625 -1.59375 21.296875 -1.59375 
Q 14 -1.59375 9.09375 4.296875 
Q 4.203125 10.203125 4.203125 18.59375 
Q 4.203125 27.796875 9.640625 33.84375 
Q 15.09375 39.90625 23.5 39.90625 
Q 29.90625 39.90625 34.15625 35.84375 
Q 38.40625 31.796875 38.703125 25.09375 
z
M 11.296875 27.203125 
L 29.5 27.203125 
Q 32.203125 27.203125 32.203125 29.296875 
Q 32.203125 31.40625 30.203125 34.5 
Q 28.203125 37.59375 23.09375 37.59375 
Q 18.703125 37.59375 15.5 34.75 
Q 12.296875 31.90625 11.296875 27.203125 
z
" id="STSong-101"/>
      <path d="M 2.09375 -0.40625 
L 2.09375 1.203125 
L 7.09375 2.09375 
Q 9.09375 2.59375 9.640625 3.59375 
Q 10.203125 4.59375 10.203125 7.203125 
L 10.203125 26.40625 
Q 10.203125 28.40625 9.34375 29.296875 
Q 8.5 30.203125 5.59375 30.796875 
L 2.90625 31.40625 
L 3.09375 32.90625 
Q 7 34.296875 9.59375 36.140625 
Q 12.203125 38 14.203125 42.203125 
L 16 42.203125 
Q 16.40625 36.796875 16.40625 29.59375 
Q 18.296875 33.203125 21.890625 36.546875 
Q 25.5 39.90625 28.296875 39.90625 
Q 30.5 39.90625 31.84375 38.5 
Q 33.203125 37.09375 33.203125 34.90625 
Q 33.203125 33.203125 32.09375 32.203125 
Q 31 31.203125 29.296875 31.203125 
Q 27.796875 31.203125 26.09375 31.90625 
Q 24.09375 32.796875 22.796875 32.796875 
Q 20.59375 32.796875 18.5 29.1875 
Q 16.40625 25.59375 16.40625 23.59375 
L 16.40625 7 
Q 16.40625 4.40625 17.25 3.546875 
Q 18.09375 2.703125 20.90625 2.296875 
L 28.59375 1.203125 
L 28.59375 -0.40625 
Q 23.203125 0 15.296875 0 
Q 7.796875 0 2.09375 -0.40625 
z
" id="STSong-114"/>
      <path d="M 15.296875 48.203125 
L 16.5 48.203125 
L 16.59375 37.5 
L 30.203125 37.796875 
L 30.203125 34.203125 
L 16.59375 33.796875 
L 16.59375 10 
Q 16.59375 5.5 17.84375 3.5 
Q 19.09375 1.5 21.90625 1.5 
Q 25.296875 1.5 30.09375 4.296875 
L 31 2.90625 
Q 28.90625 0.5 26.15625 -0.546875 
Q 23.40625 -1.59375 18.703125 -1.59375 
Q 13.5 -1.59375 11.890625 0.953125 
Q 10.296875 3.5 10.296875 11 
L 10.296875 33.59375 
L 4.90625 33.5 
Q 3.5 33.5 3.5 34.296875 
Q 3.5 35 4.796875 35.59375 
Q 9.09375 37.40625 11.046875 39.75 
Q 13 42.09375 15.296875 48.203125 
z
" id="STSong-116"/>
      <path d="M 11.203125 64 
Q 12.90625 64 14.296875 62.703125 
Q 15.703125 61.40625 15.703125 59.703125 
Q 15.703125 58.09375 14.25 56.84375 
Q 12.796875 55.59375 11 55.59375 
Q 9.296875 55.59375 8.09375 56.796875 
Q 6.90625 58 6.90625 59.703125 
Q 6.90625 61.40625 8.203125 62.703125 
Q 9.5 64 11.203125 64 
z
M 22.203125 -0.40625 
Q 19.09375 0 11.203125 0 
Q 3.296875 0 0.203125 -0.40625 
L 0.203125 1.203125 
L 5.796875 2.296875 
Q 8.90625 2.90625 8.90625 5.90625 
L 8.90625 29.40625 
Q 8.90625 31.796875 7.703125 32.890625 
Q 6.5 34 2.90625 34.796875 
L 2.90625 36.203125 
Q 10 38 13.296875 43.40625 
L 14.90625 43.40625 
L 14.90625 5.59375 
Q 14.90625 4.09375 15.34375 3.390625 
Q 15.796875 2.703125 17.09375 2.40625 
L 22.203125 1.203125 
z
" id="STSong-105"/>
      <path d="M 39 8.90625 
L 39.09375 5.796875 
Q 35.40625 1.90625 31.703125 0.15625 
Q 28 -1.59375 22.796875 -1.59375 
Q 15 -1.59375 9.75 4.5 
Q 4.5 10.59375 4.5 19.703125 
Q 4.5 29.59375 10 34.75 
Q 15.5 39.90625 26.09375 39.90625 
Q 31.59375 39.90625 35.046875 38.296875 
Q 38.5 36.703125 38.5 34 
Q 38.5 32.59375 37.546875 31.5 
Q 36.59375 30.40625 35 30.40625 
Q 32.40625 30.40625 29.40625 33.40625 
Q 26.09375 36.703125 22.5 36.703125 
Q 18.203125 36.703125 14.953125 32.046875 
Q 11.703125 27.40625 11.703125 20.40625 
Q 11.703125 12.40625 15.890625 7.703125 
Q 20.09375 3 25.796875 3 
Q 32.296875 3 39 8.90625 
z
" id="STSong-99"/>
      <path d="M 22.703125 -0.296875 
Q 17.796875 0 11.59375 0 
Q 5.40625 0 0.5 -0.296875 
L 0.5 1.296875 
L 6.703125 2.5 
Q 8 2.796875 8.5 3.296875 
Q 9 3.796875 9 5.296875 
L 9 56.09375 
Q 9 58.203125 7.796875 59.203125 
Q 6.59375 60.203125 2.5 61.40625 
L 2.5 62.703125 
Q 6.296875 63.5 12.796875 66 
L 15.09375 66 
L 15.09375 5.5 
Q 15.09375 3.59375 15.5 3.046875 
Q 15.90625 2.5 17.40625 2.203125 
L 22.703125 1.296875 
z
" id="STSong-108"/>
     </defs>
     <g style="fill:#262626;" transform="translate(15.12 175.0875)rotate(-90)scale(0.12 -0.12)">
      <use xlink:href="#STSong-86"/>
      <use x="67.699982" xlink:href="#STSong-101"/>
      <use x="109.399979" xlink:href="#STSong-114"/>
      <use x="142.699966" xlink:href="#STSong-116"/>
      <use x="171.899963" xlink:href="#STSong-105"/>
      <use x="194.799957" xlink:href="#STSong-99"/>
      <use x="236.499954" xlink:href="#STSong-108"/>
      <use x="259.399948" xlink:href="#STSong-101"/>
     </g>
    </g>
   </g>
   <g id="PathCollection_1">
    <path clip-path="url(#p0af95b93b6)" d="M 109.242669 229.125114 
L 110.91972 227.448063 
L 112.596771 229.125114 
L 114.273822 227.448063 
L 112.596771 225.771012 
L 114.273822 224.093961 
L 112.596771 222.41691 
L 110.91972 224.093961 
L 109.242669 222.41691 
L 107.565618 224.093961 
L 109.242669 225.771012 
L 107.565618 227.448063 
z
" style="fill:#a9678f;stroke:#ffffff;stroke-width:0.75;"/>
    <path clip-path="url(#p0af95b93b6)" d="M 124.112118 229.125114 
L 125.789169 227.448063 
L 127.46622 229.125114 
L 129.143271 227.448063 
L 127.46622 225.771012 
L 129.143271 224.093961 
L 127.46622 222.41691 
L 125.789169 224.093961 
L 124.112118 222.41691 
L 122.435067 224.093961 
L 124.112118 225.771012 
L 122.435067 227.448063 
z
" style="fill:#a9678f;stroke:#ffffff;stroke-width:0.75;"/>
    <path clip-path="url(#p0af95b93b6)" d="M 168.007783 259.93998 
C 168.570364 259.93998 169.109978 259.716464 169.507783 259.31866 
C 169.905588 258.920855 170.129103 258.381241 170.129103 257.81866 
C 170.129103 257.256079 169.905588 256.716464 169.507783 256.31866 
C 169.109978 255.920855 168.570364 255.697339 168.007783 255.697339 
C 167.445202 255.697339 166.905588 255.920855 166.507783 256.31866 
C 166.109978 256.716464 165.886463 257.256079 165.886463 257.81866 
C 165.886463 258.381241 166.109978 258.920855 166.507783 259.31866 
C 166.905588 259.716464 167.445202 259.93998 168.007783 259.93998 
z
" style="fill:#edd1cb;stroke:#ffffff;stroke-width:0.75;"/>
    <path clip-path="url(#p0af95b93b6)" d="M 188.369379 168.727625 
L 190.04643 167.050574 
L 191.723481 168.727625 
L 193.400532 167.050574 
L 191.723481 165.373523 
L 193.400532 163.696472 
L 191.723481 162.019421 
L 190.04643 163.696472 
L 188.369379 162.019421 
L 186.692328 163.696472 
L 188.369379 165.373523 
L 186.692328 167.050574 
z
" style="fill:#a9678f;stroke:#ffffff;stroke-width:0.75;"/>
    <path clip-path="url(#p0af95b93b6)" d="M 121.546529 106.75347 
L 130.03181 106.75347 
L 130.03181 98.268189 
L 121.546529 98.268189 
z
" style="fill:#2d1e3e;stroke:#ffffff;stroke-width:0.75;"/>
    <path clip-path="url(#p0af95b93b6)" d="M 209.080398 189.065555 
L 210.757449 187.388504 
L 212.434499 189.065555 
L 214.11155 187.388504 
L 212.434499 185.711453 
L 214.11155 184.034402 
L 212.434499 182.357351 
L 210.757449 184.034402 
L 209.080398 182.357351 
L 207.403347 184.034402 
L 209.080398 185.711453 
L 207.403347 187.388504 
z
" style="fill:#a9678f;stroke:#ffffff;stroke-width:0.75;"/>
    <path clip-path="url(#p0af95b93b6)" d="M 90.214476 106.75347 
L 98.699757 106.75347 
L 98.699757 98.268189 
L 90.214476 98.268189 
z
" style="fill:#2d1e3e;stroke:#ffffff;stroke-width:0.75;"/>
    <path clip-path="url(#p0af95b93b6)" d="M 204.915879 236.089135 
C 205.47846 236.089135 206.018075 235.865619 206.415879 235.467814 
C 206.813684 235.07001 207.0372 234.530395 207.0372 233.967814 
C 207.0372 233.405234 206.813684 232.865619 206.415879 232.467814 
C 206.018075 232.07001 205.47846 231.846494 204.915879 231.846494 
C 204.353299 231.846494 203.813684 232.07001 203.415879 232.467814 
C 203.018075 232.865619 202.794559 233.405234 202.794559 233.967814 
C 202.794559 234.530395 203.018075 235.07001 203.415879 235.467814 
C 203.813684 235.865619 204.353299 236.089135 204.915879 236.089135 
z
" style="fill:#edd1cb;stroke:#ffffff;stroke-width:0.75;"/>
    <path clip-path="url(#p0af95b93b6)" d="M 281.918382 239.72531 
C 282.480963 239.72531 283.020578 239.501795 283.418382 239.10399 
C 283.816187 238.706185 284.039703 238.166571 284.039703 237.60399 
C 284.039703 237.041409 283.816187 236.501795 283.418382 236.10399 
C 283.020578 235.706185 282.480963 235.48267 281.918382 235.48267 
C 281.355802 235.48267 280.816187 235.706185 280.418382 236.10399 
C 280.020578 236.501795 279.797062 237.041409 279.797062 237.60399 
C 279.797062 238.166571 280.020578 238.706185 280.418382 239.10399 
C 280.816187 239.501795 281.355802 239.72531 281.918382 239.72531 
z
" style="fill:#edd1cb;stroke:#ffffff;stroke-width:0.75;"/>
    <path clip-path="url(#p0af95b93b6)" d="M 158.09943 224.441227 
L 159.776481 222.764176 
L 161.453532 224.441227 
L 163.130583 222.764176 
L 161.453532 221.087125 
L 163.130583 219.410074 
L 161.453532 217.733023 
L 159.776481 219.410074 
L 158.09943 217.733023 
L 156.422379 219.410074 
L 158.09943 221.087125 
L 156.422379 222.764176 
z
" style="fill:#a9678f;stroke:#ffffff;stroke-width:0.75;"/>
    <path clip-path="url(#p0af95b93b6)" d="M 174.030982 224.441227 
L 175.708033 222.764176 
L 177.385084 224.441227 
L 179.062135 222.764176 
L 177.385084 221.087125 
L 179.062135 219.410074 
L 177.385084 217.733023 
L 175.708033 219.410074 
L 174.030982 217.733023 
L 172.353931 219.410074 
L 174.030982 221.087125 
L 172.353931 222.764176 
z
" style="fill:#a9678f;stroke:#ffffff;stroke-width:0.75;"/>
    <path clip-path="url(#p0af95b93b6)" d="M 131.636512 158.646007 
L 140.121793 158.646007 
L 140.121793 150.160726 
L 131.636512 150.160726 
z
" style="fill:#2d1e3e;stroke:#ffffff;stroke-width:0.75;"/>
    <path clip-path="url(#p0af95b93b6)" d="M 136.947029 158.646007 
L 145.432311 158.646007 
L 145.432311 150.160726 
L 136.947029 150.160726 
z
" style="fill:#2d1e3e;stroke:#ffffff;stroke-width:0.75;"/>
    <path clip-path="url(#p0af95b93b6)" d="M 147.568064 158.646007 
L 156.053345 158.646007 
L 156.053345 150.160726 
L 147.568064 150.160726 
z
" style="fill:#2d1e3e;stroke:#ffffff;stroke-width:0.75;"/>
    <path clip-path="url(#p0af95b93b6)" d="M 147.037012 37.727768 
L 155.522294 37.727768 
L 155.522294 29.242487 
L 147.037012 29.242487 
z
" style="fill:#2d1e3e;stroke:#ffffff;stroke-width:0.75;"/>
    <path clip-path="url(#p0af95b93b6)" d="M 142.788598 45.123379 
L 151.27388 45.123379 
L 151.27388 36.638098 
L 142.788598 36.638098 
z
" style="fill:#2d1e3e;stroke:#ffffff;stroke-width:0.75;"/>
    <path clip-path="url(#p0af95b93b6)" d="M 132.167563 57.449397 
L 140.652845 57.449397 
L 140.652845 48.964116 
L 132.167563 48.964116 
z
" style="fill:#2d1e3e;stroke:#ffffff;stroke-width:0.75;"/>
    <path clip-path="url(#p0af95b93b6)" d="M 190.843008 277.997597 
C 191.405589 277.997597 191.945203 277.774081 192.343008 277.376277 
C 192.740813 276.978472 192.964328 276.438857 192.964328 275.876277 
C 192.964328 275.313696 192.740813 274.774081 192.343008 274.376277 
C 191.945203 273.978472 191.405589 273.754956 190.843008 273.754956 
C 190.280427 273.754956 189.740813 273.978472 189.343008 274.376277 
C 188.945203 274.774081 188.721688 275.313696 188.721688 275.876277 
C 188.721688 276.438857 188.945203 276.978472 189.343008 277.376277 
C 189.740813 277.774081 190.280427 277.997597 190.843008 277.997597 
z
" style="fill:#edd1cb;stroke:#ffffff;stroke-width:0.75;"/>
    <path clip-path="url(#p0af95b93b6)" d="M 165.61805 279.8465 
C 166.180631 279.8465 166.720245 279.622984 167.11805 279.225179 
C 167.515855 278.827375 167.73937 278.28776 167.73937 277.725179 
C 167.73937 277.162599 167.515855 276.622984 167.11805 276.225179 
C 166.720245 275.827375 166.180631 275.603859 165.61805 275.603859 
C 165.055469 275.603859 164.515855 275.827375 164.11805 276.225179 
C 163.720245 276.622984 163.49673 277.162599 163.49673 277.725179 
C 163.49673 278.28776 163.720245 278.827375 164.11805 279.225179 
C 164.515855 279.622984 165.055469 279.8465 165.61805 279.8465 
z
" style="fill:#edd1cb;stroke:#ffffff;stroke-width:0.75;"/>
    <path clip-path="url(#p0af95b93b6)" d="M 202.260621 282.681484 
C 202.823201 282.681484 203.362816 282.457968 203.760621 282.060163 
C 204.158425 281.662359 204.381941 281.122744 204.381941 280.560163 
C 204.381941 279.997583 204.158425 279.457968 203.760621 279.060163 
C 203.362816 278.662359 202.823201 278.438843 202.260621 278.438843 
C 201.69804 278.438843 201.158425 278.662359 200.760621 279.060163 
C 200.362816 279.457968 200.1393 279.997583 200.1393 280.560163 
C 200.1393 281.122744 200.362816 281.662359 200.760621 282.060163 
C 201.158425 282.457968 201.69804 282.681484 202.260621 282.681484 
z
" style="fill:#edd1cb;stroke:#ffffff;stroke-width:0.75;"/>
    <path clip-path="url(#p0af95b93b6)" d="M 205.181405 252.482739 
C 205.743986 252.482739 206.283601 252.259223 206.681405 251.861419 
C 207.07921 251.463614 207.302726 250.923999 207.302726 250.361419 
C 207.302726 249.798838 207.07921 249.259223 206.681405 248.861419 
C 206.283601 248.463614 205.743986 248.240098 205.181405 248.240098 
C 204.618824 248.240098 204.07921 248.463614 203.681405 248.861419 
C 203.283601 249.259223 203.060085 249.798838 203.060085 250.361419 
C 203.060085 250.923999 203.283601 251.463614 203.681405 251.861419 
C 204.07921 252.259223 204.618824 252.482739 205.181405 252.482739 
z
" style="fill:#edd1cb;stroke:#ffffff;stroke-width:0.75;"/>
    <path clip-path="url(#p0af95b93b6)" d="M 117.56364 132.638109 
L 126.048922 132.638109 
L 126.048922 124.152827 
L 117.56364 124.152827 
z
" style="fill:#2d1e3e;stroke:#ffffff;stroke-width:0.75;"/>
    <path clip-path="url(#p0af95b93b6)" d="M 128.981253 141.266322 
L 137.466534 141.266322 
L 137.466534 132.78104 
L 128.981253 132.78104 
z
" style="fill:#2d1e3e;stroke:#ffffff;stroke-width:0.75;"/>
    <path clip-path="url(#p0af95b93b6)" d="M 78.796863 112.91648 
L 87.282144 112.91648 
L 87.282144 104.431198 
L 78.796863 104.431198 
z
" style="fill:#2d1e3e;stroke:#ffffff;stroke-width:0.75;"/>
    <path clip-path="url(#p0af95b93b6)" d="M 122.343106 82.101434 
L 130.828388 82.101434 
L 130.828388 73.616153 
L 122.343106 73.616153 
z
" style="fill:#2d1e3e;stroke:#ffffff;stroke-width:0.75;"/>
    <path clip-path="url(#p0af95b93b6)" d="M 175.708033 277.812707 
C 176.270614 277.812707 176.810229 277.589191 177.208033 277.191386 
C 177.605838 276.793582 177.829354 276.253967 177.829354 275.691386 
C 177.829354 275.128806 177.605838 274.589191 177.208033 274.191386 
C 176.810229 273.793582 176.270614 273.570066 175.708033 273.570066 
C 175.145453 273.570066 174.605838 273.793582 174.208033 274.191386 
C 173.810229 274.589191 173.586713 275.128806 173.586713 275.691386 
C 173.586713 276.253967 173.810229 276.793582 174.208033 277.191386 
C 174.605838 277.589191 175.145453 277.812707 175.708033 277.812707 
z
" style="fill:#edd1cb;stroke:#ffffff;stroke-width:0.75;"/>
    <path clip-path="url(#p0af95b93b6)" d="M 117.292341 252.359479 
C 117.854922 252.359479 118.394537 252.135963 118.792341 251.738159 
C 119.190146 251.340354 119.413662 250.800739 119.413662 250.238159 
C 119.413662 249.675578 119.190146 249.135963 118.792341 248.738159 
C 118.394537 248.340354 117.854922 248.116838 117.292341 248.116838 
C 116.729761 248.116838 116.190146 248.340354 115.792341 248.738159 
C 115.394537 249.135963 115.171021 249.675578 115.171021 250.238159 
C 115.171021 250.800739 115.394537 251.340354 115.792341 251.738159 
C 116.190146 252.135963 116.729761 252.359479 117.292341 252.359479 
z
" style="fill:#edd1cb;stroke:#ffffff;stroke-width:0.75;"/>
    <path clip-path="url(#p0af95b93b6)" d="M 122.602859 267.890262 
C 123.165439 267.890262 123.705054 267.666746 124.102859 267.268942 
C 124.500663 266.871137 124.724179 266.331522 124.724179 265.768942 
C 124.724179 265.206361 124.500663 264.666746 124.102859 264.268942 
C 123.705054 263.871137 123.165439 263.647621 122.602859 263.647621 
C 122.040278 263.647621 121.500663 263.871137 121.102859 264.268942 
C 120.705054 264.666746 120.481538 265.206361 120.481538 265.768942 
C 120.481538 266.331522 120.705054 266.871137 121.102859 267.268942 
C 121.500663 267.666746 122.040278 267.890262 122.602859 267.890262 
z
" style="fill:#edd1cb;stroke:#ffffff;stroke-width:0.75;"/>
    <path clip-path="url(#p0af95b93b6)" d="M 54.634009 112.300179 
L 63.11929 112.300179 
L 63.11929 103.814897 
L 54.634009 103.814897 
z
" style="fill:#2d1e3e;stroke:#ffffff;stroke-width:0.75;"/>
    <path clip-path="url(#p0af95b93b6)" d="M 83.752186 238.369628 
L 85.429237 236.692577 
L 87.106288 238.369628 
L 88.783339 236.692577 
L 87.106288 235.015526 
L 88.783339 233.338475 
L 87.106288 231.661424 
L 85.429237 233.338475 
L 83.752186 231.661424 
L 82.075135 233.338475 
L 83.752186 235.015526 
L 82.075135 236.692577 
z
" style="fill:#a9678f;stroke:#ffffff;stroke-width:0.75;"/>
    <path clip-path="url(#p0af95b93b6)" d="M 57.289267 143.115224 
L 65.774549 143.115224 
L 65.774549 134.629943 
L 57.289267 134.629943 
z
" style="fill:#2d1e3e;stroke:#ffffff;stroke-width:0.75;"/>
    <path clip-path="url(#p0af95b93b6)" d="M 167.742257 251.928068 
C 168.304838 251.928068 168.844452 251.704553 169.242257 251.306748 
C 169.640062 250.908943 169.863577 250.369329 169.863577 249.806748 
C 169.863577 249.244167 169.640062 248.704553 169.242257 248.306748 
C 168.844452 247.908943 168.304838 247.685428 167.742257 247.685428 
C 167.179676 247.685428 166.640062 247.908943 166.242257 248.306748 
C 165.844452 248.704553 165.620937 249.244167 165.620937 249.806748 
C 165.620937 250.369329 165.844452 250.908943 166.242257 251.306748 
C 166.640062 251.704553 167.179676 251.928068 167.742257 251.928068 
z
" style="fill:#edd1cb;stroke:#ffffff;stroke-width:0.75;"/>
   </g>
   <g id="PathCollection_2"/>
   <g id="PathCollection_3"/>
   <g id="PathCollection_4"/>
   <g id="PathCollection_5"/>
   <g id="PathCollection_6"/>
   <g id="PathCollection_7"/>
   <g id="PathCollection_8"/>
   <g id="patch_3">
    <path d="M 47.183438 292.92 
L 47.183438 21.12 
" style="fill:none;stroke:#262626;stroke-linecap:square;stroke-linejoin:miter;stroke-width:1.25;"/>
   </g>
   <g id="patch_4">
    <path d="M 47.183437 292.92 
L 293.359908 292.92 
" style="fill:none;stroke:#262626;stroke-linecap:square;stroke-linejoin:miter;stroke-width:1.25;"/>
   </g>
   <g id="text_15">
    <!-- A figure drawn by Seaborn -->
    <defs>
     <path d="M 22.40625 28.40625 
L 14.40625 5.203125 
Q 14.09375 4.203125 14.09375 3.59375 
Q 14.09375 2.796875 14.6875 2.390625 
Q 15.296875 2 17.203125 1.90625 
L 24.203125 1.40625 
L 24.203125 -0.203125 
Q 22.296875 0 11.90625 0 
Q 1.5 0 -0.40625 -0.203125 
L -0.40625 1.40625 
L 5.90625 1.90625 
Q 9.203125 2.203125 10.5 5.59375 
L 32.90625 66 
L 35.796875 66 
L 57.90625 6.296875 
Q 58.59375 4.59375 59.1875 4 
Q 59.796875 3.40625 61.40625 2.90625 
L 66.90625 1.203125 
L 66.90625 -0.296875 
Q 61.796875 0 53.796875 0 
Q 45.796875 0 40.703125 -0.296875 
L 40.703125 1.203125 
L 47.296875 2.203125 
Q 49.203125 2.5 49.953125 2.890625 
Q 50.703125 3.296875 50.703125 4.09375 
Q 50.703125 4.703125 50.203125 6.09375 
L 42.09375 28.40625 
z
M 41.296875 30.59375 
L 32 56.40625 
L 23.203125 30.59375 
z
" id="STSong-65"/>
     <path id="STSong-32"/>
     <path d="M 18 38.296875 
L 31 38 
L 31 34.5 
L 18.203125 34.09375 
L 18.203125 9 
Q 18.203125 2.90625 22.40625 2.296875 
L 29.09375 1.296875 
L 29.09375 -0.296875 
Q 22.796875 0 16.09375 0 
Q 8.59375 0 4.796875 -0.296875 
L 4.796875 1.203125 
L 7.90625 1.90625 
Q 10.703125 2.5 11.34375 3.5 
Q 12 4.5 12 8.203125 
L 12 32.90625 
Q 10 33.296875 4.703125 33.5 
L 4.703125 35 
Q 9.40625 37 10.59375 38.09375 
Q 11.796875 39.203125 11.796875 41.203125 
Q 11.796875 42.09375 12.5 47.546875 
Q 13.203125 53 16.296875 57.34375 
Q 19.40625 61.703125 23.046875 63.84375 
Q 26.703125 66 32 66 
Q 40.296875 66 40.296875 61.796875 
Q 40.296875 60.296875 39.25 59.390625 
Q 38.203125 58.5 36.5 58.5 
Q 34.90625 58.5 33.09375 59.296875 
Q 28.296875 61.40625 25.90625 61.40625 
Q 23.90625 61.40625 22 60.09375 
Q 20.09375 58.796875 19.296875 57.546875 
Q 18.5 56.296875 18.203125 53.546875 
Q 17.90625 50.796875 17.90625 44.40625 
Q 17.90625 39.90625 18 38.296875 
z
" id="STSong-102"/>
     <path d="M 16.40625 -3.796875 
Q 12 -2.09375 9.5 0.203125 
Q 7 2.5 7 4.5 
Q 7 6.09375 8.046875 7 
Q 9.09375 7.90625 11.90625 8.703125 
Q 14.40625 9.5 17.203125 10.703125 
Q 12.40625 13.40625 10.15625 16.65625 
Q 7.90625 19.90625 7.90625 24.40625 
Q 7.90625 30.90625 12.546875 35.40625 
Q 17.203125 39.90625 24.296875 39.90625 
Q 27.5 39.90625 29.796875 39.15625 
Q 32.09375 38.40625 35 36.59375 
Q 37.5 35 39 35 
Q 40.203125 35 43.09375 35.40625 
Q 45.703125 35.703125 46.703125 35.703125 
Q 48.40625 35.703125 48.84375 35 
Q 49.296875 34.296875 49.296875 32.09375 
Q 49.296875 30.59375 47.59375 30.59375 
Q 46.40625 30.59375 43.203125 31.40625 
Q 39.203125 32.40625 38.40625 32.09375 
Q 40.5 27.90625 40.5 24.59375 
Q 40.5 19.59375 36.25 14.6875 
Q 32 9.796875 22.796875 9.796875 
Q 18.90625 9.796875 15.796875 8.296875 
Q 12.703125 6.796875 12.703125 5.40625 
Q 12.703125 3.703125 18.203125 2 
Q 23.703125 0.296875 32.09375 0 
Q 39.296875 -0.203125 43.296875 -3.140625 
Q 47.296875 -6.09375 47.296875 -10.59375 
Q 47.296875 -14.40625 44.546875 -18.046875 
Q 41.796875 -21.703125 35.890625 -23.84375 
Q 30 -26 23.203125 -26 
Q 14.90625 -26 9.34375 -22.75 
Q 3.796875 -19.5 3.796875 -15.5 
Q 3.796875 -9.203125 16.40625 -3.796875 
z
M 23.90625 38.203125 
Q 14.40625 38.203125 14.40625 24.59375 
Q 14.40625 18.5 17.09375 15 
Q 19.796875 11.5 24 11.5 
Q 28.5 11.5 31.203125 14.890625 
Q 33.90625 18.296875 33.90625 24.5 
Q 33.90625 30.796875 31.09375 34.5 
Q 28.296875 38.203125 23.90625 38.203125 
z
M 9.703125 -14.5 
Q 9.703125 -18.40625 13.59375 -21.203125 
Q 17.5 -24 24 -24 
Q 32.296875 -24 37.59375 -20.890625 
Q 42.90625 -17.796875 42.90625 -13.203125 
Q 42.90625 -8.40625 37.90625 -6.65625 
Q 32.90625 -4.90625 23.203125 -4.90625 
Q 16.296875 -4.90625 13 -8 
Q 9.703125 -11.09375 9.703125 -14.5 
z
" id="STSong-103"/>
     <path d="M 1.59375 38.09375 
L 14.40625 38.09375 
L 14.40625 12.296875 
Q 14.40625 7.5 16.046875 5.5 
Q 17.703125 3.5 22.296875 3.5 
Q 29.09375 3.5 34.796875 8.59375 
L 34.796875 32.703125 
Q 34.796875 34.59375 33.296875 35.25 
Q 31.796875 35.90625 25.59375 36.5 
L 25.59375 38.09375 
L 41.296875 38.09375 
L 41.296875 8.703125 
Q 41.296875 5.296875 42.34375 4.546875 
Q 43.40625 3.796875 48.296875 3.59375 
L 48.40625 2.09375 
L 34.796875 -1.5 
L 34.796875 6.09375 
Q 30.40625 2.296875 26.796875 0.34375 
Q 23.203125 -1.59375 19.59375 -1.59375 
Q 14.59375 -1.59375 11.34375 2.09375 
Q 8.09375 5.796875 8.09375 11.90625 
L 8.09375 32.796875 
Q 8.09375 34.59375 7.046875 35.25 
Q 6 35.90625 1.59375 36.703125 
z
" id="STSong-117"/>
     <path d="M 35.703125 54.5 
Q 35.703125 58.296875 34.453125 59.546875 
Q 33.203125 60.796875 27.90625 62.09375 
L 27.90625 63.703125 
Q 34.296875 64.203125 39.5 66 
L 42 66 
L 42 6.796875 
Q 42 3.40625 43.046875 2.65625 
Q 44.09375 1.90625 48.796875 1.796875 
L 48.796875 0.203125 
Q 41.296875 -1.5 35.703125 -2.09375 
L 35.703125 2.5 
Q 30.5 0.40625 27 -0.59375 
Q 23.5 -1.59375 19.40625 -1.59375 
Q 12.90625 -1.59375 8.09375 4.09375 
Q 3.296875 9.796875 3.296875 17.40625 
Q 3.296875 26.703125 9.140625 33.296875 
Q 15 39.90625 22.796875 39.90625 
Q 30.59375 39.90625 35.703125 37.203125 
z
M 35.703125 5 
L 35.703125 27.703125 
Q 35.703125 32.296875 32.5 34.9375 
Q 29.296875 37.59375 23.796875 37.59375 
Q 18 37.59375 14.203125 32.390625 
Q 10.40625 27.203125 10.40625 18.796875 
Q 10.40625 11.40625 14.59375 6.75 
Q 18.796875 2.09375 25.09375 2.09375 
Q 28.203125 2.09375 31.203125 2.9375 
Q 34.203125 3.796875 35.703125 5 
z
" id="STSong-100"/>
     <path d="M 39.90625 6.296875 
L 41.203125 5.59375 
Q 38.296875 -1.59375 33.203125 -1.59375 
Q 30.09375 -1.59375 28.34375 0.15625 
Q 26.59375 1.90625 26.59375 5.203125 
Q 21.09375 1 18.4375 -0.296875 
Q 15.796875 -1.59375 11.796875 -1.59375 
Q 5.296875 -1.59375 5.296875 3.703125 
Q 5.296875 8.40625 11.046875 13.703125 
Q 16.796875 19 26.796875 22.703125 
L 26.796875 29.5 
Q 26.796875 32.703125 25 34.75 
Q 23.203125 36.796875 20.203125 36.796875 
Q 16.703125 36.796875 14.203125 34.4375 
Q 11.703125 32.09375 11.203125 27.90625 
Q 11 26.203125 9.546875 25 
Q 8.09375 23.796875 6.5 23.796875 
Q 5.796875 23.796875 5.046875 24.140625 
Q 4.296875 24.5 4.296875 25.296875 
Q 4.296875 26.703125 6.890625 31 
Q 9.5 35.296875 13.390625 37.59375 
Q 17.296875 39.90625 21 39.90625 
Q 27.203125 39.90625 30 37.453125 
Q 32.796875 35 32.796875 29.59375 
L 32.796875 9.296875 
Q 32.796875 7 32.9375 5.75 
Q 33.09375 4.5 34 3.84375 
Q 34.90625 3.203125 35.796875 3.203125 
Q 38 3.203125 39.90625 6.296875 
z
M 26.796875 10.203125 
L 26.796875 20.5 
Q 20.40625 18 16.296875 13.890625 
Q 12.203125 9.796875 12.203125 6.40625 
Q 12.203125 4.5 13.453125 3.25 
Q 14.703125 2 16.59375 2 
Q 19.296875 2 23.046875 4.75 
Q 26.796875 7.5 26.796875 10.203125 
z
" id="STSong-97"/>
     <path d="M -1 38.40625 
Q 1.203125 38.09375 8.90625 38.09375 
Q 15.5 38.09375 18.5 38.40625 
L 18.5 36.796875 
L 14.5 36.203125 
Q 12.59375 35.796875 12.59375 34.296875 
Q 12.59375 33.40625 13.09375 32.296875 
L 26.09375 5.09375 
L 34.09375 21.296875 
L 30.203125 31.59375 
Q 29.09375 34.40625 28.34375 35.15625 
Q 27.59375 35.90625 26.796875 36 
L 22.59375 36.796875 
L 22.59375 38.40625 
Q 25.40625 38.09375 33.296875 38.09375 
Q 41.796875 38.09375 44.296875 38.40625 
L 44.296875 36.796875 
L 39.40625 35.90625 
Q 36.40625 35.203125 36.40625 33.59375 
Q 36.40625 32.90625 36.90625 31.59375 
L 46.703125 5.90625 
L 56.90625 29.796875 
Q 57.5 31.09375 57.5 32.296875 
Q 57.5 33.90625 56.390625 34.90625 
Q 55.296875 35.90625 54 36.09375 
L 49.90625 36.796875 
L 49.90625 38.40625 
Q 52.09375 38.09375 58.59375 38.09375 
Q 64.59375 38.09375 67.40625 38.40625 
L 67.40625 36.796875 
L 64.90625 36.296875 
Q 61.90625 35.40625 59.796875 30.703125 
L 45.40625 -2.296875 
L 43.796875 -2.296875 
L 35.296875 18.296875 
L 24.796875 -2.296875 
L 22.796875 -2.296875 
L 5.09375 33.5 
Q 3.796875 36.203125 1.296875 36.5 
L -1 36.796875 
z
" id="STSong-119"/>
     <path d="M 50 -0.296875 
Q 44.796875 0 39.59375 0 
Q 34.40625 0 29.203125 -0.296875 
L 29.203125 1.296875 
L 34.703125 2.09375 
Q 36.90625 2.40625 36.90625 6 
L 36.90625 25.703125 
Q 36.90625 30.09375 34.40625 32.6875 
Q 31.90625 35.296875 27.59375 35.296875 
Q 21.203125 35.296875 15.09375 29.203125 
L 15.09375 4.90625 
Q 15.09375 3.296875 17.5 2.703125 
L 23.40625 1.296875 
L 23.40625 -0.296875 
Q 19.703125 0 12.59375 0 
Q 5.5 0 1.796875 -0.296875 
L 1.796875 1.296875 
L 7.09375 2.296875 
Q 9.09375 2.59375 9.09375 5.296875 
L 9.09375 25.09375 
Q 9.09375 28.203125 7.84375 29.296875 
Q 6.59375 30.40625 3.40625 30.90625 
L 3.40625 32.703125 
Q 9.796875 34.203125 13.5 41.703125 
L 15.09375 41.703125 
L 15.09375 32.703125 
Q 18.90625 36 23.5 37.953125 
Q 28.09375 39.90625 31.59375 39.90625 
Q 43.09375 39.90625 43.09375 26.203125 
L 43.09375 6.296875 
Q 43.09375 4.40625 43.59375 3.40625 
Q 44.09375 2.40625 45.59375 2.09375 
L 50 1.296875 
z
" id="STSong-110"/>
     <path d="M 1.59375 61.40625 
L 1.90625 62.90625 
L 14.703125 66 
L 14.703125 36.40625 
Q 22.796875 39.90625 29 39.90625 
Q 37.09375 39.90625 42.1875 34.203125 
Q 47.296875 28.5 47.296875 19.796875 
Q 47.296875 10 41.296875 4.203125 
Q 35.296875 -1.59375 26.703125 -1.59375 
Q 22.296875 -1.59375 18.203125 0.203125 
Q 14.40625 1.90625 13.703125 1.90625 
Q 12.09375 1.90625 9.90625 -2.09375 
L 8.40625 -2.09375 
L 8.40625 53.203125 
Q 8.40625 57.09375 7.296875 58.390625 
Q 6.203125 59.703125 1.59375 61.40625 
z
M 14.703125 10.796875 
Q 14.703125 6.40625 17.453125 3.84375 
Q 20.203125 1.296875 24.90625 1.296875 
Q 40 1.296875 40 17.90625 
Q 40 26 35.703125 31.296875 
Q 31.40625 36.59375 24.796875 36.59375 
Q 20.5 36.59375 17.59375 35.390625 
Q 14.703125 34.203125 14.703125 32.59375 
z
" id="STSong-98"/>
     <path d="M 0.296875 38.59375 
Q 6.59375 38.09375 10.296875 38.09375 
Q 16.203125 38.09375 20.40625 38.59375 
L 20.40625 37 
L 14.296875 35.796875 
Q 12.796875 35.5 12.796875 34.40625 
Q 12.796875 34 13.09375 33.09375 
L 23.203125 4.59375 
L 32.5 30.40625 
Q 33 31.703125 33 32.796875 
Q 33 35.203125 31.203125 35.59375 
L 25.59375 37 
L 25.59375 38.59375 
Q 30.09375 38.09375 34.09375 38.09375 
Q 37.59375 38.09375 42.59375 38.59375 
L 42.59375 37 
L 39.40625 36.09375 
Q 38 35.703125 37 34.453125 
Q 36 33.203125 34.59375 29.40625 
L 17.703125 -15.203125 
Q 16 -19.90625 13.5 -22.296875 
Q 11 -24.703125 8.203125 -24.703125 
Q 3.90625 -24.703125 3.90625 -21.5 
Q 3.90625 -17.90625 7.59375 -17.90625 
Q 8.90625 -17.90625 10.703125 -18.296875 
Q 11.5 -18.5 12 -18.5 
Q 12.796875 -18.5 13.34375 -18 
Q 13.90625 -17.5 15.59375 -14.546875 
Q 17.296875 -11.59375 18.546875 -8.09375 
Q 19.796875 -4.59375 19.796875 -3.5 
Q 19.796875 -1.796875 18.796875 0.796875 
L 6.59375 33.09375 
Q 5.796875 35.40625 4 35.90625 
L 0.296875 37 
z
" id="STSong-121"/>
     <path d="M 37.59375 47.703125 
Q 34.703125 60.796875 23.203125 60.796875 
Q 17.796875 60.796875 14.140625 57.6875 
Q 10.5 54.59375 10.5 50.40625 
Q 10.5 47.09375 13.453125 44.296875 
Q 16.40625 41.5 25.703125 36.703125 
Q 35.203125 31.796875 39.453125 28.09375 
Q 43.703125 24.40625 43.703125 17.09375 
Q 43.703125 8.703125 37.84375 3.546875 
Q 32 -1.59375 21.5 -1.59375 
Q 11.796875 -1.59375 3.796875 3.09375 
L 4.90625 18 
L 6.296875 18 
Q 7.203125 10.59375 12.296875 5.84375 
Q 17.40625 1.09375 23.59375 1.09375 
Q 29.5 1.09375 33.546875 4.59375 
Q 37.59375 8.09375 37.59375 13 
Q 37.59375 17.40625 34.34375 20.40625 
Q 31.09375 23.40625 23.59375 27.296875 
Q 13.203125 32.703125 9.09375 37.09375 
Q 5 41.5 5 47.203125 
Q 5 54.296875 10.5 58.890625 
Q 16 63.5 24.796875 63.5 
Q 33.59375 63.5 39.296875 59.09375 
L 38.90625 47.703125 
z
" id="STSong-83"/>
     <path d="M 24.796875 -1.59375 
Q 16.09375 -1.59375 10 4.203125 
Q 3.90625 10 3.90625 19.296875 
Q 3.90625 28.203125 10 34.046875 
Q 16.09375 39.90625 26 39.90625 
Q 35.203125 39.90625 41.09375 33.75 
Q 47 27.59375 47 18.5 
Q 47 10.203125 40.75 4.296875 
Q 34.5 -1.59375 24.796875 -1.59375 
z
M 11.09375 18.296875 
Q 11.09375 10 15 5.140625 
Q 18.90625 0.296875 25.09375 0.296875 
Q 31.5 0.296875 35.640625 5.390625 
Q 39.796875 10.5 39.796875 18.90625 
Q 39.796875 27.5 35.890625 32.75 
Q 32 38 25.59375 38 
Q 18.703125 38 14.890625 33 
Q 11.09375 28 11.09375 18.296875 
z
" id="STSong-111"/>
    </defs>
    <g style="fill:#262626;" transform="translate(107.721673 15.12)scale(0.12 -0.12)">
     <use xlink:href="#STSong-65"/>
     <use x="67.699982" xlink:href="#STSong-32"/>
     <use x="92.699966" xlink:href="#STSong-102"/>
     <use x="124.999954" xlink:href="#STSong-105"/>
     <use x="147.899948" xlink:href="#STSong-103"/>
     <use x="192.699936" xlink:href="#STSong-117"/>
     <use x="241.699921" xlink:href="#STSong-114"/>
     <use x="274.999908" xlink:href="#STSong-101"/>
     <use x="316.699905" xlink:href="#STSong-32"/>
     <use x="341.69989" xlink:href="#STSong-100"/>
     <use x="391.699875" xlink:href="#STSong-114"/>
     <use x="424.999863" xlink:href="#STSong-97"/>
     <use x="465.599854" xlink:href="#STSong-119"/>
     <use x="532.29985" xlink:href="#STSong-110"/>
     <use x="583.299835" xlink:href="#STSong-32"/>
     <use x="608.29982" xlink:href="#STSong-98"/>
     <use x="659.299805" xlink:href="#STSong-121"/>
     <use x="700.999802" xlink:href="#STSong-32"/>
     <use x="725.999786" xlink:href="#STSong-83"/>
     <use x="773.89978" xlink:href="#STSong-101"/>
     <use x="815.599777" xlink:href="#STSong-97"/>
     <use x="856.199768" xlink:href="#STSong-98"/>
     <use x="907.199753" xlink:href="#STSong-111"/>
     <use x="958.199738" xlink:href="#STSong-114"/>
     <use x="991.499725" xlink:href="#STSong-110"/>
    </g>
   </g>
   <g id="legend_1">
    <g id="patch_5">
     <path d="M 238.765533 142.111406 
L 285.659908 142.111406 
Q 287.859908 142.111406 287.859908 139.911406 
L 287.859908 28.82 
Q 287.859908 26.62 285.659908 26.62 
L 238.765533 26.62 
Q 236.565533 26.62 236.565533 28.82 
L 236.565533 139.911406 
Q 236.565533 142.111406 238.765533 142.111406 
z
" style="fill:#ffffff;opacity:0.8;stroke:#cccccc;stroke-linejoin:miter;"/>
    </g>
    <g id="PathCollection_9">
     <defs>
      <path id="m944b1e23d8" style="stroke:#ffffff;stroke-width:1.5;"/>
     </defs>
     <g>
      <use style="fill:#ffffff;stroke:#ffffff;stroke-width:1.5;" x="251.965533" xlink:href="#m944b1e23d8" y="35.8325"/>
     </g>
    </g>
    <g id="text_16">
     <!-- cyl -->
     <g style="fill:#262626;" transform="translate(271.765533 38.72)scale(0.11 -0.11)">
      <use xlink:href="#STSong-99"/>
      <use x="41.699997" xlink:href="#STSong-121"/>
      <use x="83.399994" xlink:href="#STSong-108"/>
     </g>
    </g>
    <g id="PathCollection_10">
     <defs>
      <path d="M 0 2.12132 
C 0.562581 2.12132 1.102195 1.897805 1.5 1.5 
C 1.897805 1.102195 2.12132 0.562581 2.12132 0 
C 2.12132 -0.562581 1.897805 -1.102195 1.5 -1.5 
C 1.102195 -1.897805 0.562581 -2.12132 0 -2.12132 
C -0.562581 -2.12132 -1.102195 -1.897805 -1.5 -1.5 
C -1.897805 -1.102195 -2.12132 -0.562581 -2.12132 0 
C -2.12132 0.562581 -1.897805 1.102195 -1.5 1.5 
C -1.102195 1.897805 -0.562581 2.12132 0 2.12132 
z
" id="m434b50ed15" style="stroke:#edd1cb;"/>
     </defs>
     <g>
      <use style="fill:#edd1cb;stroke:#edd1cb;" x="251.965533" xlink:href="#m434b50ed15" y="51.859844"/>
     </g>
    </g>
    <g id="text_17">
     <!-- 3 -->
     <g style="fill:#262626;" transform="translate(271.765533 54.747344)scale(0.11 -0.11)">
      <use xlink:href="#STSong-51"/>
     </g>
    </g>
    <g id="PathCollection_11">
     <g>
      <use style="fill:#edd1cb;stroke:#edd1cb;" x="251.965533" xlink:href="#m434b50ed15" y="67.887188"/>
     </g>
    </g>
    <g id="text_18">
     <!-- 4 -->
     <g style="fill:#262626;" transform="translate(271.765533 70.774688)scale(0.11 -0.11)">
      <use xlink:href="#STSong-52"/>
     </g>
    </g>
    <g id="PathCollection_12">
     <defs>
      <path d="M -1.677051 3.354102 
L 0 1.677051 
L 1.677051 3.354102 
L 3.354102 1.677051 
L 1.677051 0 
L 3.354102 -1.677051 
L 1.677051 -3.354102 
L 0 -1.677051 
L -1.677051 -3.354102 
L -3.354102 -1.677051 
L -1.677051 0 
L -3.354102 1.677051 
z
" id="ma3869cc218" style="stroke:#a9678f;"/>
     </defs>
     <g>
      <use style="fill:#a9678f;stroke:#a9678f;" x="251.965533" xlink:href="#ma3869cc218" y="83.914531"/>
     </g>
    </g>
    <g id="text_19">
     <!-- 6 -->
     <g style="fill:#262626;" transform="translate(271.765533 86.802031)scale(0.11 -0.11)">
      <use xlink:href="#STSong-54"/>
     </g>
    </g>
    <g id="PathCollection_13">
     <defs>
      <path d="M 0 3.824265 
C 1.014207 3.824265 1.987011 3.421316 2.704163 2.704163 
C 3.421316 1.987011 3.824265 1.014207 3.824265 0 
C 3.824265 -1.014207 3.421316 -1.987011 2.704163 -2.704163 
C 1.987011 -3.421316 1.014207 -3.824265 0 -3.824265 
C -1.014207 -3.824265 -1.987011 -3.421316 -2.704163 -2.704163 
C -3.421316 -1.987011 -3.824265 -1.014207 -3.824265 0 
C -3.824265 1.014207 -3.421316 1.987011 -2.704163 2.704163 
C -1.987011 3.421316 -1.014207 3.824265 0 3.824265 
z
" id="m7ce20a42d8" style="stroke:#6c3f70;"/>
     </defs>
     <g>
      <use style="fill:#6c3f70;stroke:#6c3f70;" x="251.965533" xlink:href="#m7ce20a42d8" y="99.941875"/>
     </g>
    </g>
    <g id="text_20">
     <!-- 7 -->
     <defs>
      <path d="M 4.59375 62.5 
L 43.09375 62.5 
L 43.09375 60.796875 
Q 39.703125 54.796875 30.953125 30.140625 
Q 22.203125 5.5 21.296875 0 
L 18 0 
Q 22.796875 20.703125 37.296875 56.40625 
L 10.296875 56.40625 
Q 7.796875 56.40625 7.59375 55.09375 
L 6.796875 50.90625 
L 4.59375 50.90625 
z
" id="STSong-55"/>
     </defs>
     <g style="fill:#262626;" transform="translate(271.765533 102.829375)scale(0.11 -0.11)">
      <use xlink:href="#STSong-55"/>
     </g>
    </g>
    <g id="PathCollection_14">
     <defs>
      <path d="M 0 4.242641 
C 1.125161 4.242641 2.204391 3.795609 3 3 
C 3.795609 2.204391 4.242641 1.125161 4.242641 0 
C 4.242641 -1.125161 3.795609 -2.204391 3 -3 
C 2.204391 -3.795609 1.125161 -4.242641 0 -4.242641 
C -1.125161 -4.242641 -2.204391 -3.795609 -3 -3 
C -3.795609 -2.204391 -4.242641 -1.125161 -4.242641 0 
C -4.242641 1.125161 -3.795609 2.204391 -3 3 
C -2.204391 3.795609 -1.125161 4.242641 0 4.242641 
z
" id="m2691952cf0" style="stroke:#2d1e3e;"/>
     </defs>
     <g>
      <use style="fill:#2d1e3e;stroke:#2d1e3e;" x="251.965533" xlink:href="#m2691952cf0" y="115.969219"/>
     </g>
    </g>
    <g id="text_21">
     <!-- 9 -->
     <defs>
      <path d="M 26.203125 25.796875 
Q 23.40625 24.296875 20.296875 24.296875 
Q 13.90625 24.296875 9.15625 29.84375 
Q 4.40625 35.40625 4.40625 43.59375 
Q 4.40625 52 9.796875 57.75 
Q 15.203125 63.5 22.90625 63.5 
Q 31.59375 63.5 36.890625 56.59375 
Q 42.203125 49.703125 42.203125 38.703125 
Q 42.203125 23.203125 32.75 11.703125 
Q 23.296875 0.203125 8.5 -1.90625 
L 8.09375 0.296875 
Q 20.796875 2.796875 27.9375 13.390625 
Q 35.09375 24 35.09375 39.59375 
Q 35.09375 50 31.59375 55.640625 
Q 28.09375 61.296875 22.09375 61.296875 
Q 17.5 61.296875 14.59375 56.1875 
Q 11.703125 51.09375 11.703125 42.703125 
Q 11.703125 35.796875 14.5 31.59375 
Q 17.296875 27.40625 21.90625 27.40625 
Q 23.5 27.40625 25.296875 27.90625 
z
" id="STSong-57"/>
     </defs>
     <g style="fill:#262626;" transform="translate(271.765533 118.856719)scale(0.11 -0.11)">
      <use xlink:href="#STSong-57"/>
     </g>
    </g>
    <g id="PathCollection_15">
     <defs>
      <path d="M -3 3 
L 3 3 
L 3 -3 
L -3 -3 
z
" id="maeb3ab2fd0" style="stroke:#333333;"/>
     </defs>
     <g>
      <use style="fill:#333333;stroke:#333333;" x="251.965533" xlink:href="#maeb3ab2fd0" y="131.996563"/>
     </g>
    </g>
    <g id="text_22">
     <!-- 8 -->
     <g style="fill:#262626;" transform="translate(271.765533 134.884063)scale(0.11 -0.11)">
      <use xlink:href="#STSong-56"/>
     </g>
    </g>
   </g>
  </g>
  <g id="axes_2">
   <g id="patch_6">
    <path d="M 342.595202 292.92 
L 588.771673 292.92 
L 588.771673 21.12 
L 342.595202 21.12 
z
" style="fill:#ffffff;"/>
   </g>
   <g id="matplotlib.axis_3">
    <g id="xtick_5">
     <g id="line2d_13">
      <g>
       <use style="fill:#262626;stroke:#262626;stroke-width:1.25;" x="383.624614" xlink:href="#m2fe69ffa5c" y="292.92"/>
      </g>
     </g>
     <g id="text_23">
      <!-- 4 -->
      <g style="fill:#262626;" transform="translate(381.04477 309.68)scale(0.11 -0.11)">
       <use xlink:href="#STSong-52"/>
      </g>
     </g>
    </g>
    <g id="xtick_6">
     <g id="line2d_14">
      <g>
       <use style="fill:#262626;stroke:#262626;stroke-width:1.25;" x="465.683437" xlink:href="#m2fe69ffa5c" y="292.92"/>
      </g>
     </g>
     <g id="text_24">
      <!-- 6 -->
      <g style="fill:#262626;" transform="translate(463.103594 309.68)scale(0.11 -0.11)">
       <use xlink:href="#STSong-54"/>
      </g>
     </g>
    </g>
    <g id="xtick_7">
     <g id="line2d_15">
      <g>
       <use style="fill:#262626;stroke:#262626;stroke-width:1.25;" x="547.742261" xlink:href="#m2fe69ffa5c" y="292.92"/>
      </g>
     </g>
     <g id="text_25">
      <!-- 8 -->
      <g style="fill:#262626;" transform="translate(545.162417 309.68)scale(0.11 -0.11)">
       <use xlink:href="#STSong-56"/>
      </g>
     </g>
    </g>
    <g id="text_26">
     <!-- cyl -->
     <g style="fill:#262626;" transform="translate(459.304688 324.427344)scale(0.12 -0.12)">
      <use xlink:href="#STSong-99"/>
      <use x="41.699997" xlink:href="#STSong-121"/>
      <use x="83.399994" xlink:href="#STSong-108"/>
     </g>
    </g>
   </g>
   <g id="matplotlib.axis_4">
    <g id="ytick_9">
     <g id="line2d_16">
      <g>
       <use style="fill:#262626;stroke:#262626;stroke-width:1.25;" x="342.595202" xlink:href="#m5c887698d9" y="283.025877"/>
      </g>
     </g>
     <g id="text_27">
      <!-- 10 -->
      <g style="fill:#262626;" transform="translate(322.775827 286.655877)scale(0.11 -0.11)">
       <use xlink:href="#STSong-49"/>
       <use x="46.899994" xlink:href="#STSong-48"/>
      </g>
     </g>
    </g>
    <g id="ytick_10">
     <g id="line2d_17">
      <g>
       <use style="fill:#262626;stroke:#262626;stroke-width:1.25;" x="342.595202" xlink:href="#m5c887698d9" y="230.83857"/>
      </g>
     </g>
     <g id="text_28">
      <!-- 15 -->
      <g style="fill:#262626;" transform="translate(322.775827 234.46857)scale(0.11 -0.11)">
       <use xlink:href="#STSong-49"/>
       <use x="46.899994" xlink:href="#STSong-53"/>
      </g>
     </g>
    </g>
    <g id="ytick_11">
     <g id="line2d_18">
      <g>
       <use style="fill:#262626;stroke:#262626;stroke-width:1.25;" x="342.595202" xlink:href="#m5c887698d9" y="178.651262"/>
      </g>
     </g>
     <g id="text_29">
      <!-- 20 -->
      <g style="fill:#262626;" transform="translate(322.775827 182.281262)scale(0.11 -0.11)">
       <use xlink:href="#STSong-50"/>
       <use x="46.899994" xlink:href="#STSong-48"/>
      </g>
     </g>
    </g>
    <g id="ytick_12">
     <g id="line2d_19">
      <g>
       <use style="fill:#262626;stroke:#262626;stroke-width:1.25;" x="342.595202" xlink:href="#m5c887698d9" y="126.463955"/>
      </g>
     </g>
     <g id="text_30">
      <!-- 25 -->
      <g style="fill:#262626;" transform="translate(322.775827 130.093955)scale(0.11 -0.11)">
       <use xlink:href="#STSong-50"/>
       <use x="46.899994" xlink:href="#STSong-53"/>
      </g>
     </g>
    </g>
    <g id="ytick_13">
     <g id="line2d_20">
      <g>
       <use style="fill:#262626;stroke:#262626;stroke-width:1.25;" x="342.595202" xlink:href="#m5c887698d9" y="74.276648"/>
      </g>
     </g>
     <g id="text_31">
      <!-- 30 -->
      <g style="fill:#262626;" transform="translate(322.775827 77.906648)scale(0.11 -0.11)">
       <use xlink:href="#STSong-51"/>
       <use x="46.899994" xlink:href="#STSong-48"/>
      </g>
     </g>
    </g>
    <g id="ytick_14">
     <g id="line2d_21">
      <g>
       <use style="fill:#262626;stroke:#262626;stroke-width:1.25;" x="342.595202" xlink:href="#m5c887698d9" y="22.089341"/>
      </g>
     </g>
     <g id="text_32">
      <!-- 35 -->
      <g style="fill:#262626;" transform="translate(322.775827 25.719341)scale(0.11 -0.11)">
       <use xlink:href="#STSong-51"/>
       <use x="46.899994" xlink:href="#STSong-53"/>
      </g>
     </g>
    </g>
    <g id="text_33">
     <!-- mpg -->
     <defs>
      <path d="M 55.90625 1.296875 
L 58.796875 1.90625 
Q 61.203125 2.40625 62.203125 3.15625 
Q 63.203125 3.90625 63.203125 6.09375 
L 63.203125 24 
Q 63.203125 29.90625 60.84375 32.59375 
Q 58.5 35.296875 53.5 35.296875 
Q 46.90625 35.296875 42 29.5 
L 42 6.90625 
Q 42 4.796875 42.390625 3.75 
Q 42.796875 2.703125 44.59375 2.296875 
L 49.703125 1.203125 
L 49.703125 -0.40625 
Q 44.703125 0 39.09375 0 
Q 33.203125 0 27.703125 -0.40625 
L 27.703125 1.203125 
L 30.59375 1.90625 
Q 33.40625 2.59375 34.65625 3.4375 
Q 35.90625 4.296875 35.90625 6.40625 
L 35.90625 24.203125 
Q 35.90625 29.203125 33.5 32.203125 
Q 31.09375 35.203125 27.296875 35.203125 
Q 22.796875 35.203125 18.640625 32.546875 
Q 14.5 29.90625 14.5 27.203125 
L 14.5 6.796875 
Q 14.5 4.40625 15.140625 3.5 
Q 15.796875 2.59375 17.203125 2.296875 
L 22.296875 1.203125 
L 22.296875 -0.40625 
Q 17.296875 0 12.296875 0 
Q 7.09375 0 1.796875 -0.40625 
L 1.796875 1.203125 
L 4.703125 1.796875 
Q 6.90625 2.296875 7.65625 3.1875 
Q 8.40625 4.09375 8.40625 6.203125 
L 8.40625 27.796875 
Q 8.40625 30.296875 7.453125 31.25 
Q 6.5 32.203125 3 32.703125 
L 3 34.296875 
Q 8.09375 35.59375 12.59375 41.703125 
L 14.5 41.703125 
L 14.5 32.09375 
Q 18.90625 36.09375 22.34375 38 
Q 25.796875 39.90625 29.5 39.90625 
Q 34.203125 39.90625 36.703125 38.5 
Q 39.203125 37.09375 41.703125 32.59375 
Q 45.09375 36.09375 48.640625 38 
Q 52.203125 39.90625 56.796875 39.90625 
Q 62.703125 39.90625 66 36.34375 
Q 69.296875 32.796875 69.296875 26.203125 
L 69.296875 6 
Q 69.296875 2.296875 70.90625 2 
L 75.40625 1.203125 
L 75.40625 -0.40625 
Q 70.40625 0 65.90625 0 
Q 59.90625 0 55.90625 -0.296875 
z
" id="STSong-109"/>
      <path d="M 13.90625 33.703125 
Q 22.59375 39.90625 30.703125 39.90625 
Q 38.203125 39.90625 42.796875 34.546875 
Q 47.40625 29.203125 47.40625 20.203125 
Q 47.40625 11.09375 41.296875 4.75 
Q 35.203125 -1.59375 25.703125 -1.59375 
Q 20 -1.59375 13.90625 1.296875 
L 13.90625 -19.90625 
Q 13.90625 -21.203125 14.75 -21.953125 
Q 15.59375 -22.703125 18.09375 -23.09375 
L 24.09375 -24.09375 
L 24.09375 -25.703125 
Q 20.203125 -25.296875 12.59375 -25.296875 
Q 6.296875 -25.296875 1.203125 -25.703125 
L 1.203125 -24.09375 
L 5.40625 -23.296875 
Q 6.90625 -23 7.34375 -22.34375 
Q 7.796875 -21.703125 7.796875 -19.796875 
L 7.796875 30.296875 
Q 7.796875 33.90625 6.5 34.09375 
L 1.59375 34.90625 
L 1.90625 36.296875 
Q 6.90625 38.40625 8.953125 39.796875 
Q 11 41.203125 12.40625 43.5 
L 13.90625 43.5 
z
M 13.90625 30.703125 
L 13.90625 8.796875 
Q 13.90625 5.203125 17.203125 2.84375 
Q 20.5 0.5 25.703125 0.5 
Q 32.09375 0.5 36.296875 5.25 
Q 40.5 10 40.5 16.796875 
Q 40.5 25.5 36.796875 30.390625 
Q 33.09375 35.296875 26.90625 35.296875 
Q 20.796875 35.296875 13.90625 30.703125 
z
" id="STSong-112"/>
     </defs>
     <g style="fill:#262626;" transform="translate(315.655827 167.393438)rotate(-90)scale(0.12 -0.12)">
      <use xlink:href="#STSong-109"/>
      <use x="77.099991" xlink:href="#STSong-112"/>
      <use x="128.099976" xlink:href="#STSong-103"/>
     </g>
    </g>
   </g>
   <g id="PathCollection_16"/>
   <g id="PathCollection_17"/>
   <g id="PathCollection_18"/>
   <g id="patch_7">
    <path d="M 342.595202 292.92 
L 342.595202 21.12 
" style="fill:none;stroke:#262626;stroke-linecap:square;stroke-linejoin:miter;stroke-width:1.25;"/>
   </g>
   <g id="patch_8">
    <path d="M 342.595202 292.92 
L 588.771673 292.92 
" style="fill:none;stroke:#262626;stroke-linecap:square;stroke-linejoin:miter;stroke-width:1.25;"/>
   </g>
   <g id="PathCollection_19">
    <defs>
     <path d="M 0 2.5 
C 0.663008 2.5 1.29895 2.236584 1.767767 1.767767 
C 2.236584 1.29895 2.5 0.663008 2.5 0 
C 2.5 -0.663008 2.236584 -1.29895 1.767767 -1.767767 
C 1.29895 -2.236584 0.663008 -2.5 0 -2.5 
C -0.663008 -2.5 -1.29895 -2.236584 -1.767767 -1.767767 
C -2.236584 -1.29895 -2.5 -0.663008 -2.5 0 
C -2.5 0.663008 -2.236584 1.29895 -1.767767 1.767767 
C -1.29895 2.236584 -0.663008 2.5 0 2.5 
z
" id="C0_0_c5a6e1f261"/>
    </defs>
    <g clip-path="url(#p54d9348a64)">
     <use style="fill:#ee854a;" x="383.882688" xlink:href="#C0_0_c5a6e1f261" y="149.42637"/>
    </g>
    <g clip-path="url(#p54d9348a64)">
     <use style="fill:#ee854a;" x="383.702156" xlink:href="#C0_0_c5a6e1f261" y="132.726432"/>
    </g>
    <g clip-path="url(#p54d9348a64)">
     <use style="fill:#ee854a;" x="391.644484" xlink:href="#C0_0_c5a6e1f261" y="149.42637"/>
    </g>
    <g clip-path="url(#p54d9348a64)">
     <use style="fill:#ee854a;" x="381.960078" xlink:href="#C0_0_c5a6e1f261" y="49.226741"/>
    </g>
    <g clip-path="url(#p54d9348a64)">
     <use style="fill:#ee854a;" x="383.693177" xlink:href="#C0_0_c5a6e1f261" y="70.101664"/>
    </g>
    <g clip-path="url(#p54d9348a64)">
     <use style="fill:#ee854a;" x="387.293841" xlink:href="#C0_0_c5a6e1f261" y="33.570549"/>
    </g>
    <g clip-path="url(#p54d9348a64)">
     <use style="fill:#4878d0;" x="382.323764" xlink:href="#C0_0_c5a6e1f261" y="162.99507"/>
    </g>
    <g clip-path="url(#p54d9348a64)">
     <use style="fill:#ee854a;" x="387.154695" xlink:href="#C0_0_c5a6e1f261" y="102.457794"/>
    </g>
    <g clip-path="url(#p54d9348a64)">
     <use style="fill:#6acc64;" x="382.362472" xlink:href="#C0_0_c5a6e1f261" y="116.026494"/>
    </g>
    <g clip-path="url(#p54d9348a64)">
     <use style="fill:#6acc64;" x="387.14613" xlink:href="#C0_0_c5a6e1f261" y="70.101664"/>
    </g>
    <g clip-path="url(#p54d9348a64)">
     <use style="fill:#ee854a;" x="382.208236" xlink:href="#C0_0_c5a6e1f261" y="164.038816"/>
    </g>
   </g>
   <g id="PathCollection_20">
    <defs>
     <path d="M 0 2.5 
C 0.663008 2.5 1.29895 2.236584 1.767767 1.767767 
C 2.236584 1.29895 2.5 0.663008 2.5 0 
C 2.5 -0.663008 2.236584 -1.29895 1.767767 -1.767767 
C 1.29895 -2.236584 0.663008 -2.5 0 -2.5 
C -0.663008 -2.5 -1.29895 -2.236584 -1.767767 -1.767767 
C -2.236584 -1.29895 -2.5 -0.663008 -2.5 0 
C -2.5 0.663008 -2.236584 1.29895 -1.767767 1.767767 
C -1.29895 2.236584 -0.663008 2.5 0 2.5 
z
" id="C1_0_4666bb309d"/>
    </defs>
    <g clip-path="url(#p54d9348a64)">
     <use style="fill:#ee854a;" x="458.434858" xlink:href="#C1_0_4666bb309d" y="168.213801"/>
    </g>
    <g clip-path="url(#p54d9348a64)">
     <use style="fill:#ee854a;" x="470.983051" xlink:href="#C1_0_4666bb309d" y="168.213801"/>
    </g>
    <g clip-path="url(#p54d9348a64)">
     <use style="fill:#4878d0;" x="466.40831" xlink:href="#C1_0_4666bb309d" y="164.038816"/>
    </g>
    <g clip-path="url(#p54d9348a64)">
     <use style="fill:#4878d0;" x="463.871003" xlink:href="#C1_0_4666bb309d" y="198.482439"/>
    </g>
    <g clip-path="url(#p54d9348a64)">
     <use style="fill:#ee854a;" x="459.342311" xlink:href="#C1_0_4666bb309d" y="187.001232"/>
    </g>
    <g clip-path="url(#p54d9348a64)">
     <use style="fill:#ee854a;" x="469.329915" xlink:href="#C1_0_4666bb309d" y="201.613678"/>
    </g>
    <g clip-path="url(#p54d9348a64)">
     <use style="fill:#6acc64;" x="463.609544" xlink:href="#C1_0_4666bb309d" y="181.782501"/>
    </g>
   </g>
   <g id="PathCollection_21">
    <defs>
     <path d="M 0 2.5 
C 0.663008 2.5 1.29895 2.236584 1.767767 1.767767 
C 2.236584 1.29895 2.5 0.663008 2.5 0 
C 2.5 -0.663008 2.236584 -1.29895 1.767767 -1.767767 
C 1.29895 -2.236584 0.663008 -2.5 0 -2.5 
C -0.663008 -2.5 -1.29895 -2.236584 -1.767767 -1.767767 
C -2.236584 -1.29895 -2.5 -0.663008 -2.5 0 
C -2.5 0.663008 -2.236584 1.29895 -1.767767 1.767767 
C -1.29895 2.236584 -0.663008 2.5 0 2.5 
z
" id="C2_0_4509d09ecf"/>
    </defs>
    <g clip-path="url(#p54d9348a64)">
     <use style="fill:#4878d0;" x="546.111892" xlink:href="#C2_0_4509d09ecf" y="192.219962"/>
    </g>
    <g clip-path="url(#p54d9348a64)">
     <use style="fill:#4878d0;" x="542.296787" xlink:href="#C2_0_4509d09ecf" y="238.144793"/>
    </g>
    <g clip-path="url(#p54d9348a64)">
     <use style="fill:#4878d0;" x="544.621694" xlink:href="#C2_0_4509d09ecf" y="216.226124"/>
    </g>
    <g clip-path="url(#p54d9348a64)">
     <use style="fill:#4878d0;" x="544.216372" xlink:href="#C2_0_4509d09ecf" y="206.832408"/>
    </g>
    <g clip-path="url(#p54d9348a64)">
     <use style="fill:#4878d0;" x="545.037776" xlink:href="#C2_0_4509d09ecf" y="228.751077"/>
    </g>
    <g clip-path="url(#p54d9348a64)">
     <use style="fill:#4878d0;" x="548.595504" xlink:href="#C2_0_4509d09ecf" y="278.850892"/>
    </g>
    <g clip-path="url(#p54d9348a64)">
     <use style="fill:#4878d0;" x="549.656689" xlink:href="#C2_0_4509d09ecf" y="278.850892"/>
    </g>
    <g clip-path="url(#p54d9348a64)">
     <use style="fill:#4878d0;" x="549.805524" xlink:href="#C2_0_4509d09ecf" y="233.969808"/>
    </g>
    <g clip-path="url(#p54d9348a64)">
     <use style="fill:#4878d0;" x="554.265369" xlink:href="#C2_0_4509d09ecf" y="225.619839"/>
    </g>
    <g clip-path="url(#p54d9348a64)">
     <use style="fill:#4878d0;" x="549.894293" xlink:href="#C2_0_4509d09ecf" y="228.751077"/>
    </g>
    <g clip-path="url(#p54d9348a64)">
     <use style="fill:#4878d0;" x="550.444089" xlink:href="#C2_0_4509d09ecf" y="248.582254"/>
    </g>
    <g clip-path="url(#p54d9348a64)">
     <use style="fill:#4878d0;" x="543.675324" xlink:href="#C2_0_4509d09ecf" y="187.001232"/>
    </g>
    <g clip-path="url(#p54d9348a64)">
     <use style="fill:#6acc64;" x="540.883279" xlink:href="#C2_0_4509d09ecf" y="222.4886"/>
    </g>
    <g clip-path="url(#p54d9348a64)">
     <use style="fill:#6acc64;" x="555.504381" xlink:href="#C2_0_4509d09ecf" y="230.83857"/>
    </g>
   </g>
   <g id="legend_2">
    <g id="patch_9">
     <path d="M 540.711985 92.886031 
L 581.071673 92.886031 
Q 583.271673 92.886031 583.271673 90.686031 
L 583.271673 28.82 
Q 583.271673 26.62 581.071673 26.62 
L 540.711985 26.62 
Q 538.511985 26.62 538.511985 28.82 
L 538.511985 90.686031 
Q 538.511985 92.886031 540.711985 92.886031 
z
" style="fill:#ffffff;opacity:0.8;stroke:#cccccc;stroke-linejoin:miter;"/>
    </g>
    <g id="text_34">
     <!-- gear -->
     <g style="fill:#262626;" transform="translate(552.711907 37.752)scale(0.102 -0.102)">
      <use xlink:href="#STSong-103"/>
      <use x="44.799988" xlink:href="#STSong-101"/>
      <use x="86.499985" xlink:href="#STSong-97"/>
      <use x="127.099976" xlink:href="#STSong-114"/>
     </g>
    </g>
    <g id="PathCollection_22">
     <defs>
      <path d="M 0 3.872983 
C 1.027127 3.872983 2.012324 3.464901 2.738613 2.738613 
C 3.464901 2.012324 3.872983 1.027127 3.872983 0 
C 3.872983 -1.027127 3.464901 -2.012324 2.738613 -2.738613 
C 2.012324 -3.464901 1.027127 -3.872983 0 -3.872983 
C -1.027127 -3.872983 -2.012324 -3.464901 -2.738613 -2.738613 
C -3.464901 -2.012324 -3.872983 -1.027127 -3.872983 0 
C -3.872983 1.027127 -3.464901 2.012324 -2.738613 2.738613 
C -2.012324 3.464901 -1.027127 3.872983 0 3.872983 
z
" id="meeebbcb89e" style="stroke:#4878d0;"/>
     </defs>
     <g>
      <use style="fill:#4878d0;stroke:#4878d0;" x="553.911985" xlink:href="#meeebbcb89e" y="50.7165"/>
     </g>
    </g>
    <g id="text_35">
     <!-- 3 -->
     <g style="fill:#262626;" transform="translate(573.711985 53.604)scale(0.11 -0.11)">
      <use xlink:href="#STSong-51"/>
     </g>
    </g>
    <g id="PathCollection_23">
     <defs>
      <path d="M 0 3.872983 
C 1.027127 3.872983 2.012324 3.464901 2.738613 2.738613 
C 3.464901 2.012324 3.872983 1.027127 3.872983 0 
C 3.872983 -1.027127 3.464901 -2.012324 2.738613 -2.738613 
C 2.012324 -3.464901 1.027127 -3.872983 0 -3.872983 
C -1.027127 -3.872983 -2.012324 -3.464901 -2.738613 -2.738613 
C -3.464901 -2.012324 -3.872983 -1.027127 -3.872983 0 
C -3.872983 1.027127 -3.464901 2.012324 -2.738613 2.738613 
C -2.012324 3.464901 -1.027127 3.872983 0 3.872983 
z
" id="m891b4637cf" style="stroke:#ee854a;"/>
     </defs>
     <g>
      <use style="fill:#ee854a;stroke:#ee854a;" x="553.911985" xlink:href="#m891b4637cf" y="66.743844"/>
     </g>
    </g>
    <g id="text_36">
     <!-- 4 -->
     <g style="fill:#262626;" transform="translate(573.711985 69.631344)scale(0.11 -0.11)">
      <use xlink:href="#STSong-52"/>
     </g>
    </g>
    <g id="PathCollection_24">
     <defs>
      <path d="M 0 3.872983 
C 1.027127 3.872983 2.012324 3.464901 2.738613 2.738613 
C 3.464901 2.012324 3.872983 1.027127 3.872983 0 
C 3.872983 -1.027127 3.464901 -2.012324 2.738613 -2.738613 
C 2.012324 -3.464901 1.027127 -3.872983 0 -3.872983 
C -1.027127 -3.872983 -2.012324 -3.464901 -2.738613 -2.738613 
C -3.464901 -2.012324 -3.872983 -1.027127 -3.872983 0 
C -3.872983 1.027127 -3.464901 2.012324 -2.738613 2.738613 
C -2.012324 3.464901 -1.027127 3.872983 0 3.872983 
z
" id="m33dec61e8a" style="stroke:#6acc64;"/>
     </defs>
     <g>
      <use style="fill:#6acc64;stroke:#6acc64;" x="553.911985" xlink:href="#m33dec61e8a" y="82.771188"/>
     </g>
    </g>
    <g id="text_37">
     <!-- 5 -->
     <g style="fill:#262626;" transform="translate(573.711985 85.658688)scale(0.11 -0.11)">
      <use xlink:href="#STSong-53"/>
     </g>
    </g>
   </g>
  </g>
  <g id="axes_3">
   <g id="patch_10">
    <path d="M 638.006967 292.92 
L 884.183438 292.92 
L 884.183438 21.12 
L 638.006967 21.12 
z
" style="fill:#ffffff;"/>
   </g>
   <g id="matplotlib.axis_5">
    <g id="xtick_8">
     <g id="line2d_22">
      <g>
       <use style="fill:#262626;stroke:#262626;stroke-width:1.25;" x="679.036379" xlink:href="#m2fe69ffa5c" y="292.92"/>
      </g>
     </g>
     <g id="text_38">
      <!-- 4 -->
      <g style="fill:#262626;" transform="translate(676.456535 309.68)scale(0.11 -0.11)">
       <use xlink:href="#STSong-52"/>
      </g>
     </g>
    </g>
    <g id="xtick_9">
     <g id="line2d_23">
      <g>
       <use style="fill:#262626;stroke:#262626;stroke-width:1.25;" x="761.095202" xlink:href="#m2fe69ffa5c" y="292.92"/>
      </g>
     </g>
     <g id="text_39">
      <!-- 6 -->
      <g style="fill:#262626;" transform="translate(758.515358 309.68)scale(0.11 -0.11)">
       <use xlink:href="#STSong-54"/>
      </g>
     </g>
    </g>
    <g id="xtick_10">
     <g id="line2d_24">
      <g>
       <use style="fill:#262626;stroke:#262626;stroke-width:1.25;" x="843.154026" xlink:href="#m2fe69ffa5c" y="292.92"/>
      </g>
     </g>
     <g id="text_40">
      <!-- 8 -->
      <g style="fill:#262626;" transform="translate(840.574182 309.68)scale(0.11 -0.11)">
       <use xlink:href="#STSong-56"/>
      </g>
     </g>
    </g>
    <g id="text_41">
     <!-- cyl -->
     <g style="fill:#262626;" transform="translate(754.716452 324.427344)scale(0.12 -0.12)">
      <use xlink:href="#STSong-99"/>
      <use x="41.699997" xlink:href="#STSong-121"/>
      <use x="83.399994" xlink:href="#STSong-108"/>
     </g>
    </g>
   </g>
   <g id="matplotlib.axis_6">
    <g id="ytick_15">
     <g id="line2d_25">
      <g>
       <use style="fill:#262626;stroke:#262626;stroke-width:1.25;" x="638.006967" xlink:href="#m5c887698d9" y="292.92"/>
      </g>
     </g>
     <g id="text_42">
      <!-- 0 -->
      <g style="fill:#262626;" transform="translate(623.347279 296.55)scale(0.11 -0.11)">
       <use xlink:href="#STSong-48"/>
      </g>
     </g>
    </g>
    <g id="ytick_16">
     <g id="line2d_26">
      <g>
       <use style="fill:#262626;stroke:#262626;stroke-width:1.25;" x="638.006967" xlink:href="#m5c887698d9" y="255.940408"/>
      </g>
     </g>
     <g id="text_43">
      <!-- 2 -->
      <g style="fill:#262626;" transform="translate(623.347279 259.570408)scale(0.11 -0.11)">
       <use xlink:href="#STSong-50"/>
      </g>
     </g>
    </g>
    <g id="ytick_17">
     <g id="line2d_27">
      <g>
       <use style="fill:#262626;stroke:#262626;stroke-width:1.25;" x="638.006967" xlink:href="#m5c887698d9" y="218.960816"/>
      </g>
     </g>
     <g id="text_44">
      <!-- 4 -->
      <g style="fill:#262626;" transform="translate(623.347279 222.590816)scale(0.11 -0.11)">
       <use xlink:href="#STSong-52"/>
      </g>
     </g>
    </g>
    <g id="ytick_18">
     <g id="line2d_28">
      <g>
       <use style="fill:#262626;stroke:#262626;stroke-width:1.25;" x="638.006967" xlink:href="#m5c887698d9" y="181.981224"/>
      </g>
     </g>
     <g id="text_45">
      <!-- 6 -->
      <g style="fill:#262626;" transform="translate(623.347279 185.611224)scale(0.11 -0.11)">
       <use xlink:href="#STSong-54"/>
      </g>
     </g>
    </g>
    <g id="ytick_19">
     <g id="line2d_29">
      <g>
       <use style="fill:#262626;stroke:#262626;stroke-width:1.25;" x="638.006967" xlink:href="#m5c887698d9" y="145.001633"/>
      </g>
     </g>
     <g id="text_46">
      <!-- 8 -->
      <g style="fill:#262626;" transform="translate(623.347279 148.631633)scale(0.11 -0.11)">
       <use xlink:href="#STSong-56"/>
      </g>
     </g>
    </g>
    <g id="ytick_20">
     <g id="line2d_30">
      <g>
       <use style="fill:#262626;stroke:#262626;stroke-width:1.25;" x="638.006967" xlink:href="#m5c887698d9" y="108.022041"/>
      </g>
     </g>
     <g id="text_47">
      <!-- 10 -->
      <g style="fill:#262626;" transform="translate(618.187592 111.652041)scale(0.11 -0.11)">
       <use xlink:href="#STSong-49"/>
       <use x="46.899994" xlink:href="#STSong-48"/>
      </g>
     </g>
    </g>
    <g id="ytick_21">
     <g id="line2d_31">
      <g>
       <use style="fill:#262626;stroke:#262626;stroke-width:1.25;" x="638.006967" xlink:href="#m5c887698d9" y="71.042449"/>
      </g>
     </g>
     <g id="text_48">
      <!-- 12 -->
      <g style="fill:#262626;" transform="translate(618.187592 74.672449)scale(0.11 -0.11)">
       <use xlink:href="#STSong-49"/>
       <use x="46.899994" xlink:href="#STSong-50"/>
      </g>
     </g>
    </g>
    <g id="ytick_22">
     <g id="line2d_32">
      <g>
       <use style="fill:#262626;stroke:#262626;stroke-width:1.25;" x="638.006967" xlink:href="#m5c887698d9" y="34.062857"/>
      </g>
     </g>
     <g id="text_49">
      <!-- 14 -->
      <g style="fill:#262626;" transform="translate(618.187592 37.692857)scale(0.11 -0.11)">
       <use xlink:href="#STSong-49"/>
       <use x="46.899994" xlink:href="#STSong-52"/>
      </g>
     </g>
    </g>
    <g id="text_50">
     <!-- count -->
     <g style="fill:#262626;" transform="translate(611.103217 170.334375)rotate(-90)scale(0.12 -0.12)">
      <use xlink:href="#STSong-99"/>
      <use x="41.699997" xlink:href="#STSong-111"/>
      <use x="92.699982" xlink:href="#STSong-117"/>
      <use x="141.699966" xlink:href="#STSong-110"/>
      <use x="192.699951" xlink:href="#STSong-116"/>
     </g>
    </g>
   </g>
   <g id="patch_11">
    <path clip-path="url(#p21d837c9da)" d="M 646.212849 292.92 
L 711.859908 292.92 
L 711.859908 89.532245 
L 646.212849 89.532245 
z
" style="fill:#597dbf;stroke:#ffffff;stroke-linejoin:miter;"/>
   </g>
   <g id="patch_12">
    <path clip-path="url(#p21d837c9da)" d="M 728.271673 292.92 
L 793.918732 292.92 
L 793.918732 163.491429 
L 728.271673 163.491429 
z
" style="fill:#d98b5f;stroke:#ffffff;stroke-linejoin:miter;"/>
   </g>
   <g id="patch_13">
    <path clip-path="url(#p21d837c9da)" d="M 810.330496 292.92 
L 875.977555 292.92 
L 875.977555 34.062857 
L 810.330496 34.062857 
z
" style="fill:#75bf71;stroke:#ffffff;stroke-linejoin:miter;"/>
   </g>
   <g id="patch_14">
    <path d="M 638.006967 292.92 
L 638.006967 21.12 
" style="fill:none;stroke:#262626;stroke-linecap:square;stroke-linejoin:miter;stroke-width:1.25;"/>
   </g>
   <g id="patch_15">
    <path d="M 638.006967 292.92 
L 884.183438 292.92 
" style="fill:none;stroke:#262626;stroke-linecap:square;stroke-linejoin:miter;stroke-width:1.25;"/>
   </g>
  </g>
 </g>
 <defs>
  <clipPath id="p0af95b93b6">
   <rect height="271.8" width="246.176471" x="47.183438" y="21.12"/>
  </clipPath>
  <clipPath id="p54d9348a64">
   <rect height="271.8" width="246.176471" x="342.595202" y="21.12"/>
  </clipPath>
  <clipPath id="p21d837c9da">
   <rect height="271.8" width="246.176471" x="638.006967" y="21.12"/>
  </clipPath>
 </defs>
</svg>
