<?xml version="1.0" encoding="utf-8" standalone="no"?>
<!DOCTYPE svg PUBLIC "-//W3C//DTD SVG 1.1//EN"
  "http://www.w3.org/Graphics/SVG/1.1/DTD/svg11.dtd">
<!-- Created with matplotlib (https://matplotlib.org/) -->
<svg height="266.431719pt" version="1.1" viewBox="0 0 386.190492 266.431719" width="386.190492pt" xmlns="http://www.w3.org/2000/svg" xmlns:xlink="http://www.w3.org/1999/xlink">
 <defs>
  <style type="text/css">
*{stroke-linecap:butt;stroke-linejoin:round;}
  </style>
 </defs>
 <g id="figure_1">
  <g id="patch_1">
   <path d="M 0 266.431719 
L 386.190492 266.431719 
L 386.190492 0 
L 0 0 
z
" style="fill:#ffffff;"/>
  </g>
  <g id="axes_1">
   <g id="patch_2">
    <path d="M 39.748438 224.64 
L 374.548438 224.64 
L 374.548438 7.2 
L 39.748438 7.2 
z
" style="fill:#ffffff;"/>
   </g>
   <g id="matplotlib.axis_1">
    <g id="xtick_1">
     <g id="line2d_1">
      <defs>
       <path d="M 0 0 
L 0 6 
" id="m0fdddb75c7" style="stroke:#262626;stroke-width:1.25;"/>
      </defs>
      <g>
       <use style="fill:#262626;stroke:#262626;stroke-width:1.25;" x="64.839434" xlink:href="#m0fdddb75c7" y="224.64"/>
      </g>
     </g>
     <g id="text_1">
      <!-- −100 -->
      <defs>
       <path d="M 7.09375 33.296875 
L 59.59375 33.296875 
L 59.59375 29 
L 7.09375 29 
z
" id="STSong-8722"/>
       <path d="M 35.5 -0.296875 
Q 30.296875 0 23.796875 0 
Q 17.296875 0 12.09375 -0.296875 
L 12.09375 1.296875 
L 17.296875 2.203125 
Q 20.796875 2.90625 20.796875 6.09375 
L 20.796875 55.5 
L 8.90625 47.796875 
L 7.5 49.703125 
Q 14.40625 54.203125 24.09375 63.5 
L 27.40625 63.5 
L 27.40625 6.09375 
Q 27.40625 2.703125 30.90625 2.09375 
L 35.5 1.296875 
z
" id="STSong-49"/>
       <path d="M 23.703125 63.5 
Q 32 63.5 38.046875 54.140625 
Q 44.09375 44.796875 44.09375 30.90625 
Q 44.09375 17.09375 38.046875 7.75 
Q 32 -1.59375 23.703125 -1.59375 
Q 15.703125 -1.59375 9.5 7.65625 
Q 3.296875 16.90625 3.296875 30.90625 
Q 3.296875 44.796875 9.34375 54.140625 
Q 15.40625 63.5 23.703125 63.5 
z
M 23.703125 0.703125 
Q 31.09375 0.703125 33.9375 8.046875 
Q 36.796875 15.40625 36.796875 30.90625 
Q 36.796875 46.40625 33.9375 53.796875 
Q 31.09375 61.203125 23.703125 61.203125 
Q 16.296875 61.203125 13.4375 53.796875 
Q 10.59375 46.40625 10.59375 30.90625 
Q 10.59375 0.703125 23.703125 0.703125 
z
" id="STSong-48"/>
      </defs>
      <g style="fill:#262626;" transform="translate(53.431231 241.4)scale(0.11 -0.11)">
       <use xlink:href="#STSong-8722"/>
       <use x="66.699997" xlink:href="#STSong-49"/>
       <use x="113.599991" xlink:href="#STSong-48"/>
       <use x="160.499985" xlink:href="#STSong-48"/>
      </g>
     </g>
    </g>
    <g id="xtick_2">
     <g id="line2d_2">
      <g>
       <use style="fill:#262626;stroke:#262626;stroke-width:1.25;" x="103.140875" xlink:href="#m0fdddb75c7" y="224.64"/>
      </g>
     </g>
     <g id="text_2">
      <!-- 0 -->
      <g style="fill:#262626;" transform="translate(100.561031 241.4)scale(0.11 -0.11)">
       <use xlink:href="#STSong-48"/>
      </g>
     </g>
    </g>
    <g id="xtick_3">
     <g id="line2d_3">
      <g>
       <use style="fill:#262626;stroke:#262626;stroke-width:1.25;" x="141.442316" xlink:href="#m0fdddb75c7" y="224.64"/>
      </g>
     </g>
     <g id="text_3">
      <!-- 100 -->
      <g style="fill:#262626;" transform="translate(133.702785 241.4)scale(0.11 -0.11)">
       <use xlink:href="#STSong-49"/>
       <use x="46.899994" xlink:href="#STSong-48"/>
       <use x="93.799988" xlink:href="#STSong-48"/>
      </g>
     </g>
    </g>
    <g id="xtick_4">
     <g id="line2d_4">
      <g>
       <use style="fill:#262626;stroke:#262626;stroke-width:1.25;" x="179.743757" xlink:href="#m0fdddb75c7" y="224.64"/>
      </g>
     </g>
     <g id="text_4">
      <!-- 200 -->
      <defs>
       <path d="M 42.59375 -0.296875 
Q 35.40625 0 22.203125 0 
Q 9.296875 0 2.203125 -0.296875 
Q 4.09375 3.59375 7 7.09375 
Q 9.90625 10.59375 16.296875 17 
Q 25.59375 26.296875 29.890625 32.84375 
Q 34.203125 39.40625 34.203125 46.09375 
Q 34.203125 51.59375 30.75 55 
Q 27.296875 58.40625 22.203125 58.40625 
Q 17.203125 58.40625 13.09375 54.953125 
Q 9 51.5 7.40625 45.203125 
L 5.09375 45.59375 
Q 6.703125 54.09375 11.796875 58.796875 
Q 16.90625 63.5 24.203125 63.5 
Q 31.5 63.5 36.59375 58.640625 
Q 41.703125 53.796875 41.703125 47 
Q 41.703125 40.203125 36.953125 34.25 
Q 32.203125 28.296875 22.59375 19.40625 
Q 17.5 14.703125 9.90625 5.296875 
L 33.40625 5.296875 
Q 37.203125 5.296875 38.75 6.640625 
Q 40.296875 8 42 12.5 
L 44.09375 12.5 
z
" id="STSong-50"/>
      </defs>
      <g style="fill:#262626;" transform="translate(172.004225 241.4)scale(0.11 -0.11)">
       <use xlink:href="#STSong-50"/>
       <use x="46.899994" xlink:href="#STSong-48"/>
       <use x="93.799988" xlink:href="#STSong-48"/>
      </g>
     </g>
    </g>
    <g id="xtick_5">
     <g id="line2d_5">
      <g>
       <use style="fill:#262626;stroke:#262626;stroke-width:1.25;" x="218.045197" xlink:href="#m0fdddb75c7" y="224.64"/>
      </g>
     </g>
     <g id="text_5">
      <!-- 300 -->
      <defs>
       <path d="M 9.40625 48.90625 
L 7.59375 49.90625 
Q 10.5 56.796875 14.59375 60.140625 
Q 18.703125 63.5 24.90625 63.5 
Q 30.5 63.5 34.296875 60.296875 
Q 38.09375 57.09375 38.09375 53.203125 
Q 38.09375 49.296875 35.4375 45.796875 
Q 32.796875 42.296875 27.203125 38.09375 
Q 34.5 38.59375 38.890625 33.796875 
Q 43.296875 29 43.296875 21.5 
Q 43.296875 11.796875 36.390625 5.09375 
Q 29.5 -1.59375 18.796875 -1.59375 
Q 11.90625 -1.59375 8.296875 0.046875 
Q 4.703125 1.703125 4.703125 3.90625 
Q 4.703125 4.90625 5.640625 5.75 
Q 6.59375 6.59375 7.703125 6.59375 
Q 9.40625 6.59375 11.59375 4.796875 
Q 17.203125 0.59375 21.09375 0.59375 
Q 27.203125 0.59375 31.84375 5.890625 
Q 36.5 11.203125 36.5 18.796875 
Q 36.5 25.203125 33.34375 29.34375 
Q 30.203125 33.5 25.40625 33.5 
Q 21.703125 33.5 17.796875 30.09375 
L 16.703125 32 
Q 18.703125 33.796875 21.09375 35.59375 
Q 32.09375 43.703125 32.09375 49.296875 
Q 32.09375 53.40625 29.34375 55.90625 
Q 26.59375 58.40625 22.5 58.40625 
Q 18.5 58.40625 14.953125 55.953125 
Q 11.40625 53.5 9.40625 48.90625 
z
" id="STSong-51"/>
      </defs>
      <g style="fill:#262626;" transform="translate(210.305666 241.4)scale(0.11 -0.11)">
       <use xlink:href="#STSong-51"/>
       <use x="46.899994" xlink:href="#STSong-48"/>
       <use x="93.799988" xlink:href="#STSong-48"/>
      </g>
     </g>
    </g>
    <g id="xtick_6">
     <g id="line2d_6">
      <g>
       <use style="fill:#262626;stroke:#262626;stroke-width:1.25;" x="256.346638" xlink:href="#m0fdddb75c7" y="224.64"/>
      </g>
     </g>
     <g id="text_6">
      <!-- 400 -->
      <defs>
       <path d="M 32.59375 63.5 
L 35 63.5 
L 35 22 
L 45.59375 22 
L 45.59375 17.40625 
L 35 17.40625 
L 35 -1.59375 
L 28.40625 -1.59375 
L 28.40625 17.40625 
L 2.796875 17.40625 
L 2.796875 20.703125 
L 14.703125 38.09375 
z
M 28.40625 22 
L 28.40625 52.703125 
Q 14.796875 33.796875 7.59375 22 
z
" id="STSong-52"/>
      </defs>
      <g style="fill:#262626;" transform="translate(248.607107 241.4)scale(0.11 -0.11)">
       <use xlink:href="#STSong-52"/>
       <use x="46.899994" xlink:href="#STSong-48"/>
       <use x="93.799988" xlink:href="#STSong-48"/>
      </g>
     </g>
    </g>
    <g id="xtick_7">
     <g id="line2d_7">
      <g>
       <use style="fill:#262626;stroke:#262626;stroke-width:1.25;" x="294.648079" xlink:href="#m0fdddb75c7" y="224.64"/>
      </g>
     </g>
     <g id="text_7">
      <!-- 500 -->
      <defs>
       <path d="M 38 56.59375 
L 24 56.59375 
Q 16.203125 56.59375 15.40625 56.296875 
L 14.09375 38 
Q 18.5 40.09375 23.09375 40.09375 
Q 31.296875 40.09375 37 34.5 
Q 42.703125 28.90625 42.703125 19.90625 
Q 42.703125 9.90625 35.640625 4.15625 
Q 28.59375 -1.59375 19.59375 -1.59375 
Q 14.59375 -1.59375 10.390625 0.15625 
Q 6.203125 1.90625 6.203125 4 
Q 6.203125 5 7.09375 6.046875 
Q 8 7.09375 9.59375 7.09375 
Q 10.703125 7.09375 11.40625 6.59375 
Q 18.40625 1.296875 22.703125 1.296875 
Q 28.296875 1.296875 32.59375 6.140625 
Q 36.90625 11 36.90625 17.59375 
Q 36.90625 24.59375 32.546875 29.25 
Q 28.203125 33.90625 21.796875 33.90625 
Q 19 33.90625 16.546875 33 
Q 14.09375 32.09375 13 30.5 
L 11.296875 30.5 
L 13.203125 62.5 
L 24.09375 62.5 
Q 31.59375 62.5 34 62.703125 
Q 36.40625 62.90625 37.40625 64.203125 
L 38.90625 64.203125 
z
" id="STSong-53"/>
      </defs>
      <g style="fill:#262626;" transform="translate(286.908548 241.4)scale(0.11 -0.11)">
       <use xlink:href="#STSong-53"/>
       <use x="46.899994" xlink:href="#STSong-48"/>
       <use x="93.799988" xlink:href="#STSong-48"/>
      </g>
     </g>
    </g>
    <g id="xtick_8">
     <g id="line2d_8">
      <g>
       <use style="fill:#262626;stroke:#262626;stroke-width:1.25;" x="332.94952" xlink:href="#m0fdddb75c7" y="224.64"/>
      </g>
     </g>
     <g id="text_8">
      <!-- 600 -->
      <defs>
       <path d="M 38.40625 63.796875 
L 39.203125 61.90625 
Q 26.703125 57.203125 19.25 45.84375 
Q 11.796875 34.5 11.796875 21.5 
Q 11.796875 12.90625 15.390625 6.75 
Q 19 0.59375 24.203125 0.59375 
Q 35.40625 0.59375 35.40625 18.40625 
Q 35.40625 25.90625 32.5 30.09375 
Q 29.59375 34.296875 25.203125 34.296875 
Q 23.5 34.296875 21.90625 33.59375 
L 20.796875 35.203125 
Q 24 36.59375 27.296875 36.59375 
Q 33.90625 36.59375 38.25 31.59375 
Q 42.59375 26.59375 42.59375 17.90625 
Q 42.59375 9.59375 37.4375 4 
Q 32.296875 -1.59375 24.09375 -1.59375 
Q 15.59375 -1.59375 10.25 5.046875 
Q 4.90625 11.703125 4.90625 23.09375 
Q 4.90625 36.90625 13.953125 48.25 
Q 23 59.59375 38.40625 63.796875 
z
" id="STSong-54"/>
      </defs>
      <g style="fill:#262626;" transform="translate(325.209988 241.4)scale(0.11 -0.11)">
       <use xlink:href="#STSong-54"/>
       <use x="46.899994" xlink:href="#STSong-48"/>
       <use x="93.799988" xlink:href="#STSong-48"/>
      </g>
     </g>
    </g>
    <g id="xtick_9">
     <g id="line2d_9">
      <g>
       <use style="fill:#262626;stroke:#262626;stroke-width:1.25;" x="371.25096" xlink:href="#m0fdddb75c7" y="224.64"/>
      </g>
     </g>
     <g id="text_9">
      <!-- 700 -->
      <defs>
       <path d="M 4.59375 62.5 
L 43.09375 62.5 
L 43.09375 60.796875 
Q 39.703125 54.796875 30.953125 30.140625 
Q 22.203125 5.5 21.296875 0 
L 18 0 
Q 22.796875 20.703125 37.296875 56.40625 
L 10.296875 56.40625 
Q 7.796875 56.40625 7.59375 55.09375 
L 6.796875 50.90625 
L 4.59375 50.90625 
z
" id="STSong-55"/>
      </defs>
      <g style="fill:#262626;" transform="translate(363.511429 241.4)scale(0.11 -0.11)">
       <use xlink:href="#STSong-55"/>
       <use x="46.899994" xlink:href="#STSong-48"/>
       <use x="93.799988" xlink:href="#STSong-48"/>
      </g>
     </g>
    </g>
    <g id="text_10">
     <!-- disp -->
     <defs>
      <path d="M 35.703125 54.5 
Q 35.703125 58.296875 34.453125 59.546875 
Q 33.203125 60.796875 27.90625 62.09375 
L 27.90625 63.703125 
Q 34.296875 64.203125 39.5 66 
L 42 66 
L 42 6.796875 
Q 42 3.40625 43.046875 2.65625 
Q 44.09375 1.90625 48.796875 1.796875 
L 48.796875 0.203125 
Q 41.296875 -1.5 35.703125 -2.09375 
L 35.703125 2.5 
Q 30.5 0.40625 27 -0.59375 
Q 23.5 -1.59375 19.40625 -1.59375 
Q 12.90625 -1.59375 8.09375 4.09375 
Q 3.296875 9.796875 3.296875 17.40625 
Q 3.296875 26.703125 9.140625 33.296875 
Q 15 39.90625 22.796875 39.90625 
Q 30.59375 39.90625 35.703125 37.203125 
z
M 35.703125 5 
L 35.703125 27.703125 
Q 35.703125 32.296875 32.5 34.9375 
Q 29.296875 37.59375 23.796875 37.59375 
Q 18 37.59375 14.203125 32.390625 
Q 10.40625 27.203125 10.40625 18.796875 
Q 10.40625 11.40625 14.59375 6.75 
Q 18.796875 2.09375 25.09375 2.09375 
Q 28.203125 2.09375 31.203125 2.9375 
Q 34.203125 3.796875 35.703125 5 
z
" id="STSong-100"/>
      <path d="M 11.203125 64 
Q 12.90625 64 14.296875 62.703125 
Q 15.703125 61.40625 15.703125 59.703125 
Q 15.703125 58.09375 14.25 56.84375 
Q 12.796875 55.59375 11 55.59375 
Q 9.296875 55.59375 8.09375 56.796875 
Q 6.90625 58 6.90625 59.703125 
Q 6.90625 61.40625 8.203125 62.703125 
Q 9.5 64 11.203125 64 
z
M 22.203125 -0.40625 
Q 19.09375 0 11.203125 0 
Q 3.296875 0 0.203125 -0.40625 
L 0.203125 1.203125 
L 5.796875 2.296875 
Q 8.90625 2.90625 8.90625 5.90625 
L 8.90625 29.40625 
Q 8.90625 31.796875 7.703125 32.890625 
Q 6.5 34 2.90625 34.796875 
L 2.90625 36.203125 
Q 10 38 13.296875 43.40625 
L 14.90625 43.40625 
L 14.90625 5.59375 
Q 14.90625 4.09375 15.34375 3.390625 
Q 15.796875 2.703125 17.09375 2.40625 
L 22.203125 1.203125 
z
" id="STSong-105"/>
      <path d="M 28 28.796875 
Q 27.09375 32.203125 24 34.890625 
Q 20.90625 37.59375 18.5 37.59375 
Q 11.203125 37.59375 11.203125 30.90625 
Q 11.203125 28.203125 13.59375 26.34375 
Q 16 24.5 20.90625 22.703125 
Q 32.203125 18.40625 32.203125 10.5 
Q 32.203125 5.296875 28.203125 1.84375 
Q 24.203125 -1.59375 18.296875 -1.59375 
Q 11.09375 -1.59375 6.5 1 
L 5.5 12.296875 
L 7.203125 12.296875 
Q 8.59375 7 12.09375 3.75 
Q 15.59375 0.5 19.59375 0.5 
Q 22.796875 0.5 25 2.546875 
Q 27.203125 4.59375 27.203125 7.703125 
Q 27.203125 13.40625 17.796875 16.90625 
Q 11.203125 19.40625 8.34375 22.15625 
Q 5.5 24.90625 5.5 28.90625 
Q 5.5 34 9.296875 36.953125 
Q 13.09375 39.90625 19.5 39.90625 
Q 25.203125 39.90625 29.296875 37.5 
L 29.90625 28.796875 
z
" id="STSong-115"/>
      <path d="M 13.90625 33.703125 
Q 22.59375 39.90625 30.703125 39.90625 
Q 38.203125 39.90625 42.796875 34.546875 
Q 47.40625 29.203125 47.40625 20.203125 
Q 47.40625 11.09375 41.296875 4.75 
Q 35.203125 -1.59375 25.703125 -1.59375 
Q 20 -1.59375 13.90625 1.296875 
L 13.90625 -19.90625 
Q 13.90625 -21.203125 14.75 -21.953125 
Q 15.59375 -22.703125 18.09375 -23.09375 
L 24.09375 -24.09375 
L 24.09375 -25.703125 
Q 20.203125 -25.296875 12.59375 -25.296875 
Q 6.296875 -25.296875 1.203125 -25.703125 
L 1.203125 -24.09375 
L 5.40625 -23.296875 
Q 6.90625 -23 7.34375 -22.34375 
Q 7.796875 -21.703125 7.796875 -19.796875 
L 7.796875 30.296875 
Q 7.796875 33.90625 6.5 34.09375 
L 1.59375 34.90625 
L 1.90625 36.296875 
Q 6.90625 38.40625 8.953125 39.796875 
Q 11 41.203125 12.40625 43.5 
L 13.90625 43.5 
z
M 13.90625 30.703125 
L 13.90625 8.796875 
Q 13.90625 5.203125 17.203125 2.84375 
Q 20.5 0.5 25.703125 0.5 
Q 32.09375 0.5 36.296875 5.25 
Q 40.5 10 40.5 16.796875 
Q 40.5 25.5 36.796875 30.390625 
Q 33.09375 35.296875 26.90625 35.296875 
Q 20.796875 35.296875 13.90625 30.703125 
z
" id="STSong-112"/>
     </defs>
     <g style="fill:#262626;" transform="translate(197.524063 256.147344)scale(0.12 -0.12)">
      <use xlink:href="#STSong-100"/>
      <use x="49.999985" xlink:href="#STSong-105"/>
      <use x="72.899979" xlink:href="#STSong-115"/>
      <use x="109.399963" xlink:href="#STSong-112"/>
     </g>
    </g>
   </g>
   <g id="matplotlib.axis_2">
    <g id="ytick_1">
     <g id="line2d_10">
      <defs>
       <path d="M 0 0 
L -6 0 
" id="m96a6e74a24" style="stroke:#262626;stroke-width:1.25;"/>
      </defs>
      <g>
       <use style="fill:#262626;stroke:#262626;stroke-width:1.25;" x="39.748438" xlink:href="#m96a6e74a24" y="224.64"/>
      </g>
     </g>
     <g id="text_11">
      <!-- 0.000 -->
      <defs>
       <path d="M 11 -1.59375 
Q 8.796875 -1.59375 7.296875 -0.09375 
Q 5.796875 1.40625 5.796875 3.59375 
Q 5.796875 5.796875 7.296875 7.296875 
Q 8.796875 8.796875 11 8.796875 
Q 13.203125 8.796875 14.703125 7.296875 
Q 16.203125 5.796875 16.203125 3.59375 
Q 16.203125 1.40625 14.703125 -0.09375 
Q 13.203125 -1.59375 11 -1.59375 
z
" id="STSong-46"/>
      </defs>
      <g style="fill:#262626;" transform="translate(7.2 228.27)scale(0.11 -0.11)">
       <use xlink:href="#STSong-48"/>
       <use x="46.899994" xlink:href="#STSong-46"/>
       <use x="68.799988" xlink:href="#STSong-48"/>
       <use x="115.699982" xlink:href="#STSong-48"/>
       <use x="162.599976" xlink:href="#STSong-48"/>
      </g>
     </g>
    </g>
    <g id="ytick_2">
     <g id="line2d_11">
      <g>
       <use style="fill:#262626;stroke:#262626;stroke-width:1.25;" x="39.748438" xlink:href="#m96a6e74a24" y="183.129669"/>
      </g>
     </g>
     <g id="text_12">
      <!-- 0.001 -->
      <g style="fill:#262626;" transform="translate(7.2 186.759669)scale(0.11 -0.11)">
       <use xlink:href="#STSong-48"/>
       <use x="46.899994" xlink:href="#STSong-46"/>
       <use x="68.799988" xlink:href="#STSong-48"/>
       <use x="115.699982" xlink:href="#STSong-48"/>
       <use x="162.599976" xlink:href="#STSong-49"/>
      </g>
     </g>
    </g>
    <g id="ytick_3">
     <g id="line2d_12">
      <g>
       <use style="fill:#262626;stroke:#262626;stroke-width:1.25;" x="39.748438" xlink:href="#m96a6e74a24" y="141.619337"/>
      </g>
     </g>
     <g id="text_13">
      <!-- 0.002 -->
      <g style="fill:#262626;" transform="translate(7.2 145.249337)scale(0.11 -0.11)">
       <use xlink:href="#STSong-48"/>
       <use x="46.899994" xlink:href="#STSong-46"/>
       <use x="68.799988" xlink:href="#STSong-48"/>
       <use x="115.699982" xlink:href="#STSong-48"/>
       <use x="162.599976" xlink:href="#STSong-50"/>
      </g>
     </g>
    </g>
    <g id="ytick_4">
     <g id="line2d_13">
      <g>
       <use style="fill:#262626;stroke:#262626;stroke-width:1.25;" x="39.748438" xlink:href="#m96a6e74a24" y="100.109006"/>
      </g>
     </g>
     <g id="text_14">
      <!-- 0.003 -->
      <g style="fill:#262626;" transform="translate(7.2 103.739006)scale(0.11 -0.11)">
       <use xlink:href="#STSong-48"/>
       <use x="46.899994" xlink:href="#STSong-46"/>
       <use x="68.799988" xlink:href="#STSong-48"/>
       <use x="115.699982" xlink:href="#STSong-48"/>
       <use x="162.599976" xlink:href="#STSong-51"/>
      </g>
     </g>
    </g>
    <g id="ytick_5">
     <g id="line2d_14">
      <g>
       <use style="fill:#262626;stroke:#262626;stroke-width:1.25;" x="39.748438" xlink:href="#m96a6e74a24" y="58.598674"/>
      </g>
     </g>
     <g id="text_15">
      <!-- 0.004 -->
      <g style="fill:#262626;" transform="translate(7.2 62.228674)scale(0.11 -0.11)">
       <use xlink:href="#STSong-48"/>
       <use x="46.899994" xlink:href="#STSong-46"/>
       <use x="68.799988" xlink:href="#STSong-48"/>
       <use x="115.699982" xlink:href="#STSong-48"/>
       <use x="162.599976" xlink:href="#STSong-52"/>
      </g>
     </g>
    </g>
    <g id="ytick_6">
     <g id="line2d_15">
      <g>
       <use style="fill:#262626;stroke:#262626;stroke-width:1.25;" x="39.748438" xlink:href="#m96a6e74a24" y="17.088343"/>
      </g>
     </g>
     <g id="text_16">
      <!-- 0.005 -->
      <g style="fill:#262626;" transform="translate(7.2 20.718343)scale(0.11 -0.11)">
       <use xlink:href="#STSong-48"/>
       <use x="46.899994" xlink:href="#STSong-46"/>
       <use x="68.799988" xlink:href="#STSong-48"/>
       <use x="115.699982" xlink:href="#STSong-48"/>
       <use x="162.599976" xlink:href="#STSong-53"/>
      </g>
     </g>
    </g>
   </g>
   <g id="patch_3">
    <path clip-path="url(#pcc9ea632c4)" d="M 130.373199 224.64 
L 168.760818 224.64 
L 168.760818 17.554286 
L 130.373199 17.554286 
z
" style="fill:#4878d0;opacity:0.4;stroke:#ffffff;stroke-linejoin:miter;"/>
   </g>
   <g id="patch_4">
    <path clip-path="url(#pcc9ea632c4)" d="M 168.760818 224.64 
L 207.148438 224.64 
L 207.148438 198.754286 
L 168.760818 198.754286 
z
" style="fill:#4878d0;opacity:0.4;stroke:#ffffff;stroke-linejoin:miter;"/>
   </g>
   <g id="patch_5">
    <path clip-path="url(#pcc9ea632c4)" d="M 207.148437 224.64 
L 245.536057 224.64 
L 245.536057 95.211429 
L 207.148437 95.211429 
z
" style="fill:#4878d0;opacity:0.4;stroke:#ffffff;stroke-linejoin:miter;"/>
   </g>
   <g id="patch_6">
    <path clip-path="url(#pcc9ea632c4)" d="M 245.536057 224.64 
L 283.923676 224.64 
L 283.923676 172.868571 
L 245.536057 172.868571 
z
" style="fill:#4878d0;opacity:0.4;stroke:#ffffff;stroke-linejoin:miter;"/>
   </g>
   <g id="line2d_16">
    <path clip-path="url(#pcc9ea632c4)" d="M 54.966619 224.138525 
L 59.759747 223.901492 
L 64.552876 223.44616 
L 69.346004 222.686304 
L 71.742568 222.155693 
L 74.139132 221.500834 
L 76.535696 220.701374 
L 78.93226 219.735223 
L 81.328824 218.578924 
L 83.725388 217.208125 
L 86.121952 215.598192 
L 88.518516 213.72494 
L 90.91508 211.565479 
L 93.311644 209.099166 
L 95.708208 206.308619 
L 98.104773 203.18078 
L 100.501337 199.707973 
L 102.897901 195.888906 
L 105.294465 191.729585 
L 107.691029 187.244063 
L 110.087593 182.454996 
L 114.880721 172.10139 
L 119.673849 161.026154 
L 126.863541 144.141436 
L 131.656669 133.55369 
L 134.053233 128.687326 
L 136.449798 124.20122 
L 138.846362 120.159399 
L 141.242926 116.617428 
L 143.63949 113.620509 
L 146.036054 111.201869 
L 148.432618 109.381501 
L 150.829182 108.165323 
L 153.225746 107.544813 
L 155.62231 107.49714 
L 158.018874 107.985818 
L 160.415438 108.961861 
L 162.812002 110.36541 
L 165.208566 112.127785 
L 167.60513 114.173867 
L 172.398259 118.800428 
L 179.587951 125.919058 
L 181.984515 128.068314 
L 184.381079 130.018561 
L 186.777643 131.734626 
L 189.174207 133.193978 
L 191.570771 134.386869 
L 193.967335 135.315947 
L 196.363899 135.995367 
L 198.760463 136.449483 
L 201.157027 136.711194 
L 205.950155 136.820128 
L 215.536412 136.660885 
L 217.932976 136.798326 
L 220.32954 137.079027 
L 222.726104 137.528845 
L 225.122668 138.166766 
L 227.519232 139.004779 
L 229.915796 140.048054 
L 232.31236 141.295371 
L 234.708924 142.739789 
L 237.105488 144.369472 
L 239.502052 146.168656 
L 244.295181 150.19904 
L 249.088309 154.66573 
L 256.278001 161.832771 
L 277.847077 183.751606 
L 287.433334 193.184806 
L 294.623026 199.945218 
L 299.416154 204.17232 
L 304.209282 208.075843 
L 309.00241 211.577172 
L 313.795538 214.618435 
L 318.588667 217.171073 
L 323.381795 219.238297 
L 328.174923 220.851715 
L 332.968051 222.06372 
L 337.761179 222.937824 
L 342.554307 223.538938 
L 347.347435 223.924966 
L 352.140563 224.140207 
L 359.330256 224.192985 
L 359.330256 224.192985 
" style="fill:none;stroke:#4878d0;stroke-linecap:round;stroke-width:1.5;"/>
   </g>
   <g id="patch_7">
    <path d="M 39.748438 224.64 
L 39.748438 7.2 
" style="fill:none;stroke:#262626;stroke-linecap:square;stroke-linejoin:miter;stroke-width:1.25;"/>
   </g>
   <g id="patch_8">
    <path d="M 374.548438 224.64 
L 374.548438 7.2 
" style="fill:none;stroke:#262626;stroke-linecap:square;stroke-linejoin:miter;stroke-width:1.25;"/>
   </g>
   <g id="patch_9">
    <path d="M 39.748437 224.64 
L 374.548437 224.64 
" style="fill:none;stroke:#262626;stroke-linecap:square;stroke-linejoin:miter;stroke-width:1.25;"/>
   </g>
   <g id="patch_10">
    <path d="M 39.748437 7.2 
L 374.548437 7.2 
" style="fill:none;stroke:#262626;stroke-linecap:square;stroke-linejoin:miter;stroke-width:1.25;"/>
   </g>
  </g>
 </g>
 <defs>
  <clipPath id="pcc9ea632c4">
   <rect height="217.44" width="334.8" x="39.748438" y="7.2"/>
  </clipPath>
 </defs>
</svg>
