<?xml version="1.0" encoding="utf-8" standalone="no"?>
<!DOCTYPE svg PUBLIC "-//W3C//DTD SVG 1.1//EN"
  "http://www.w3.org/Graphics/SVG/1.1/DTD/svg11.dtd">
<!-- Created with matplotlib (https://matplotlib.org/) -->
<svg height="707.479844pt" version="1.1" viewBox="0 0 726.89 707.479844" width="726.89pt" xmlns="http://www.w3.org/2000/svg" xmlns:xlink="http://www.w3.org/1999/xlink">
 <defs>
  <style type="text/css">
*{stroke-linecap:butt;stroke-linejoin:round;}
  </style>
 </defs>
 <g id="figure_1">
  <g id="patch_1">
   <path d="M 0 707.479844 
L 726.89 707.479844 
L 726.89 0 
L 0 0 
z
" style="fill:#ffffff;"/>
  </g>
  <g id="axes_1">
   <g id="patch_2">
    <path d="M 50.09 324.909091 
L 719.69 324.909091 
L 719.69 28.4 
L 50.09 28.4 
z
" style="fill:#ffffff;"/>
   </g>
   <g id="matplotlib.axis_1">
    <g id="xtick_1">
     <g id="line2d_1">
      <defs>
       <path d="M 0 0 
L 0 6 
" id="mc7e07a8e02" style="stroke:#262626;stroke-width:1.25;"/>
      </defs>
      <g>
       <use style="fill:#262626;stroke:#262626;stroke-width:1.25;" x="105.822484" xlink:href="#mc7e07a8e02" y="324.909091"/>
      </g>
     </g>
     <g id="text_1">
      <!-- 2/25 -->
      <defs>
       <path d="M 50.34375 8.453125 
L 50.34375 0 
L 3.03125 0 
Q 2.9375 3.171875 4.046875 6.109375 
Q 5.859375 10.9375 9.828125 15.625 
Q 13.8125 20.3125 21.34375 26.46875 
Q 33.015625 36.03125 37.109375 41.625 
Q 41.21875 47.21875 41.21875 52.203125 
Q 41.21875 57.421875 37.46875 61 
Q 33.734375 64.59375 27.734375 64.59375 
Q 21.390625 64.59375 17.578125 60.78125 
Q 13.765625 56.984375 13.71875 50.25 
L 4.6875 51.171875 
Q 5.609375 61.28125 11.65625 66.578125 
Q 17.71875 71.875 27.9375 71.875 
Q 38.234375 71.875 44.234375 66.15625 
Q 50.25 60.453125 50.25 52 
Q 50.25 47.703125 48.484375 43.546875 
Q 46.734375 39.40625 42.65625 34.8125 
Q 38.578125 30.21875 29.109375 22.21875 
Q 21.1875 15.578125 18.9375 13.203125 
Q 16.703125 10.84375 15.234375 8.453125 
z
" id="ArialMT-50"/>
       <path d="M 0 -1.21875 
L 20.75 72.796875 
L 27.78125 72.796875 
L 7.078125 -1.21875 
z
" id="ArialMT-47"/>
       <path d="M 4.15625 18.75 
L 13.375 19.53125 
Q 14.40625 12.796875 18.140625 9.390625 
Q 21.875 6 27.15625 6 
Q 33.5 6 37.890625 10.78125 
Q 42.28125 15.578125 42.28125 23.484375 
Q 42.28125 31 38.0625 35.34375 
Q 33.84375 39.703125 27 39.703125 
Q 22.75 39.703125 19.328125 37.765625 
Q 15.921875 35.84375 13.96875 32.765625 
L 5.71875 33.84375 
L 12.640625 70.609375 
L 48.25 70.609375 
L 48.25 62.203125 
L 19.671875 62.203125 
L 15.828125 42.96875 
Q 22.265625 47.46875 29.34375 47.46875 
Q 38.71875 47.46875 45.15625 40.96875 
Q 51.609375 34.46875 51.609375 24.265625 
Q 51.609375 14.546875 45.953125 7.46875 
Q 39.0625 -1.21875 27.15625 -1.21875 
Q 17.390625 -1.21875 11.203125 4.25 
Q 5.03125 9.71875 4.15625 18.75 
z
" id="ArialMT-53"/>
      </defs>
      <g style="fill:#262626;" transform="translate(95.118968 342.282685)scale(0.11 -0.11)">
       <use xlink:href="#ArialMT-50"/>
       <use x="55.615234" xlink:href="#ArialMT-47"/>
       <use x="83.398438" xlink:href="#ArialMT-50"/>
       <use x="139.013672" xlink:href="#ArialMT-53"/>
      </g>
     </g>
    </g>
    <g id="xtick_2">
     <g id="line2d_2">
      <g>
       <use style="fill:#262626;stroke:#262626;stroke-width:1.25;" x="195.124089" xlink:href="#mc7e07a8e02" y="324.909091"/>
      </g>
     </g>
     <g id="text_2">
      <!-- 2/29 -->
      <defs>
       <path d="M 5.46875 16.546875 
L 13.921875 17.328125 
Q 14.984375 11.375 18.015625 8.6875 
Q 21.046875 6 25.78125 6 
Q 29.828125 6 32.875 7.859375 
Q 35.9375 9.71875 37.890625 12.8125 
Q 39.84375 15.921875 41.15625 21.1875 
Q 42.484375 26.46875 42.484375 31.9375 
Q 42.484375 32.515625 42.4375 33.6875 
Q 39.796875 29.5 35.234375 26.875 
Q 30.671875 24.265625 25.34375 24.265625 
Q 16.453125 24.265625 10.296875 30.703125 
Q 4.15625 37.15625 4.15625 47.703125 
Q 4.15625 58.59375 10.578125 65.234375 
Q 17 71.875 26.65625 71.875 
Q 33.640625 71.875 39.421875 68.109375 
Q 45.21875 64.359375 48.21875 57.390625 
Q 51.21875 50.4375 51.21875 37.25 
Q 51.21875 23.53125 48.234375 15.40625 
Q 45.265625 7.28125 39.375 3.03125 
Q 33.5 -1.21875 25.59375 -1.21875 
Q 17.1875 -1.21875 11.859375 3.4375 
Q 6.546875 8.109375 5.46875 16.546875 
z
M 41.453125 48.140625 
Q 41.453125 55.71875 37.421875 60.15625 
Q 33.40625 64.59375 27.734375 64.59375 
Q 21.875 64.59375 17.53125 59.8125 
Q 13.1875 55.03125 13.1875 47.40625 
Q 13.1875 40.578125 17.3125 36.296875 
Q 21.4375 32.03125 27.484375 32.03125 
Q 33.59375 32.03125 37.515625 36.296875 
Q 41.453125 40.578125 41.453125 48.140625 
z
" id="ArialMT-57"/>
      </defs>
      <g style="fill:#262626;" transform="translate(184.420573 342.282685)scale(0.11 -0.11)">
       <use xlink:href="#ArialMT-50"/>
       <use x="55.615234" xlink:href="#ArialMT-47"/>
       <use x="83.398438" xlink:href="#ArialMT-50"/>
       <use x="139.013672" xlink:href="#ArialMT-57"/>
      </g>
     </g>
    </g>
    <g id="xtick_3">
     <g id="line2d_3">
      <g>
       <use style="fill:#262626;stroke:#262626;stroke-width:1.25;" x="217.44949" xlink:href="#mc7e07a8e02" y="324.909091"/>
      </g>
     </g>
     <g id="text_3">
      <!-- 3/01 -->
      <defs>
       <path d="M 4.203125 18.890625 
L 12.984375 20.0625 
Q 14.5 12.59375 18.140625 9.296875 
Q 21.78125 6 27 6 
Q 33.203125 6 37.46875 10.296875 
Q 41.75 14.59375 41.75 20.953125 
Q 41.75 27 37.796875 30.921875 
Q 33.84375 34.859375 27.734375 34.859375 
Q 25.25 34.859375 21.53125 33.890625 
L 22.515625 41.609375 
Q 23.390625 41.5 23.921875 41.5 
Q 29.546875 41.5 34.03125 44.421875 
Q 38.53125 47.359375 38.53125 53.46875 
Q 38.53125 58.296875 35.25 61.46875 
Q 31.984375 64.65625 26.8125 64.65625 
Q 21.6875 64.65625 18.265625 61.421875 
Q 14.84375 58.203125 13.875 51.765625 
L 5.078125 53.328125 
Q 6.6875 62.15625 12.390625 67.015625 
Q 18.109375 71.875 26.609375 71.875 
Q 32.46875 71.875 37.390625 69.359375 
Q 42.328125 66.84375 44.9375 62.5 
Q 47.5625 58.15625 47.5625 53.265625 
Q 47.5625 48.640625 45.0625 44.828125 
Q 42.578125 41.015625 37.703125 38.765625 
Q 44.046875 37.3125 47.5625 32.6875 
Q 51.078125 28.078125 51.078125 21.140625 
Q 51.078125 11.765625 44.234375 5.25 
Q 37.40625 -1.265625 26.953125 -1.265625 
Q 17.53125 -1.265625 11.296875 4.34375 
Q 5.078125 9.96875 4.203125 18.890625 
z
" id="ArialMT-51"/>
       <path d="M 4.15625 35.296875 
Q 4.15625 48 6.765625 55.734375 
Q 9.375 63.484375 14.515625 67.671875 
Q 19.671875 71.875 27.484375 71.875 
Q 33.25 71.875 37.59375 69.546875 
Q 41.9375 67.234375 44.765625 62.859375 
Q 47.609375 58.5 49.21875 52.21875 
Q 50.828125 45.953125 50.828125 35.296875 
Q 50.828125 22.703125 48.234375 14.96875 
Q 45.65625 7.234375 40.5 3 
Q 35.359375 -1.21875 27.484375 -1.21875 
Q 17.140625 -1.21875 11.234375 6.203125 
Q 4.15625 15.140625 4.15625 35.296875 
z
M 13.1875 35.296875 
Q 13.1875 17.671875 17.3125 11.828125 
Q 21.4375 6 27.484375 6 
Q 33.546875 6 37.671875 11.859375 
Q 41.796875 17.71875 41.796875 35.296875 
Q 41.796875 52.984375 37.671875 58.78125 
Q 33.546875 64.59375 27.390625 64.59375 
Q 21.34375 64.59375 17.71875 59.46875 
Q 13.1875 52.9375 13.1875 35.296875 
z
" id="ArialMT-48"/>
       <path d="M 37.25 0 
L 28.46875 0 
L 28.46875 56 
Q 25.296875 52.984375 20.140625 49.953125 
Q 14.984375 46.921875 10.890625 45.40625 
L 10.890625 53.90625 
Q 18.265625 57.375 23.78125 62.296875 
Q 29.296875 67.234375 31.59375 71.875 
L 37.25 71.875 
z
" id="ArialMT-49"/>
      </defs>
      <g style="fill:#262626;" transform="translate(206.745975 342.282685)scale(0.11 -0.11)">
       <use xlink:href="#ArialMT-51"/>
       <use x="55.615234" xlink:href="#ArialMT-47"/>
       <use x="83.398438" xlink:href="#ArialMT-48"/>
       <use x="139.013672" xlink:href="#ArialMT-49"/>
      </g>
     </g>
    </g>
    <g id="xtick_4">
     <g id="line2d_4">
      <g>
       <use style="fill:#262626;stroke:#262626;stroke-width:1.25;" x="306.751095" xlink:href="#mc7e07a8e02" y="324.909091"/>
      </g>
     </g>
     <g id="text_4">
      <!-- 3/05 -->
      <g style="fill:#262626;" transform="translate(296.04758 342.282685)scale(0.11 -0.11)">
       <use xlink:href="#ArialMT-51"/>
       <use x="55.615234" xlink:href="#ArialMT-47"/>
       <use x="83.398438" xlink:href="#ArialMT-48"/>
       <use x="139.013672" xlink:href="#ArialMT-53"/>
      </g>
     </g>
    </g>
    <g id="xtick_5">
     <g id="line2d_5">
      <g>
       <use style="fill:#262626;stroke:#262626;stroke-width:1.25;" x="396.052701" xlink:href="#mc7e07a8e02" y="324.909091"/>
      </g>
     </g>
     <g id="text_5">
      <!-- 3/09 -->
      <g style="fill:#262626;" transform="translate(385.349185 342.282685)scale(0.11 -0.11)">
       <use xlink:href="#ArialMT-51"/>
       <use x="55.615234" xlink:href="#ArialMT-47"/>
       <use x="83.398438" xlink:href="#ArialMT-48"/>
       <use x="139.013672" xlink:href="#ArialMT-57"/>
      </g>
     </g>
    </g>
    <g id="xtick_6">
     <g id="line2d_6">
      <g>
       <use style="fill:#262626;stroke:#262626;stroke-width:1.25;" x="485.354306" xlink:href="#mc7e07a8e02" y="324.909091"/>
      </g>
     </g>
     <g id="text_6">
      <!-- 3/13 -->
      <g style="fill:#262626;" transform="translate(474.65079 342.282685)scale(0.11 -0.11)">
       <use xlink:href="#ArialMT-51"/>
       <use x="55.615234" xlink:href="#ArialMT-47"/>
       <use x="83.398438" xlink:href="#ArialMT-49"/>
       <use x="139.013672" xlink:href="#ArialMT-51"/>
      </g>
     </g>
    </g>
    <g id="xtick_7">
     <g id="line2d_7">
      <g>
       <use style="fill:#262626;stroke:#262626;stroke-width:1.25;" x="574.655911" xlink:href="#mc7e07a8e02" y="324.909091"/>
      </g>
     </g>
     <g id="text_7">
      <!-- 3/17 -->
      <defs>
       <path d="M 4.734375 62.203125 
L 4.734375 70.65625 
L 51.078125 70.65625 
L 51.078125 63.8125 
Q 44.234375 56.546875 37.515625 44.484375 
Q 30.8125 32.421875 27.15625 19.671875 
Q 24.515625 10.6875 23.78125 0 
L 14.75 0 
Q 14.890625 8.453125 18.0625 20.40625 
Q 21.234375 32.375 27.171875 43.484375 
Q 33.109375 54.59375 39.796875 62.203125 
z
" id="ArialMT-55"/>
      </defs>
      <g style="fill:#262626;" transform="translate(563.952395 342.282685)scale(0.11 -0.11)">
       <use xlink:href="#ArialMT-51"/>
       <use x="55.615234" xlink:href="#ArialMT-47"/>
       <use x="83.398438" xlink:href="#ArialMT-49"/>
       <use x="139.013672" xlink:href="#ArialMT-55"/>
      </g>
     </g>
    </g>
    <g id="xtick_8">
     <g id="line2d_8">
      <g>
       <use style="fill:#262626;stroke:#262626;stroke-width:1.25;" x="663.957516" xlink:href="#mc7e07a8e02" y="324.909091"/>
      </g>
     </g>
     <g id="text_8">
      <!-- 3/21 -->
      <g style="fill:#262626;" transform="translate(653.254001 342.282685)scale(0.11 -0.11)">
       <use xlink:href="#ArialMT-51"/>
       <use x="55.615234" xlink:href="#ArialMT-47"/>
       <use x="83.398438" xlink:href="#ArialMT-50"/>
       <use x="139.013672" xlink:href="#ArialMT-49"/>
      </g>
     </g>
    </g>
   </g>
   <g id="matplotlib.axis_2">
    <g id="ytick_1">
     <g id="line2d_9">
      <defs>
       <path d="M 0 0 
L -6 0 
" id="m41452a1659" style="stroke:#262626;stroke-width:1.25;"/>
      </defs>
      <g>
       <use style="fill:#262626;stroke:#262626;stroke-width:1.25;" x="50.09" xlink:href="#m41452a1659" y="310.338182"/>
      </g>
     </g>
     <g id="text_9">
      <!-- 1.0 -->
      <defs>
       <path d="M 9.078125 0 
L 9.078125 10.015625 
L 19.09375 10.015625 
L 19.09375 0 
z
" id="ArialMT-46"/>
      </defs>
      <g style="fill:#262626;" transform="translate(25.3 314.274978)scale(0.11 -0.11)">
       <use xlink:href="#ArialMT-49"/>
       <use x="55.615234" xlink:href="#ArialMT-46"/>
       <use x="83.398438" xlink:href="#ArialMT-48"/>
      </g>
     </g>
    </g>
    <g id="ytick_2">
     <g id="line2d_10">
      <g>
       <use style="fill:#262626;stroke:#262626;stroke-width:1.25;" x="50.09" xlink:href="#m41452a1659" y="274.204771"/>
      </g>
     </g>
     <g id="text_10">
      <!-- 1.1 -->
      <g style="fill:#262626;" transform="translate(25.3 278.141568)scale(0.11 -0.11)">
       <use xlink:href="#ArialMT-49"/>
       <use x="55.615234" xlink:href="#ArialMT-46"/>
       <use x="83.398438" xlink:href="#ArialMT-49"/>
      </g>
     </g>
    </g>
    <g id="ytick_3">
     <g id="line2d_11">
      <g>
       <use style="fill:#262626;stroke:#262626;stroke-width:1.25;" x="50.09" xlink:href="#m41452a1659" y="238.071361"/>
      </g>
     </g>
     <g id="text_11">
      <!-- 1.2 -->
      <g style="fill:#262626;" transform="translate(25.3 242.008158)scale(0.11 -0.11)">
       <use xlink:href="#ArialMT-49"/>
       <use x="55.615234" xlink:href="#ArialMT-46"/>
       <use x="83.398438" xlink:href="#ArialMT-50"/>
      </g>
     </g>
    </g>
    <g id="ytick_4">
     <g id="line2d_12">
      <g>
       <use style="fill:#262626;stroke:#262626;stroke-width:1.25;" x="50.09" xlink:href="#m41452a1659" y="201.93795"/>
      </g>
     </g>
     <g id="text_12">
      <!-- 1.3 -->
      <g style="fill:#262626;" transform="translate(25.3 205.874747)scale(0.11 -0.11)">
       <use xlink:href="#ArialMT-49"/>
       <use x="55.615234" xlink:href="#ArialMT-46"/>
       <use x="83.398438" xlink:href="#ArialMT-51"/>
      </g>
     </g>
    </g>
    <g id="ytick_5">
     <g id="line2d_13">
      <g>
       <use style="fill:#262626;stroke:#262626;stroke-width:1.25;" x="50.09" xlink:href="#m41452a1659" y="165.80454"/>
      </g>
     </g>
     <g id="text_13">
      <!-- 1.4 -->
      <defs>
       <path d="M 32.328125 0 
L 32.328125 17.140625 
L 1.265625 17.140625 
L 1.265625 25.203125 
L 33.9375 71.578125 
L 41.109375 71.578125 
L 41.109375 25.203125 
L 50.78125 25.203125 
L 50.78125 17.140625 
L 41.109375 17.140625 
L 41.109375 0 
z
M 32.328125 25.203125 
L 32.328125 57.46875 
L 9.90625 25.203125 
z
" id="ArialMT-52"/>
      </defs>
      <g style="fill:#262626;" transform="translate(25.3 169.741337)scale(0.11 -0.11)">
       <use xlink:href="#ArialMT-49"/>
       <use x="55.615234" xlink:href="#ArialMT-46"/>
       <use x="83.398438" xlink:href="#ArialMT-52"/>
      </g>
     </g>
    </g>
    <g id="ytick_6">
     <g id="line2d_14">
      <g>
       <use style="fill:#262626;stroke:#262626;stroke-width:1.25;" x="50.09" xlink:href="#m41452a1659" y="129.67113"/>
      </g>
     </g>
     <g id="text_14">
      <!-- 1.5 -->
      <g style="fill:#262626;" transform="translate(25.3 133.607927)scale(0.11 -0.11)">
       <use xlink:href="#ArialMT-49"/>
       <use x="55.615234" xlink:href="#ArialMT-46"/>
       <use x="83.398438" xlink:href="#ArialMT-53"/>
      </g>
     </g>
    </g>
    <g id="ytick_7">
     <g id="line2d_15">
      <g>
       <use style="fill:#262626;stroke:#262626;stroke-width:1.25;" x="50.09" xlink:href="#m41452a1659" y="93.537719"/>
      </g>
     </g>
     <g id="text_15">
      <!-- 1.6 -->
      <defs>
       <path d="M 49.75 54.046875 
L 41.015625 53.375 
Q 39.84375 58.546875 37.703125 60.890625 
Q 34.125 64.65625 28.90625 64.65625 
Q 24.703125 64.65625 21.53125 62.3125 
Q 17.390625 59.28125 14.984375 53.46875 
Q 12.59375 47.65625 12.5 36.921875 
Q 15.671875 41.75 20.265625 44.09375 
Q 24.859375 46.4375 29.890625 46.4375 
Q 38.671875 46.4375 44.84375 39.96875 
Q 51.03125 33.5 51.03125 23.25 
Q 51.03125 16.5 48.125 10.71875 
Q 45.21875 4.9375 40.140625 1.859375 
Q 35.0625 -1.21875 28.609375 -1.21875 
Q 17.625 -1.21875 10.6875 6.859375 
Q 3.765625 14.9375 3.765625 33.5 
Q 3.765625 54.25 11.421875 63.671875 
Q 18.109375 71.875 29.4375 71.875 
Q 37.890625 71.875 43.28125 67.140625 
Q 48.6875 62.40625 49.75 54.046875 
z
M 13.875 23.1875 
Q 13.875 18.65625 15.796875 14.5 
Q 17.71875 10.359375 21.1875 8.171875 
Q 24.65625 6 28.46875 6 
Q 34.03125 6 38.03125 10.484375 
Q 42.046875 14.984375 42.046875 22.703125 
Q 42.046875 30.125 38.078125 34.390625 
Q 34.125 38.671875 28.125 38.671875 
Q 22.171875 38.671875 18.015625 34.390625 
Q 13.875 30.125 13.875 23.1875 
z
" id="ArialMT-54"/>
      </defs>
      <g style="fill:#262626;" transform="translate(25.3 97.474516)scale(0.11 -0.11)">
       <use xlink:href="#ArialMT-49"/>
       <use x="55.615234" xlink:href="#ArialMT-46"/>
       <use x="83.398438" xlink:href="#ArialMT-54"/>
      </g>
     </g>
    </g>
    <g id="ytick_8">
     <g id="line2d_16">
      <g>
       <use style="fill:#262626;stroke:#262626;stroke-width:1.25;" x="50.09" xlink:href="#m41452a1659" y="57.404309"/>
      </g>
     </g>
     <g id="text_16">
      <!-- 1.7 -->
      <g style="fill:#262626;" transform="translate(25.3 61.341106)scale(0.11 -0.11)">
       <use xlink:href="#ArialMT-49"/>
       <use x="55.615234" xlink:href="#ArialMT-46"/>
       <use x="83.398438" xlink:href="#ArialMT-55"/>
      </g>
     </g>
    </g>
    <g id="text_17">
     <!-- $1+E \cdot p$ -->
     <defs>
      <path d="M 12.40625 8.296875 
L 28.515625 8.296875 
L 28.515625 63.921875 
L 10.984375 60.40625 
L 10.984375 69.390625 
L 28.421875 72.90625 
L 38.28125 72.90625 
L 38.28125 8.296875 
L 54.390625 8.296875 
L 54.390625 0 
L 12.40625 0 
z
" id="DejaVuSans-49"/>
      <path d="M 46 62.703125 
L 46 35.5 
L 73.1875 35.5 
L 73.1875 27.203125 
L 46 27.203125 
L 46 0 
L 37.796875 0 
L 37.796875 27.203125 
L 10.59375 27.203125 
L 10.59375 35.5 
L 37.796875 35.5 
L 37.796875 62.703125 
z
" id="DejaVuSans-43"/>
      <path d="M 16.890625 72.90625 
L 62.984375 72.90625 
L 61.375 64.59375 
L 25.09375 64.59375 
L 20.90625 43.015625 
L 55.71875 43.015625 
L 54.109375 34.71875 
L 19.28125 34.71875 
L 14.203125 8.296875 
L 51.3125 8.296875 
L 49.703125 0 
L 2.6875 0 
z
" id="DejaVuSans-Oblique-69"/>
      <path d="M 10.6875 40.921875 
L 21 40.921875 
L 21 28.515625 
L 10.6875 28.515625 
z
" id="DejaVuSans-8901"/>
      <path d="M 49.609375 33.6875 
Q 49.609375 40.875 46.484375 44.671875 
Q 43.359375 48.484375 37.5 48.484375 
Q 33.5 48.484375 29.859375 46.4375 
Q 26.21875 44.390625 23.390625 40.484375 
Q 20.609375 36.625 18.9375 31.15625 
Q 17.28125 25.6875 17.28125 20.3125 
Q 17.28125 13.484375 20.40625 9.796875 
Q 23.53125 6.109375 29.296875 6.109375 
Q 33.546875 6.109375 37.1875 8.109375 
Q 40.828125 10.109375 43.40625 13.921875 
Q 46.1875 17.921875 47.890625 23.34375 
Q 49.609375 28.765625 49.609375 33.6875 
z
M 21.78125 46.390625 
Q 25.390625 51.125 30.296875 53.5625 
Q 35.203125 56 41.21875 56 
Q 49.609375 56 54.25 50.5 
Q 58.890625 45.015625 58.890625 35.109375 
Q 58.890625 27 56 19.65625 
Q 53.125 12.3125 47.703125 6.5 
Q 44.09375 2.640625 39.546875 0.609375 
Q 35.015625 -1.421875 29.984375 -1.421875 
Q 24.171875 -1.421875 20.21875 1 
Q 16.265625 3.421875 14.3125 8.203125 
L 8.6875 -20.796875 
L -0.296875 -20.796875 
L 14.40625 54.6875 
L 23.390625 54.6875 
z
" id="DejaVuSans-Oblique-112"/>
     </defs>
     <g style="fill:#262626;" transform="translate(18.15 205.454545)rotate(-90)scale(0.15 -0.15)">
      <use transform="translate(0 0.09375)" xlink:href="#DejaVuSans-49"/>
      <use transform="translate(83.105469 0.09375)" xlink:href="#DejaVuSans-43"/>
      <use transform="translate(186.376953 0.09375)" xlink:href="#DejaVuSans-Oblique-69"/>
      <use transform="translate(269.042969 0.09375)" xlink:href="#DejaVuSans-8901"/>
      <use transform="translate(320.3125 0.09375)" xlink:href="#DejaVuSans-Oblique-112"/>
     </g>
    </g>
   </g>
   <g id="PathCollection_1">
    <defs>
     <path d="M 0 3 
C 0.795609 3 1.55874 2.683901 2.12132 2.12132 
C 2.683901 1.55874 3 0.795609 3 0 
C 3 -0.795609 2.683901 -1.55874 2.12132 -2.12132 
C 1.55874 -2.683901 0.795609 -3 0 -3 
C -0.795609 -3 -1.55874 -2.683901 -2.12132 -2.12132 
C -2.683901 -1.55874 -3 -0.795609 -3 0 
C -3 0.795609 -2.683901 1.55874 -2.12132 2.12132 
C -1.55874 2.683901 -0.795609 3 0 3 
z
" id="C0_0_71d0d4da52"/>
    </defs>
    <g clip-path="url(#pd35e560ff2)">
     <use style="fill:#4878d0;stroke:#ffffff;stroke-width:0.75;" x="83.497082" xlink:href="#C0_0_71d0d4da52" y="67.924163"/>
    </g>
    <g clip-path="url(#pd35e560ff2)">
     <use style="fill:#4878d0;stroke:#ffffff;stroke-width:0.75;" x="105.822484" xlink:href="#C0_0_71d0d4da52" y="44.812363"/>
    </g>
    <g clip-path="url(#pd35e560ff2)">
     <use style="fill:#4878d0;stroke:#ffffff;stroke-width:0.75;" x="128.147885" xlink:href="#C0_0_71d0d4da52" y="163.595511"/>
    </g>
    <g clip-path="url(#pd35e560ff2)">
     <use style="fill:#4878d0;stroke:#ffffff;stroke-width:0.75;" x="150.473286" xlink:href="#C0_0_71d0d4da52" y="222.810045"/>
    </g>
    <g clip-path="url(#pd35e560ff2)">
     <use style="fill:#4878d0;stroke:#ffffff;stroke-width:0.75;" x="172.798688" xlink:href="#C0_0_71d0d4da52" y="84.504367"/>
    </g>
    <g clip-path="url(#pd35e560ff2)">
     <use style="fill:#4878d0;stroke:#ffffff;stroke-width:0.75;" x="195.124089" xlink:href="#C0_0_71d0d4da52" y="178.03431"/>
    </g>
    <g clip-path="url(#pd35e560ff2)">
     <use style="fill:#4878d0;stroke:#ffffff;stroke-width:0.75;" x="217.44949" xlink:href="#C0_0_71d0d4da52" y="212.680316"/>
    </g>
    <g clip-path="url(#pd35e560ff2)">
     <use style="fill:#4878d0;stroke:#ffffff;stroke-width:0.75;" x="239.774892" xlink:href="#C0_0_71d0d4da52" y="130.632125"/>
    </g>
    <g clip-path="url(#pd35e560ff2)">
     <use style="fill:#4878d0;stroke:#ffffff;stroke-width:0.75;" x="262.100293" xlink:href="#C0_0_71d0d4da52" y="279.103854"/>
    </g>
    <g clip-path="url(#pd35e560ff2)">
     <use style="fill:#4878d0;stroke:#ffffff;stroke-width:0.75;" x="284.425694" xlink:href="#C0_0_71d0d4da52" y="178.997665"/>
    </g>
    <g clip-path="url(#pd35e560ff2)">
     <use style="fill:#4878d0;stroke:#ffffff;stroke-width:0.75;" x="306.751095" xlink:href="#C0_0_71d0d4da52" y="225.564753"/>
    </g>
    <g clip-path="url(#pd35e560ff2)">
     <use style="fill:#4878d0;stroke:#ffffff;stroke-width:0.75;" x="329.076497" xlink:href="#C0_0_71d0d4da52" y="220.384823"/>
    </g>
    <g clip-path="url(#pd35e560ff2)">
     <use style="fill:#4878d0;stroke:#ffffff;stroke-width:0.75;" x="351.401898" xlink:href="#C0_0_71d0d4da52" y="237.471947"/>
    </g>
    <g clip-path="url(#pd35e560ff2)">
     <use style="fill:#4878d0;stroke:#ffffff;stroke-width:0.75;" x="373.727299" xlink:href="#C0_0_71d0d4da52" y="213.145855"/>
    </g>
    <g clip-path="url(#pd35e560ff2)">
     <use style="fill:#4878d0;stroke:#ffffff;stroke-width:0.75;" x="396.052701" xlink:href="#C0_0_71d0d4da52" y="218.69948"/>
    </g>
    <g clip-path="url(#pd35e560ff2)">
     <use style="fill:#4878d0;stroke:#ffffff;stroke-width:0.75;" x="418.378102" xlink:href="#C0_0_71d0d4da52" y="222.295146"/>
    </g>
    <g clip-path="url(#pd35e560ff2)">
     <use style="fill:#4878d0;stroke:#ffffff;stroke-width:0.75;" x="440.703503" xlink:href="#C0_0_71d0d4da52" y="271.84893"/>
    </g>
    <g clip-path="url(#pd35e560ff2)">
     <use style="fill:#4878d0;stroke:#ffffff;stroke-width:0.75;" x="463.028905" xlink:href="#C0_0_71d0d4da52" y="227.988612"/>
    </g>
    <g clip-path="url(#pd35e560ff2)">
     <use style="fill:#4878d0;stroke:#ffffff;stroke-width:0.75;" x="485.354306" xlink:href="#C0_0_71d0d4da52" y="233.472774"/>
    </g>
    <g clip-path="url(#pd35e560ff2)">
     <use style="fill:#4878d0;stroke:#ffffff;stroke-width:0.75;" x="507.679707" xlink:href="#C0_0_71d0d4da52" y="249.442399"/>
    </g>
    <g clip-path="url(#pd35e560ff2)">
     <use style="fill:#4878d0;stroke:#ffffff;stroke-width:0.75;" x="530.005108" xlink:href="#C0_0_71d0d4da52" y="308.496728"/>
    </g>
    <g clip-path="url(#pd35e560ff2)">
     <use style="fill:#4878d0;stroke:#ffffff;stroke-width:0.75;" x="552.33051" xlink:href="#C0_0_71d0d4da52" y="183.515"/>
    </g>
    <g clip-path="url(#pd35e560ff2)">
     <use style="fill:#4878d0;stroke:#ffffff;stroke-width:0.75;" x="574.655911" xlink:href="#C0_0_71d0d4da52" y="250.065604"/>
    </g>
    <g clip-path="url(#pd35e560ff2)">
     <use style="fill:#4878d0;stroke:#ffffff;stroke-width:0.75;" x="596.981312" xlink:href="#C0_0_71d0d4da52" y="264.803369"/>
    </g>
    <g clip-path="url(#pd35e560ff2)">
     <use style="fill:#4878d0;stroke:#ffffff;stroke-width:0.75;" x="619.306714" xlink:href="#C0_0_71d0d4da52" y="262.089195"/>
    </g>
    <g clip-path="url(#pd35e560ff2)">
     <use style="fill:#4878d0;stroke:#ffffff;stroke-width:0.75;" x="641.632115" xlink:href="#C0_0_71d0d4da52" y="256.49168"/>
    </g>
    <g clip-path="url(#pd35e560ff2)">
     <use style="fill:#4878d0;stroke:#ffffff;stroke-width:0.75;" x="663.957516" xlink:href="#C0_0_71d0d4da52" y="257.628399"/>
    </g>
    <g clip-path="url(#pd35e560ff2)">
     <use style="fill:#4878d0;stroke:#ffffff;stroke-width:0.75;" x="686.282918" xlink:href="#C0_0_71d0d4da52" y="259.950744"/>
    </g>
    <g clip-path="url(#pd35e560ff2)">
     <use style="fill:#ee854a;stroke:#ffffff;stroke-width:0.75;" x="172.798688" xlink:href="#C0_0_71d0d4da52" y="304.213875"/>
    </g>
    <g clip-path="url(#pd35e560ff2)">
     <use style="fill:#ee854a;stroke:#ffffff;stroke-width:0.75;" x="195.124089" xlink:href="#C0_0_71d0d4da52" y="274.204771"/>
    </g>
    <g clip-path="url(#pd35e560ff2)">
     <use style="fill:#ee854a;stroke:#ffffff;stroke-width:0.75;" x="217.44949" xlink:href="#C0_0_71d0d4da52" y="293.913904"/>
    </g>
    <g clip-path="url(#pd35e560ff2)">
     <use style="fill:#ee854a;stroke:#ffffff;stroke-width:0.75;" x="239.774892" xlink:href="#C0_0_71d0d4da52" y="205.603659"/>
    </g>
    <g clip-path="url(#pd35e560ff2)">
     <use style="fill:#ee854a;stroke:#ffffff;stroke-width:0.75;" x="262.100293" xlink:href="#C0_0_71d0d4da52" y="253.499109"/>
    </g>
    <g clip-path="url(#pd35e560ff2)">
     <use style="fill:#ee854a;stroke:#ffffff;stroke-width:0.75;" x="284.425694" xlink:href="#C0_0_71d0d4da52" y="233.160023"/>
    </g>
    <g clip-path="url(#pd35e560ff2)">
     <use style="fill:#ee854a;stroke:#ffffff;stroke-width:0.75;" x="306.751095" xlink:href="#C0_0_71d0d4da52" y="212.055305"/>
    </g>
    <g clip-path="url(#pd35e560ff2)">
     <use style="fill:#ee854a;stroke:#ffffff;stroke-width:0.75;" x="329.076497" xlink:href="#C0_0_71d0d4da52" y="142.170108"/>
    </g>
    <g clip-path="url(#pd35e560ff2)">
     <use style="fill:#ee854a;stroke:#ffffff;stroke-width:0.75;" x="351.401898" xlink:href="#C0_0_71d0d4da52" y="147.505216"/>
    </g>
    <g clip-path="url(#pd35e560ff2)">
     <use style="fill:#ee854a;stroke:#ffffff;stroke-width:0.75;" x="373.727299" xlink:href="#C0_0_71d0d4da52" y="208.77978"/>
    </g>
    <g clip-path="url(#pd35e560ff2)">
     <use style="fill:#ee854a;stroke:#ffffff;stroke-width:0.75;" x="396.052701" xlink:href="#C0_0_71d0d4da52" y="209.36491"/>
    </g>
    <g clip-path="url(#pd35e560ff2)">
     <use style="fill:#ee854a;stroke:#ffffff;stroke-width:0.75;" x="418.378102" xlink:href="#C0_0_71d0d4da52" y="179.892657"/>
    </g>
    <g clip-path="url(#pd35e560ff2)">
     <use style="fill:#ee854a;stroke:#ffffff;stroke-width:0.75;" x="440.703503" xlink:href="#C0_0_71d0d4da52" y="180.468762"/>
    </g>
    <g clip-path="url(#pd35e560ff2)">
     <use style="fill:#ee854a;stroke:#ffffff;stroke-width:0.75;" x="463.028905" xlink:href="#C0_0_71d0d4da52" y="209.164632"/>
    </g>
    <g clip-path="url(#pd35e560ff2)">
     <use style="fill:#ee854a;stroke:#ffffff;stroke-width:0.75;" x="485.354306" xlink:href="#C0_0_71d0d4da52" y="213.670293"/>
    </g>
    <g clip-path="url(#pd35e560ff2)">
     <use style="fill:#ee854a;stroke:#ffffff;stroke-width:0.75;" x="507.679707" xlink:href="#C0_0_71d0d4da52" y="199.308881"/>
    </g>
    <g clip-path="url(#pd35e560ff2)">
     <use style="fill:#ee854a;stroke:#ffffff;stroke-width:0.75;" x="530.005108" xlink:href="#C0_0_71d0d4da52" y="181.195312"/>
    </g>
    <g clip-path="url(#pd35e560ff2)">
     <use style="fill:#ee854a;stroke:#ffffff;stroke-width:0.75;" x="552.33051" xlink:href="#C0_0_71d0d4da52" y="209.566251"/>
    </g>
    <g clip-path="url(#pd35e560ff2)">
     <use style="fill:#ee854a;stroke:#ffffff;stroke-width:0.75;" x="574.655911" xlink:href="#C0_0_71d0d4da52" y="225.414135"/>
    </g>
    <g clip-path="url(#pd35e560ff2)">
     <use style="fill:#ee854a;stroke:#ffffff;stroke-width:0.75;" x="596.981312" xlink:href="#C0_0_71d0d4da52" y="173.432791"/>
    </g>
    <g clip-path="url(#pd35e560ff2)">
     <use style="fill:#ee854a;stroke:#ffffff;stroke-width:0.75;" x="619.306714" xlink:href="#C0_0_71d0d4da52" y="142.349026"/>
    </g>
    <g clip-path="url(#pd35e560ff2)">
     <use style="fill:#ee854a;stroke:#ffffff;stroke-width:0.75;" x="641.632115" xlink:href="#C0_0_71d0d4da52" y="124.777864"/>
    </g>
    <g clip-path="url(#pd35e560ff2)">
     <use style="fill:#ee854a;stroke:#ffffff;stroke-width:0.75;" x="663.957516" xlink:href="#C0_0_71d0d4da52" y="174.07085"/>
    </g>
    <g clip-path="url(#pd35e560ff2)">
     <use style="fill:#ee854a;stroke:#ffffff;stroke-width:0.75;" x="686.282918" xlink:href="#C0_0_71d0d4da52" y="227.038371"/>
    </g>
   </g>
   <g id="line2d_17">
    <path clip-path="url(#pd35e560ff2)" d="M 83.497082 67.924163 
L 105.822484 44.812363 
L 128.147885 163.595511 
L 150.473286 222.810045 
L 172.798688 84.504367 
L 195.124089 178.03431 
L 217.44949 212.680316 
L 239.774892 130.632125 
L 262.100293 279.103854 
L 284.425694 178.997665 
L 306.751095 225.564753 
L 329.076497 220.384823 
L 351.401898 237.471947 
L 373.727299 213.145855 
L 396.052701 218.69948 
L 418.378102 222.295146 
L 440.703503 271.84893 
L 463.028905 227.988612 
L 485.354306 233.472774 
L 507.679707 249.442399 
L 530.005108 308.496728 
L 552.33051 183.515 
L 574.655911 250.065604 
L 596.981312 264.803369 
L 619.306714 262.089195 
L 641.632115 256.49168 
L 663.957516 257.628399 
L 686.282918 259.950744 
" style="fill:none;stroke:#4878d0;stroke-linecap:round;stroke-width:1.5;"/>
   </g>
   <g id="line2d_18">
    <path clip-path="url(#pd35e560ff2)" d="M 172.798688 304.213875 
L 195.124089 274.204771 
L 217.44949 293.913904 
L 239.774892 205.603659 
L 262.100293 253.499109 
L 284.425694 233.160023 
L 306.751095 212.055305 
L 329.076497 142.170108 
L 351.401898 147.505216 
L 373.727299 208.77978 
L 396.052701 209.36491 
L 418.378102 179.892657 
L 440.703503 180.468762 
L 463.028905 209.164632 
L 485.354306 213.670293 
L 507.679707 199.308881 
L 530.005108 181.195312 
L 552.33051 209.566251 
L 574.655911 225.414135 
L 596.981312 173.432791 
L 619.306714 142.349026 
L 641.632115 124.777864 
L 663.957516 174.07085 
L 686.282918 227.038371 
" style="fill:none;stroke:#ee854a;stroke-linecap:round;stroke-width:1.5;"/>
   </g>
   <g id="line2d_19"/>
   <g id="line2d_20"/>
   <g id="line2d_21"/>
   <g id="patch_3">
    <path d="M 50.09 324.909091 
L 50.09 28.4 
" style="fill:none;stroke:#262626;stroke-linecap:square;stroke-linejoin:miter;stroke-width:1.25;"/>
   </g>
   <g id="patch_4">
    <path d="M 719.69 324.909091 
L 719.69 28.4 
" style="fill:none;stroke:#262626;stroke-linecap:square;stroke-linejoin:miter;stroke-width:1.25;"/>
   </g>
   <g id="patch_5">
    <path d="M 50.09 324.909091 
L 719.69 324.909091 
" style="fill:none;stroke:#262626;stroke-linecap:square;stroke-linejoin:miter;stroke-width:1.25;"/>
   </g>
   <g id="patch_6">
    <path d="M 50.09 28.4 
L 719.69 28.4 
" style="fill:none;stroke:#262626;stroke-linecap:square;stroke-linejoin:miter;stroke-width:1.25;"/>
   </g>
   <g id="text_18">
    <!-- $N_{d+1} = (1+E \cdot p)N_d$ -->
    <defs>
     <path d="M 16.890625 72.90625 
L 30.171875 72.90625 
L 50.296875 10.40625 
L 62.5 72.90625 
L 72.125 72.90625 
L 57.90625 0 
L 44.578125 0 
L 24.515625 62.890625 
L 12.3125 0 
L 2.6875 0 
z
" id="DejaVuSans-Oblique-78"/>
     <path d="M 41.796875 8.203125 
Q 38.1875 3.46875 33.25 1.015625 
Q 28.328125 -1.421875 22.3125 -1.421875 
Q 14.109375 -1.421875 9.34375 4.171875 
Q 4.59375 9.765625 4.59375 19.484375 
Q 4.59375 27.59375 7.46875 34.9375 
Q 10.359375 42.28125 15.828125 48.09375 
Q 19.4375 51.953125 23.96875 53.96875 
Q 28.515625 56 33.5 56 
Q 38.765625 56 42.796875 53.453125 
Q 46.828125 50.921875 49.03125 46.1875 
L 54.890625 75.984375 
L 63.921875 75.984375 
L 49.125 0 
L 40.09375 0 
z
M 13.921875 21.09375 
Q 13.921875 14.015625 17.109375 10.0625 
Q 20.3125 6.109375 25.984375 6.109375 
Q 30.171875 6.109375 33.765625 8.125 
Q 37.359375 10.15625 40.09375 14.109375 
Q 42.96875 18.21875 44.625 23.578125 
Q 46.296875 28.953125 46.296875 34.1875 
Q 46.296875 40.96875 43.09375 44.765625 
Q 39.890625 48.578125 34.28125 48.578125 
Q 30.03125 48.578125 26.359375 46.578125 
Q 22.703125 44.578125 20.125 40.828125 
Q 17.28125 36.765625 15.59375 31.390625 
Q 13.921875 26.03125 13.921875 21.09375 
z
" id="DejaVuSans-Oblique-100"/>
     <path d="M 10.59375 45.40625 
L 73.1875 45.40625 
L 73.1875 37.203125 
L 10.59375 37.203125 
z
M 10.59375 25.484375 
L 73.1875 25.484375 
L 73.1875 17.1875 
L 10.59375 17.1875 
z
" id="DejaVuSans-61"/>
     <path d="M 31 75.875 
Q 24.46875 64.65625 21.28125 53.65625 
Q 18.109375 42.671875 18.109375 31.390625 
Q 18.109375 20.125 21.3125 9.0625 
Q 24.515625 -2 31 -13.1875 
L 23.1875 -13.1875 
Q 15.875 -1.703125 12.234375 9.375 
Q 8.59375 20.453125 8.59375 31.390625 
Q 8.59375 42.28125 12.203125 53.3125 
Q 15.828125 64.359375 23.1875 75.875 
z
" id="DejaVuSans-40"/>
     <path d="M 8.015625 75.875 
L 15.828125 75.875 
Q 23.140625 64.359375 26.78125 53.3125 
Q 30.421875 42.28125 30.421875 31.390625 
Q 30.421875 20.453125 26.78125 9.375 
Q 23.140625 -1.703125 15.828125 -13.1875 
L 8.015625 -13.1875 
Q 14.5 -2 17.703125 9.0625 
Q 20.90625 20.125 20.90625 31.390625 
Q 20.90625 42.671875 17.703125 53.65625 
Q 14.5 64.65625 8.015625 75.875 
z
" id="DejaVuSans-41"/>
    </defs>
    <g style="fill:#262626;" transform="translate(288.99 22.4)scale(0.2 -0.2)">
     <use transform="translate(0 0.125)" xlink:href="#DejaVuSans-Oblique-78"/>
     <use transform="translate(74.804688 -16.28125)scale(0.7)" xlink:href="#DejaVuSans-Oblique-100"/>
     <use transform="translate(132.875977 -16.28125)scale(0.7)" xlink:href="#DejaVuSans-43"/>
     <use transform="translate(205.166016 -16.28125)scale(0.7)" xlink:href="#DejaVuSans-49"/>
     <use transform="translate(271.918945 0.125)" xlink:href="#DejaVuSans-61"/>
     <use transform="translate(375.19043 0.125)" xlink:href="#DejaVuSans-40"/>
     <use transform="translate(414.204102 0.125)" xlink:href="#DejaVuSans-49"/>
     <use transform="translate(497.30957 0.125)" xlink:href="#DejaVuSans-43"/>
     <use transform="translate(600.581055 0.125)" xlink:href="#DejaVuSans-Oblique-69"/>
     <use transform="translate(683.24707 0.125)" xlink:href="#DejaVuSans-8901"/>
     <use transform="translate(734.516602 0.125)" xlink:href="#DejaVuSans-Oblique-112"/>
     <use transform="translate(797.993164 0.125)" xlink:href="#DejaVuSans-41"/>
     <use transform="translate(837.006836 0.125)" xlink:href="#DejaVuSans-Oblique-78"/>
     <use transform="translate(911.811523 -16.28125)scale(0.7)" xlink:href="#DejaVuSans-Oblique-100"/>
    </g>
   </g>
   <g id="legend_1">
    <g id="patch_7">
     <path d="M 610.755625 84.137344 
L 711.99 84.137344 
Q 714.19 84.137344 714.19 81.937344 
L 714.19 36.1 
Q 714.19 33.9 711.99 33.9 
L 610.755625 33.9 
Q 608.555625 33.9 608.555625 36.1 
L 608.555625 81.937344 
Q 608.555625 84.137344 610.755625 84.137344 
z
" style="fill:#ffffff;opacity:0.8;stroke:#cccccc;stroke-linejoin:miter;"/>
    </g>
    <g id="line2d_22">
     <path d="M 612.955625 42.323594 
L 634.955625 42.323594 
" style="fill:none;"/>
    </g>
    <g id="line2d_23"/>
    <g id="text_19">
     <!-- country -->
     <defs>
      <path d="M 40.4375 19 
L 49.078125 17.875 
Q 47.65625 8.9375 41.8125 3.875 
Q 35.984375 -1.171875 27.484375 -1.171875 
Q 16.84375 -1.171875 10.375 5.78125 
Q 3.90625 12.75 3.90625 25.734375 
Q 3.90625 34.125 6.6875 40.421875 
Q 9.46875 46.734375 15.15625 49.875 
Q 20.84375 53.03125 27.546875 53.03125 
Q 35.984375 53.03125 41.359375 48.75 
Q 46.734375 44.484375 48.25 36.625 
L 39.703125 35.296875 
Q 38.484375 40.53125 35.375 43.15625 
Q 32.28125 45.796875 27.875 45.796875 
Q 21.234375 45.796875 17.078125 41.03125 
Q 12.9375 36.28125 12.9375 25.984375 
Q 12.9375 15.53125 16.9375 10.796875 
Q 20.953125 6.0625 27.390625 6.0625 
Q 32.5625 6.0625 36.03125 9.234375 
Q 39.5 12.40625 40.4375 19 
z
" id="ArialMT-99"/>
      <path d="M 3.328125 25.921875 
Q 3.328125 40.328125 11.328125 47.265625 
Q 18.015625 53.03125 27.640625 53.03125 
Q 38.328125 53.03125 45.109375 46.015625 
Q 51.90625 39.015625 51.90625 26.65625 
Q 51.90625 16.65625 48.90625 10.90625 
Q 45.90625 5.171875 40.15625 2 
Q 34.421875 -1.171875 27.640625 -1.171875 
Q 16.75 -1.171875 10.03125 5.8125 
Q 3.328125 12.796875 3.328125 25.921875 
z
M 12.359375 25.921875 
Q 12.359375 15.96875 16.703125 11.015625 
Q 21.046875 6.0625 27.640625 6.0625 
Q 34.1875 6.0625 38.53125 11.03125 
Q 42.875 16.015625 42.875 26.21875 
Q 42.875 35.84375 38.5 40.796875 
Q 34.125 45.75 27.640625 45.75 
Q 21.046875 45.75 16.703125 40.8125 
Q 12.359375 35.890625 12.359375 25.921875 
z
" id="ArialMT-111"/>
      <path d="M 40.578125 0 
L 40.578125 7.625 
Q 34.515625 -1.171875 24.125 -1.171875 
Q 19.53125 -1.171875 15.546875 0.578125 
Q 11.578125 2.34375 9.640625 5 
Q 7.71875 7.671875 6.9375 11.53125 
Q 6.390625 14.109375 6.390625 19.734375 
L 6.390625 51.859375 
L 15.1875 51.859375 
L 15.1875 23.09375 
Q 15.1875 16.21875 15.71875 13.8125 
Q 16.546875 10.359375 19.234375 8.375 
Q 21.921875 6.390625 25.875 6.390625 
Q 29.828125 6.390625 33.296875 8.421875 
Q 36.765625 10.453125 38.203125 13.9375 
Q 39.65625 17.4375 39.65625 24.078125 
L 39.65625 51.859375 
L 48.4375 51.859375 
L 48.4375 0 
z
" id="ArialMT-117"/>
      <path d="M 6.59375 0 
L 6.59375 51.859375 
L 14.5 51.859375 
L 14.5 44.484375 
Q 20.21875 53.03125 31 53.03125 
Q 35.6875 53.03125 39.625 51.34375 
Q 43.5625 49.65625 45.515625 46.921875 
Q 47.46875 44.1875 48.25 40.4375 
Q 48.734375 37.984375 48.734375 31.890625 
L 48.734375 0 
L 39.9375 0 
L 39.9375 31.546875 
Q 39.9375 36.921875 38.90625 39.578125 
Q 37.890625 42.234375 35.28125 43.8125 
Q 32.671875 45.40625 29.15625 45.40625 
Q 23.53125 45.40625 19.453125 41.84375 
Q 15.375 38.28125 15.375 28.328125 
L 15.375 0 
z
" id="ArialMT-110"/>
      <path d="M 25.78125 7.859375 
L 27.046875 0.09375 
Q 23.34375 -0.6875 20.40625 -0.6875 
Q 15.625 -0.6875 12.984375 0.828125 
Q 10.359375 2.34375 9.28125 4.8125 
Q 8.203125 7.28125 8.203125 15.1875 
L 8.203125 45.015625 
L 1.765625 45.015625 
L 1.765625 51.859375 
L 8.203125 51.859375 
L 8.203125 64.703125 
L 16.9375 69.96875 
L 16.9375 51.859375 
L 25.78125 51.859375 
L 25.78125 45.015625 
L 16.9375 45.015625 
L 16.9375 14.703125 
Q 16.9375 10.9375 17.40625 9.859375 
Q 17.875 8.796875 18.921875 8.15625 
Q 19.96875 7.515625 21.921875 7.515625 
Q 23.390625 7.515625 25.78125 7.859375 
z
" id="ArialMT-116"/>
      <path d="M 6.5 0 
L 6.5 51.859375 
L 14.40625 51.859375 
L 14.40625 44 
Q 17.4375 49.515625 20 51.265625 
Q 22.5625 53.03125 25.640625 53.03125 
Q 30.078125 53.03125 34.671875 50.203125 
L 31.640625 42.046875 
Q 28.421875 43.953125 25.203125 43.953125 
Q 22.3125 43.953125 20.015625 42.21875 
Q 17.71875 40.484375 16.75 37.40625 
Q 15.28125 32.71875 15.28125 27.15625 
L 15.28125 0 
z
" id="ArialMT-114"/>
      <path d="M 6.203125 -19.96875 
L 5.21875 -11.71875 
Q 8.109375 -12.5 10.25 -12.5 
Q 13.1875 -12.5 14.9375 -11.515625 
Q 16.703125 -10.546875 17.828125 -8.796875 
Q 18.65625 -7.46875 20.515625 -2.25 
Q 20.75 -1.515625 21.296875 -0.09375 
L 1.609375 51.859375 
L 11.078125 51.859375 
L 21.875 21.828125 
Q 23.96875 16.109375 25.640625 9.8125 
Q 27.15625 15.875 29.25 21.625 
L 40.328125 51.859375 
L 49.125 51.859375 
L 29.390625 -0.875 
Q 26.21875 -9.421875 24.46875 -12.640625 
Q 22.125 -17 19.09375 -19.015625 
Q 16.0625 -21.046875 11.859375 -21.046875 
Q 9.328125 -21.046875 6.203125 -19.96875 
z
" id="ArialMT-121"/>
     </defs>
     <g style="fill:#262626;" transform="translate(643.755625 46.173594)scale(0.11 -0.11)">
      <use xlink:href="#ArialMT-99"/>
      <use x="50" xlink:href="#ArialMT-111"/>
      <use x="105.615234" xlink:href="#ArialMT-117"/>
      <use x="161.230469" xlink:href="#ArialMT-110"/>
      <use x="216.845703" xlink:href="#ArialMT-116"/>
      <use x="244.628906" xlink:href="#ArialMT-114"/>
      <use x="277.929688" xlink:href="#ArialMT-121"/>
     </g>
    </g>
    <g id="line2d_24">
     <path d="M 612.955625 58.012344 
L 634.955625 58.012344 
" style="fill:none;stroke:#4878d0;stroke-linecap:round;stroke-width:1.5;"/>
    </g>
    <g id="line2d_25"/>
    <g id="text_20">
     <!-- Italy -->
     <defs>
      <path d="M 9.328125 0 
L 9.328125 71.578125 
L 18.796875 71.578125 
L 18.796875 0 
z
" id="ArialMT-73"/>
      <path d="M 40.4375 6.390625 
Q 35.546875 2.25 31.03125 0.53125 
Q 26.515625 -1.171875 21.34375 -1.171875 
Q 12.796875 -1.171875 8.203125 3 
Q 3.609375 7.171875 3.609375 13.671875 
Q 3.609375 17.484375 5.34375 20.625 
Q 7.078125 23.78125 9.890625 25.6875 
Q 12.703125 27.59375 16.21875 28.5625 
Q 18.796875 29.25 24.03125 29.890625 
Q 34.671875 31.15625 39.703125 32.90625 
Q 39.75 34.71875 39.75 35.203125 
Q 39.75 40.578125 37.25 42.78125 
Q 33.890625 45.75 27.25 45.75 
Q 21.046875 45.75 18.09375 43.578125 
Q 15.140625 41.40625 13.71875 35.890625 
L 5.125 37.0625 
Q 6.296875 42.578125 8.984375 45.96875 
Q 11.671875 49.359375 16.75 51.1875 
Q 21.828125 53.03125 28.515625 53.03125 
Q 35.15625 53.03125 39.296875 51.46875 
Q 43.453125 49.90625 45.40625 47.53125 
Q 47.359375 45.171875 48.140625 41.546875 
Q 48.578125 39.3125 48.578125 33.453125 
L 48.578125 21.734375 
Q 48.578125 9.46875 49.140625 6.21875 
Q 49.703125 2.984375 51.375 0 
L 42.1875 0 
Q 40.828125 2.734375 40.4375 6.390625 
z
M 39.703125 26.03125 
Q 34.90625 24.078125 25.34375 22.703125 
Q 19.921875 21.921875 17.671875 20.9375 
Q 15.4375 19.96875 14.203125 18.09375 
Q 12.984375 16.21875 12.984375 13.921875 
Q 12.984375 10.40625 15.640625 8.0625 
Q 18.3125 5.71875 23.4375 5.71875 
Q 28.515625 5.71875 32.46875 7.9375 
Q 36.421875 10.15625 38.28125 14.015625 
Q 39.703125 17 39.703125 22.796875 
z
" id="ArialMT-97"/>
      <path d="M 6.390625 0 
L 6.390625 71.578125 
L 15.1875 71.578125 
L 15.1875 0 
z
" id="ArialMT-108"/>
     </defs>
     <g style="fill:#262626;" transform="translate(643.755625 61.862344)scale(0.11 -0.11)">
      <use xlink:href="#ArialMT-73"/>
      <use x="27.783203" xlink:href="#ArialMT-116"/>
      <use x="55.566406" xlink:href="#ArialMT-97"/>
      <use x="111.181641" xlink:href="#ArialMT-108"/>
      <use x="133.398438" xlink:href="#ArialMT-121"/>
     </g>
    </g>
    <g id="line2d_26">
     <path d="M 612.955625 73.701094 
L 634.955625 73.701094 
" style="fill:none;stroke:#ee854a;stroke-linecap:round;stroke-width:1.5;"/>
    </g>
    <g id="line2d_27"/>
    <g id="text_21">
     <!-- United States -->
     <defs>
      <path d="M 54.6875 71.578125 
L 64.15625 71.578125 
L 64.15625 30.21875 
Q 64.15625 19.4375 61.71875 13.078125 
Q 59.28125 6.734375 52.90625 2.75 
Q 46.53125 -1.21875 36.1875 -1.21875 
Q 26.125 -1.21875 19.71875 2.25 
Q 13.328125 5.71875 10.59375 12.28125 
Q 7.859375 18.84375 7.859375 30.21875 
L 7.859375 71.578125 
L 17.328125 71.578125 
L 17.328125 30.28125 
Q 17.328125 20.953125 19.0625 16.53125 
Q 20.796875 12.109375 25.015625 9.71875 
Q 29.25 7.328125 35.359375 7.328125 
Q 45.796875 7.328125 50.234375 12.0625 
Q 54.6875 16.796875 54.6875 30.28125 
z
" id="ArialMT-85"/>
      <path d="M 6.640625 61.46875 
L 6.640625 71.578125 
L 15.4375 71.578125 
L 15.4375 61.46875 
z
M 6.640625 0 
L 6.640625 51.859375 
L 15.4375 51.859375 
L 15.4375 0 
z
" id="ArialMT-105"/>
      <path d="M 42.09375 16.703125 
L 51.171875 15.578125 
Q 49.03125 7.625 43.21875 3.21875 
Q 37.40625 -1.171875 28.375 -1.171875 
Q 17 -1.171875 10.328125 5.828125 
Q 3.65625 12.84375 3.65625 25.484375 
Q 3.65625 38.578125 10.390625 45.796875 
Q 17.140625 53.03125 27.875 53.03125 
Q 38.28125 53.03125 44.875 45.953125 
Q 51.46875 38.875 51.46875 26.03125 
Q 51.46875 25.25 51.421875 23.6875 
L 12.75 23.6875 
Q 13.234375 15.140625 17.578125 10.59375 
Q 21.921875 6.0625 28.421875 6.0625 
Q 33.25 6.0625 36.671875 8.59375 
Q 40.09375 11.140625 42.09375 16.703125 
z
M 13.234375 30.90625 
L 42.1875 30.90625 
Q 41.609375 37.453125 38.875 40.71875 
Q 34.671875 45.796875 27.984375 45.796875 
Q 21.921875 45.796875 17.796875 41.75 
Q 13.671875 37.703125 13.234375 30.90625 
z
" id="ArialMT-101"/>
      <path d="M 40.234375 0 
L 40.234375 6.546875 
Q 35.296875 -1.171875 25.734375 -1.171875 
Q 19.53125 -1.171875 14.328125 2.25 
Q 9.125 5.671875 6.265625 11.796875 
Q 3.421875 17.921875 3.421875 25.875 
Q 3.421875 33.640625 6 39.96875 
Q 8.59375 46.296875 13.765625 49.65625 
Q 18.953125 53.03125 25.34375 53.03125 
Q 30.03125 53.03125 33.6875 51.046875 
Q 37.359375 49.078125 39.65625 45.90625 
L 39.65625 71.578125 
L 48.390625 71.578125 
L 48.390625 0 
z
M 12.453125 25.875 
Q 12.453125 15.921875 16.640625 10.984375 
Q 20.84375 6.0625 26.5625 6.0625 
Q 32.328125 6.0625 36.34375 10.765625 
Q 40.375 15.484375 40.375 25.140625 
Q 40.375 35.796875 36.265625 40.765625 
Q 32.171875 45.75 26.171875 45.75 
Q 20.3125 45.75 16.375 40.96875 
Q 12.453125 36.1875 12.453125 25.875 
z
" id="ArialMT-100"/>
      <path id="ArialMT-32"/>
      <path d="M 4.5 23 
L 13.421875 23.78125 
Q 14.0625 18.40625 16.375 14.96875 
Q 18.703125 11.53125 23.578125 9.40625 
Q 28.46875 7.28125 34.578125 7.28125 
Q 39.984375 7.28125 44.140625 8.890625 
Q 48.296875 10.5 50.3125 13.296875 
Q 52.34375 16.109375 52.34375 19.4375 
Q 52.34375 22.796875 50.390625 25.3125 
Q 48.4375 27.828125 43.953125 29.546875 
Q 41.0625 30.671875 31.203125 33.03125 
Q 21.34375 35.40625 17.390625 37.5 
Q 12.25 40.1875 9.734375 44.15625 
Q 7.234375 48.140625 7.234375 53.078125 
Q 7.234375 58.5 10.296875 63.203125 
Q 13.375 67.921875 19.28125 70.359375 
Q 25.203125 72.796875 32.421875 72.796875 
Q 40.375 72.796875 46.453125 70.234375 
Q 52.546875 67.671875 55.8125 62.6875 
Q 59.078125 57.71875 59.328125 51.421875 
L 50.25 50.734375 
Q 49.515625 57.515625 45.28125 60.984375 
Q 41.0625 64.453125 32.8125 64.453125 
Q 24.21875 64.453125 20.28125 61.296875 
Q 16.359375 58.15625 16.359375 53.71875 
Q 16.359375 49.859375 19.140625 47.359375 
Q 21.875 44.875 33.421875 42.265625 
Q 44.96875 39.65625 49.265625 37.703125 
Q 55.515625 34.8125 58.484375 30.390625 
Q 61.46875 25.984375 61.46875 20.21875 
Q 61.46875 14.5 58.203125 9.4375 
Q 54.9375 4.390625 48.796875 1.578125 
Q 42.671875 -1.21875 35.015625 -1.21875 
Q 25.296875 -1.21875 18.71875 1.609375 
Q 12.15625 4.4375 8.421875 10.125 
Q 4.6875 15.828125 4.5 23 
z
" id="ArialMT-83"/>
      <path d="M 3.078125 15.484375 
L 11.765625 16.84375 
Q 12.5 11.625 15.84375 8.84375 
Q 19.1875 6.0625 25.203125 6.0625 
Q 31.25 6.0625 34.171875 8.515625 
Q 37.109375 10.984375 37.109375 14.3125 
Q 37.109375 17.28125 34.515625 19 
Q 32.71875 20.171875 25.53125 21.96875 
Q 15.875 24.421875 12.140625 26.203125 
Q 8.40625 27.984375 6.46875 31.125 
Q 4.546875 34.28125 4.546875 38.09375 
Q 4.546875 41.546875 6.125 44.5 
Q 7.71875 47.46875 10.453125 49.421875 
Q 12.5 50.921875 16.03125 51.96875 
Q 19.578125 53.03125 23.640625 53.03125 
Q 29.734375 53.03125 34.34375 51.265625 
Q 38.96875 49.515625 41.15625 46.5 
Q 43.359375 43.5 44.1875 38.484375 
L 35.59375 37.3125 
Q 35.015625 41.3125 32.203125 43.546875 
Q 29.390625 45.796875 24.265625 45.796875 
Q 18.21875 45.796875 15.625 43.796875 
Q 13.03125 41.796875 13.03125 39.109375 
Q 13.03125 37.40625 14.109375 36.03125 
Q 15.1875 34.625 17.484375 33.6875 
Q 18.796875 33.203125 25.25 31.453125 
Q 34.578125 28.953125 38.25 27.359375 
Q 41.9375 25.78125 44.03125 22.75 
Q 46.140625 19.734375 46.140625 15.234375 
Q 46.140625 10.84375 43.578125 6.953125 
Q 41.015625 3.078125 36.171875 0.953125 
Q 31.34375 -1.171875 25.25 -1.171875 
Q 15.140625 -1.171875 9.84375 3.03125 
Q 4.546875 7.234375 3.078125 15.484375 
z
" id="ArialMT-115"/>
     </defs>
     <g style="fill:#262626;" transform="translate(643.755625 77.551094)scale(0.11 -0.11)">
      <use xlink:href="#ArialMT-85"/>
      <use x="72.216797" xlink:href="#ArialMT-110"/>
      <use x="127.832031" xlink:href="#ArialMT-105"/>
      <use x="150.048828" xlink:href="#ArialMT-116"/>
      <use x="177.832031" xlink:href="#ArialMT-101"/>
      <use x="233.447266" xlink:href="#ArialMT-100"/>
      <use x="289.0625" xlink:href="#ArialMT-32"/>
      <use x="316.845703" xlink:href="#ArialMT-83"/>
      <use x="383.544922" xlink:href="#ArialMT-116"/>
      <use x="411.328125" xlink:href="#ArialMT-97"/>
      <use x="466.943359" xlink:href="#ArialMT-116"/>
      <use x="494.726562" xlink:href="#ArialMT-101"/>
      <use x="550.341797" xlink:href="#ArialMT-115"/>
     </g>
    </g>
   </g>
  </g>
  <g id="axes_2">
   <g id="patch_8">
    <path d="M 50.09 680.72 
L 719.69 680.72 
L 719.69 384.210909 
L 50.09 384.210909 
z
" style="fill:#ffffff;"/>
   </g>
   <g id="matplotlib.axis_3">
    <g id="xtick_9">
     <g id="line2d_28">
      <g>
       <use style="fill:#262626;stroke:#262626;stroke-width:1.25;" x="59.631642" xlink:href="#mc7e07a8e02" y="680.72"/>
      </g>
     </g>
     <g id="text_22">
      <!-- 2/21 -->
      <g style="fill:#262626;" transform="translate(48.928126 698.093594)scale(0.11 -0.11)">
       <use xlink:href="#ArialMT-50"/>
       <use x="55.615234" xlink:href="#ArialMT-47"/>
       <use x="83.398438" xlink:href="#ArialMT-50"/>
       <use x="139.013672" xlink:href="#ArialMT-49"/>
      </g>
     </g>
    </g>
    <g id="xtick_10">
     <g id="line2d_29">
      <g>
       <use style="fill:#262626;stroke:#262626;stroke-width:1.25;" x="143.210528" xlink:href="#mc7e07a8e02" y="680.72"/>
      </g>
     </g>
     <g id="text_23">
      <!-- 2/25 -->
      <g style="fill:#262626;" transform="translate(132.507013 698.093594)scale(0.11 -0.11)">
       <use xlink:href="#ArialMT-50"/>
       <use x="55.615234" xlink:href="#ArialMT-47"/>
       <use x="83.398438" xlink:href="#ArialMT-50"/>
       <use x="139.013672" xlink:href="#ArialMT-53"/>
      </g>
     </g>
    </g>
    <g id="xtick_11">
     <g id="line2d_30">
      <g>
       <use style="fill:#262626;stroke:#262626;stroke-width:1.25;" x="226.789415" xlink:href="#mc7e07a8e02" y="680.72"/>
      </g>
     </g>
     <g id="text_24">
      <!-- 2/29 -->
      <g style="fill:#262626;" transform="translate(216.085899 698.093594)scale(0.11 -0.11)">
       <use xlink:href="#ArialMT-50"/>
       <use x="55.615234" xlink:href="#ArialMT-47"/>
       <use x="83.398438" xlink:href="#ArialMT-50"/>
       <use x="139.013672" xlink:href="#ArialMT-57"/>
      </g>
     </g>
    </g>
    <g id="xtick_12">
     <g id="line2d_31">
      <g>
       <use style="fill:#262626;stroke:#262626;stroke-width:1.25;" x="247.684137" xlink:href="#mc7e07a8e02" y="680.72"/>
      </g>
     </g>
     <g id="text_25">
      <!-- 3/01 -->
      <g style="fill:#262626;" transform="translate(236.980621 698.093594)scale(0.11 -0.11)">
       <use xlink:href="#ArialMT-51"/>
       <use x="55.615234" xlink:href="#ArialMT-47"/>
       <use x="83.398438" xlink:href="#ArialMT-48"/>
       <use x="139.013672" xlink:href="#ArialMT-49"/>
      </g>
     </g>
    </g>
    <g id="xtick_13">
     <g id="line2d_32">
      <g>
       <use style="fill:#262626;stroke:#262626;stroke-width:1.25;" x="331.263023" xlink:href="#mc7e07a8e02" y="680.72"/>
      </g>
     </g>
     <g id="text_26">
      <!-- 3/05 -->
      <g style="fill:#262626;" transform="translate(320.559507 698.093594)scale(0.11 -0.11)">
       <use xlink:href="#ArialMT-51"/>
       <use x="55.615234" xlink:href="#ArialMT-47"/>
       <use x="83.398438" xlink:href="#ArialMT-48"/>
       <use x="139.013672" xlink:href="#ArialMT-53"/>
      </g>
     </g>
    </g>
    <g id="xtick_14">
     <g id="line2d_33">
      <g>
       <use style="fill:#262626;stroke:#262626;stroke-width:1.25;" x="414.841909" xlink:href="#mc7e07a8e02" y="680.72"/>
      </g>
     </g>
     <g id="text_27">
      <!-- 3/09 -->
      <g style="fill:#262626;" transform="translate(404.138394 698.093594)scale(0.11 -0.11)">
       <use xlink:href="#ArialMT-51"/>
       <use x="55.615234" xlink:href="#ArialMT-47"/>
       <use x="83.398438" xlink:href="#ArialMT-48"/>
       <use x="139.013672" xlink:href="#ArialMT-57"/>
      </g>
     </g>
    </g>
    <g id="xtick_15">
     <g id="line2d_34">
      <g>
       <use style="fill:#262626;stroke:#262626;stroke-width:1.25;" x="498.420796" xlink:href="#mc7e07a8e02" y="680.72"/>
      </g>
     </g>
     <g id="text_28">
      <!-- 3/13 -->
      <g style="fill:#262626;" transform="translate(487.71728 698.093594)scale(0.11 -0.11)">
       <use xlink:href="#ArialMT-51"/>
       <use x="55.615234" xlink:href="#ArialMT-47"/>
       <use x="83.398438" xlink:href="#ArialMT-49"/>
       <use x="139.013672" xlink:href="#ArialMT-51"/>
      </g>
     </g>
    </g>
    <g id="xtick_16">
     <g id="line2d_35">
      <g>
       <use style="fill:#262626;stroke:#262626;stroke-width:1.25;" x="581.999682" xlink:href="#mc7e07a8e02" y="680.72"/>
      </g>
     </g>
     <g id="text_29">
      <!-- 3/17 -->
      <g style="fill:#262626;" transform="translate(571.296167 698.093594)scale(0.11 -0.11)">
       <use xlink:href="#ArialMT-51"/>
       <use x="55.615234" xlink:href="#ArialMT-47"/>
       <use x="83.398438" xlink:href="#ArialMT-49"/>
       <use x="139.013672" xlink:href="#ArialMT-55"/>
      </g>
     </g>
    </g>
    <g id="xtick_17">
     <g id="line2d_36">
      <g>
       <use style="fill:#262626;stroke:#262626;stroke-width:1.25;" x="665.578569" xlink:href="#mc7e07a8e02" y="680.72"/>
      </g>
     </g>
     <g id="text_30">
      <!-- 3/21 -->
      <g style="fill:#262626;" transform="translate(654.875053 698.093594)scale(0.11 -0.11)">
       <use xlink:href="#ArialMT-51"/>
       <use x="55.615234" xlink:href="#ArialMT-47"/>
       <use x="83.398438" xlink:href="#ArialMT-50"/>
       <use x="139.013672" xlink:href="#ArialMT-49"/>
      </g>
     </g>
    </g>
   </g>
   <g id="matplotlib.axis_4">
    <g id="ytick_9">
     <g id="line2d_37">
      <g>
       <use style="fill:#262626;stroke:#262626;stroke-width:1.25;" x="50.09" xlink:href="#m41452a1659" y="671.068775"/>
      </g>
     </g>
     <g id="text_31">
      <!-- 0 -->
      <g style="fill:#262626;" transform="translate(34.472969 675.005572)scale(0.11 -0.11)">
       <use xlink:href="#ArialMT-48"/>
      </g>
     </g>
    </g>
    <g id="ytick_10">
     <g id="line2d_38">
      <g>
       <use style="fill:#262626;stroke:#262626;stroke-width:1.25;" x="50.09" xlink:href="#m41452a1659" y="630.501949"/>
      </g>
     </g>
     <g id="text_32">
      <!-- 1 -->
      <g style="fill:#262626;" transform="translate(34.472969 634.438746)scale(0.11 -0.11)">
       <use xlink:href="#ArialMT-49"/>
      </g>
     </g>
    </g>
    <g id="ytick_11">
     <g id="line2d_39">
      <g>
       <use style="fill:#262626;stroke:#262626;stroke-width:1.25;" x="50.09" xlink:href="#m41452a1659" y="589.935124"/>
      </g>
     </g>
     <g id="text_33">
      <!-- 2 -->
      <g style="fill:#262626;" transform="translate(34.472969 593.871921)scale(0.11 -0.11)">
       <use xlink:href="#ArialMT-50"/>
      </g>
     </g>
    </g>
    <g id="ytick_12">
     <g id="line2d_40">
      <g>
       <use style="fill:#262626;stroke:#262626;stroke-width:1.25;" x="50.09" xlink:href="#m41452a1659" y="549.368298"/>
      </g>
     </g>
     <g id="text_34">
      <!-- 3 -->
      <g style="fill:#262626;" transform="translate(34.472969 553.305095)scale(0.11 -0.11)">
       <use xlink:href="#ArialMT-51"/>
      </g>
     </g>
    </g>
    <g id="ytick_13">
     <g id="line2d_41">
      <g>
       <use style="fill:#262626;stroke:#262626;stroke-width:1.25;" x="50.09" xlink:href="#m41452a1659" y="508.801473"/>
      </g>
     </g>
     <g id="text_35">
      <!-- 4 -->
      <g style="fill:#262626;" transform="translate(34.472969 512.73827)scale(0.11 -0.11)">
       <use xlink:href="#ArialMT-52"/>
      </g>
     </g>
    </g>
    <g id="ytick_14">
     <g id="line2d_42">
      <g>
       <use style="fill:#262626;stroke:#262626;stroke-width:1.25;" x="50.09" xlink:href="#m41452a1659" y="468.234648"/>
      </g>
     </g>
     <g id="text_36">
      <!-- 5 -->
      <g style="fill:#262626;" transform="translate(34.472969 472.171445)scale(0.11 -0.11)">
       <use xlink:href="#ArialMT-53"/>
      </g>
     </g>
    </g>
    <g id="ytick_15">
     <g id="line2d_43">
      <g>
       <use style="fill:#262626;stroke:#262626;stroke-width:1.25;" x="50.09" xlink:href="#m41452a1659" y="427.667822"/>
      </g>
     </g>
     <g id="text_37">
      <!-- 6 -->
      <g style="fill:#262626;" transform="translate(34.472969 431.604619)scale(0.11 -0.11)">
       <use xlink:href="#ArialMT-54"/>
      </g>
     </g>
    </g>
    <g id="ytick_16">
     <g id="line2d_44">
      <g>
       <use style="fill:#262626;stroke:#262626;stroke-width:1.25;" x="50.09" xlink:href="#m41452a1659" y="387.100997"/>
      </g>
     </g>
     <g id="text_38">
      <!-- 7 -->
      <g style="fill:#262626;" transform="translate(34.472969 391.037794)scale(0.11 -0.11)">
       <use xlink:href="#ArialMT-55"/>
      </g>
     </g>
    </g>
    <g id="text_39">
     <!-- Growth Factor -->
     <defs>
      <path d="M 41.21875 28.078125 
L 41.21875 36.46875 
L 71.53125 36.53125 
L 71.53125 9.96875 
Q 64.546875 4.390625 57.125 1.578125 
Q 49.703125 -1.21875 41.890625 -1.21875 
Q 31.34375 -1.21875 22.71875 3.296875 
Q 14.109375 7.8125 9.71875 16.359375 
Q 5.328125 24.90625 5.328125 35.453125 
Q 5.328125 45.90625 9.6875 54.953125 
Q 14.0625 64.015625 22.265625 68.40625 
Q 30.46875 72.796875 41.15625 72.796875 
Q 48.921875 72.796875 55.1875 70.28125 
Q 61.46875 67.78125 65.03125 63.28125 
Q 68.609375 58.796875 70.453125 51.5625 
L 61.921875 49.21875 
Q 60.296875 54.6875 57.90625 57.8125 
Q 55.515625 60.9375 51.0625 62.8125 
Q 46.625 64.703125 41.21875 64.703125 
Q 34.71875 64.703125 29.984375 62.71875 
Q 25.25 60.75 22.34375 57.515625 
Q 19.4375 54.296875 17.828125 50.4375 
Q 15.09375 43.796875 15.09375 36.03125 
Q 15.09375 26.46875 18.390625 20.015625 
Q 21.6875 13.578125 27.984375 10.453125 
Q 34.28125 7.328125 41.359375 7.328125 
Q 47.515625 7.328125 53.375 9.6875 
Q 59.234375 12.0625 62.25 14.75 
L 62.25 28.078125 
z
" id="ArialMT-71"/>
      <path d="M 16.15625 0 
L 0.296875 51.859375 
L 9.375 51.859375 
L 17.625 21.921875 
L 20.703125 10.796875 
Q 20.90625 11.625 23.390625 21.484375 
L 31.640625 51.859375 
L 40.671875 51.859375 
L 48.4375 21.78125 
L 51.03125 11.859375 
L 54 21.875 
L 62.890625 51.859375 
L 71.4375 51.859375 
L 55.21875 0 
L 46.09375 0 
L 37.84375 31.0625 
L 35.84375 39.890625 
L 25.34375 0 
z
" id="ArialMT-119"/>
      <path d="M 6.59375 0 
L 6.59375 71.578125 
L 15.375 71.578125 
L 15.375 45.90625 
Q 21.53125 53.03125 30.90625 53.03125 
Q 36.671875 53.03125 40.921875 50.75 
Q 45.171875 48.484375 47 44.484375 
Q 48.828125 40.484375 48.828125 32.859375 
L 48.828125 0 
L 40.046875 0 
L 40.046875 32.859375 
Q 40.046875 39.453125 37.1875 42.453125 
Q 34.328125 45.453125 29.109375 45.453125 
Q 25.203125 45.453125 21.75 43.421875 
Q 18.3125 41.40625 16.84375 37.9375 
Q 15.375 34.46875 15.375 28.375 
L 15.375 0 
z
" id="ArialMT-104"/>
      <path d="M 8.203125 0 
L 8.203125 71.578125 
L 56.5 71.578125 
L 56.5 63.140625 
L 17.671875 63.140625 
L 17.671875 40.96875 
L 51.265625 40.96875 
L 51.265625 32.515625 
L 17.671875 32.515625 
L 17.671875 0 
z
" id="ArialMT-70"/>
     </defs>
     <g style="fill:#262626;" transform="translate(27.491719 579.974439)rotate(-90)scale(0.15 -0.15)">
      <use xlink:href="#ArialMT-71"/>
      <use x="77.783203" xlink:href="#ArialMT-114"/>
      <use x="111.083984" xlink:href="#ArialMT-111"/>
      <use x="166.699219" xlink:href="#ArialMT-119"/>
      <use x="238.916016" xlink:href="#ArialMT-116"/>
      <use x="266.699219" xlink:href="#ArialMT-104"/>
      <use x="322.314453" xlink:href="#ArialMT-32"/>
      <use x="350.097656" xlink:href="#ArialMT-70"/>
      <use x="411.181641" xlink:href="#ArialMT-97"/>
      <use x="466.796875" xlink:href="#ArialMT-99"/>
      <use x="516.796875" xlink:href="#ArialMT-116"/>
      <use x="544.580078" xlink:href="#ArialMT-111"/>
      <use x="600.195312" xlink:href="#ArialMT-114"/>
     </g>
    </g>
   </g>
   <g id="PathCollection_2">
    <defs>
     <path d="M 0 3 
C 0.795609 3 1.55874 2.683901 2.12132 2.12132 
C 2.683901 1.55874 3 0.795609 3 0 
C 3 -0.795609 2.683901 -1.55874 2.12132 -2.12132 
C 1.55874 -2.683901 0.795609 -3 0 -3 
C -0.795609 -3 -1.55874 -2.683901 -2.12132 -2.12132 
C -2.683901 -1.55874 -3 -0.795609 -3 0 
C -3 0.795609 -2.683901 1.55874 -2.12132 2.12132 
C -1.55874 2.683901 -0.795609 3 0 3 
z
" id="C1_0_8074edd561"/>
    </defs>
    <g clip-path="url(#p4ee97b7288)">
     <use style="fill:#4878d0;stroke:#ffffff;stroke-width:0.75;" x="122.315807" xlink:href="#C1_0_8074edd561" y="636.390682"/>
    </g>
    <g clip-path="url(#p4ee97b7288)">
     <use style="fill:#4878d0;stroke:#ffffff;stroke-width:0.75;" x="143.210528" xlink:href="#C1_0_8074edd561" y="596.82383"/>
    </g>
    <g clip-path="url(#p4ee97b7288)">
     <use style="fill:#4878d0;stroke:#ffffff;stroke-width:0.75;" x="164.10525" xlink:href="#C1_0_8074edd561" y="632.174808"/>
    </g>
    <g clip-path="url(#p4ee97b7288)">
     <use style="fill:#4878d0;stroke:#ffffff;stroke-width:0.75;" x="184.999972" xlink:href="#C1_0_8074edd561" y="637.044986"/>
    </g>
    <g clip-path="url(#p4ee97b7288)">
     <use style="fill:#4878d0;stroke:#ffffff;stroke-width:0.75;" x="205.894693" xlink:href="#C1_0_8074edd561" y="541.046898"/>
    </g>
    <g clip-path="url(#p4ee97b7288)">
     <use style="fill:#4878d0;stroke:#ffffff;stroke-width:0.75;" x="226.789415" xlink:href="#C1_0_8074edd561" y="632.449157"/>
    </g>
    <g clip-path="url(#p4ee97b7288)">
     <use style="fill:#4878d0;stroke:#ffffff;stroke-width:0.75;" x="247.684137" xlink:href="#C1_0_8074edd561" y="630.161052"/>
    </g>
    <g clip-path="url(#p4ee97b7288)">
     <use style="fill:#4878d0;stroke:#ffffff;stroke-width:0.75;" x="268.578858" xlink:href="#C1_0_8074edd561" y="576.24382"/>
    </g>
    <g clip-path="url(#p4ee97b7288)">
     <use style="fill:#4878d0;stroke:#ffffff;stroke-width:0.75;" x="289.47358" xlink:href="#C1_0_8074edd561" y="660.511276"/>
    </g>
    <g clip-path="url(#p4ee97b7288)">
     <use style="fill:#4878d0;stroke:#ffffff;stroke-width:0.75;" x="310.368301" xlink:href="#C1_0_8074edd561" y="485.739511"/>
    </g>
    <g clip-path="url(#p4ee97b7288)">
     <use style="fill:#4878d0;stroke:#ffffff;stroke-width:0.75;" x="331.263023" xlink:href="#C1_0_8074edd561" y="635.367535"/>
    </g>
    <g clip-path="url(#p4ee97b7288)">
     <use style="fill:#4878d0;stroke:#ffffff;stroke-width:0.75;" x="352.157745" xlink:href="#C1_0_8074edd561" y="617.92416"/>
    </g>
    <g clip-path="url(#p4ee97b7288)">
     <use style="fill:#4878d0;stroke:#ffffff;stroke-width:0.75;" x="373.052466" xlink:href="#C1_0_8074edd561" y="630.027175"/>
    </g>
    <g clip-path="url(#p4ee97b7288)">
     <use style="fill:#4878d0;stroke:#ffffff;stroke-width:0.75;" x="393.947188" xlink:href="#C1_0_8074edd561" y="606.047141"/>
    </g>
    <g clip-path="url(#p4ee97b7288)">
     <use style="fill:#4878d0;stroke:#ffffff;stroke-width:0.75;" x="414.841909" xlink:href="#C1_0_8074edd561" y="622.531723"/>
    </g>
    <g clip-path="url(#p4ee97b7288)">
     <use style="fill:#4878d0;stroke:#ffffff;stroke-width:0.75;" x="435.736631" xlink:href="#C1_0_8074edd561" y="622.209133"/>
    </g>
    <g clip-path="url(#p4ee97b7288)">
     <use style="fill:#4878d0;stroke:#ffffff;stroke-width:0.75;" x="456.631353" xlink:href="#C1_0_8074edd561" y="649.013244"/>
    </g>
    <g clip-path="url(#p4ee97b7288)">
     <use style="fill:#4878d0;stroke:#ffffff;stroke-width:0.75;" x="477.526074" xlink:href="#C1_0_8074edd561" y="575.028788"/>
    </g>
    <g clip-path="url(#p4ee97b7288)">
     <use style="fill:#4878d0;stroke:#ffffff;stroke-width:0.75;" x="498.420796" xlink:href="#C1_0_8074edd561" y="624.573896"/>
    </g>
    <g clip-path="url(#p4ee97b7288)">
     <use style="fill:#4878d0;stroke:#ffffff;stroke-width:0.75;" x="519.315517" xlink:href="#C1_0_8074edd561" y="632.093405"/>
    </g>
    <g clip-path="url(#p4ee97b7288)">
     <use style="fill:#4878d0;stroke:#ffffff;stroke-width:0.75;" x="540.210239" xlink:href="#C1_0_8074edd561" y="614.686143"/>
    </g>
    <g clip-path="url(#p4ee97b7288)">
     <use style="fill:#4878d0;stroke:#ffffff;stroke-width:0.75;" x="561.104961" xlink:href="#C1_0_8074edd561" y="639.211211"/>
    </g>
    <g clip-path="url(#p4ee97b7288)">
     <use style="fill:#4878d0;stroke:#ffffff;stroke-width:0.75;" x="581.999682" xlink:href="#C1_0_8074edd561" y="612.699242"/>
    </g>
    <g clip-path="url(#p4ee97b7288)">
     <use style="fill:#4878d0;stroke:#ffffff;stroke-width:0.75;" x="602.894404" xlink:href="#C1_0_8074edd561" y="635.309118"/>
    </g>
    <g clip-path="url(#p4ee97b7288)">
     <use style="fill:#4878d0;stroke:#ffffff;stroke-width:0.75;" x="623.789126" xlink:href="#C1_0_8074edd561" y="622.667007"/>
    </g>
    <g clip-path="url(#p4ee97b7288)">
     <use style="fill:#4878d0;stroke:#ffffff;stroke-width:0.75;" x="644.683847" xlink:href="#C1_0_8074edd561" y="619.750342"/>
    </g>
    <g clip-path="url(#p4ee97b7288)">
     <use style="fill:#4878d0;stroke:#ffffff;stroke-width:0.75;" x="665.578569" xlink:href="#C1_0_8074edd561" y="625.440624"/>
    </g>
    <g clip-path="url(#p4ee97b7288)">
     <use style="fill:#4878d0;stroke:#ffffff;stroke-width:0.75;" x="686.47329" xlink:href="#C1_0_8074edd561" y="626.632311"/>
    </g>
    <g clip-path="url(#p4ee97b7288)">
     <use style="fill:#ee854a;stroke:#ffffff;stroke-width:0.75;" x="205.894693" xlink:href="#C1_0_8074edd561" y="664.307637"/>
    </g>
    <g clip-path="url(#p4ee97b7288)">
     <use style="fill:#ee854a;stroke:#ffffff;stroke-width:0.75;" x="226.789415" xlink:href="#C1_0_8074edd561" y="427.667822"/>
    </g>
    <g clip-path="url(#p4ee97b7288)">
     <use style="fill:#ee854a;stroke:#ffffff;stroke-width:0.75;" x="247.684137" xlink:href="#C1_0_8074edd561" y="650.785362"/>
    </g>
    <g clip-path="url(#p4ee97b7288)">
     <use style="fill:#ee854a;stroke:#ffffff;stroke-width:0.75;" x="268.578858" xlink:href="#C1_0_8074edd561" y="400.623272"/>
    </g>
    <g clip-path="url(#p4ee97b7288)">
     <use style="fill:#ee854a;stroke:#ffffff;stroke-width:0.75;" x="289.47358" xlink:href="#C1_0_8074edd561" y="642.671997"/>
    </g>
    <g clip-path="url(#p4ee97b7288)">
     <use style="fill:#ee854a;stroke:#ffffff;stroke-width:0.75;" x="310.368301" xlink:href="#C1_0_8074edd561" y="607.320906"/>
    </g>
    <g clip-path="url(#p4ee97b7288)">
     <use style="fill:#ee854a;stroke:#ffffff;stroke-width:0.75;" x="331.263023" xlink:href="#C1_0_8074edd561" y="608.37459"/>
    </g>
    <g clip-path="url(#p4ee97b7288)">
     <use style="fill:#ee854a;stroke:#ffffff;stroke-width:0.75;" x="352.157745" xlink:href="#C1_0_8074edd561" y="582.776272"/>
    </g>
    <g clip-path="url(#p4ee97b7288)">
     <use style="fill:#ee854a;stroke:#ffffff;stroke-width:0.75;" x="373.052466" xlink:href="#C1_0_8074edd561" y="613.507739"/>
    </g>
    <g clip-path="url(#p4ee97b7288)">
     <use style="fill:#ee854a;stroke:#ffffff;stroke-width:0.75;" x="393.947188" xlink:href="#C1_0_8074edd561" y="634.365456"/>
    </g>
    <g clip-path="url(#p4ee97b7288)">
     <use style="fill:#ee854a;stroke:#ffffff;stroke-width:0.75;" x="414.841909" xlink:href="#C1_0_8074edd561" y="619.39945"/>
    </g>
    <g clip-path="url(#p4ee97b7288)">
     <use style="fill:#ee854a;stroke:#ffffff;stroke-width:0.75;" x="435.736631" xlink:href="#C1_0_8074edd561" y="604.016171"/>
    </g>
    <g clip-path="url(#p4ee97b7288)">
     <use style="fill:#ee854a;stroke:#ffffff;stroke-width:0.75;" x="456.631353" xlink:href="#C1_0_8074edd561" y="616.100726"/>
    </g>
    <g clip-path="url(#p4ee97b7288)">
     <use style="fill:#ee854a;stroke:#ffffff;stroke-width:0.75;" x="477.526074" xlink:href="#C1_0_8074edd561" y="628.10686"/>
    </g>
    <g clip-path="url(#p4ee97b7288)">
     <use style="fill:#ee854a;stroke:#ffffff;stroke-width:0.75;" x="498.420796" xlink:href="#C1_0_8074edd561" y="621.455689"/>
    </g>
    <g clip-path="url(#p4ee97b7288)">
     <use style="fill:#ee854a;stroke:#ffffff;stroke-width:0.75;" x="519.315517" xlink:href="#C1_0_8074edd561" y="612.009949"/>
    </g>
    <g clip-path="url(#p4ee97b7288)">
     <use style="fill:#ee854a;stroke:#ffffff;stroke-width:0.75;" x="540.210239" xlink:href="#C1_0_8074edd561" y="609.384972"/>
    </g>
    <g clip-path="url(#p4ee97b7288)">
     <use style="fill:#ee854a;stroke:#ffffff;stroke-width:0.75;" x="561.104961" xlink:href="#C1_0_8074edd561" y="628.10031"/>
    </g>
    <g clip-path="url(#p4ee97b7288)">
     <use style="fill:#ee854a;stroke:#ffffff;stroke-width:0.75;" x="581.999682" xlink:href="#C1_0_8074edd561" y="627.347299"/>
    </g>
    <g clip-path="url(#p4ee97b7288)">
     <use style="fill:#ee854a;stroke:#ffffff;stroke-width:0.75;" x="602.894404" xlink:href="#C1_0_8074edd561" y="590.301003"/>
    </g>
    <g clip-path="url(#p4ee97b7288)">
     <use style="fill:#ee854a;stroke:#ffffff;stroke-width:0.75;" x="623.789126" xlink:href="#C1_0_8074edd561" y="602.43136"/>
    </g>
    <g clip-path="url(#p4ee97b7288)">
     <use style="fill:#ee854a;stroke:#ffffff;stroke-width:0.75;" x="644.683847" xlink:href="#C1_0_8074edd561" y="605.426003"/>
    </g>
    <g clip-path="url(#p4ee97b7288)">
     <use style="fill:#ee854a;stroke:#ffffff;stroke-width:0.75;" x="665.578569" xlink:href="#C1_0_8074edd561" y="625.979608"/>
    </g>
    <g clip-path="url(#p4ee97b7288)">
     <use style="fill:#ee854a;stroke:#ffffff;stroke-width:0.75;" x="686.47329" xlink:href="#C1_0_8074edd561" y="636.918362"/>
    </g>
   </g>
   <g id="LineCollection_1">
    <path clip-path="url(#p4ee97b7288)" d="M 80.526364 630.501949 
L 686.47329 630.501949 
" style="fill:none;stroke:#0000ff;stroke-dasharray:5.55,2.4;stroke-dashoffset:0;stroke-width:1.5;"/>
   </g>
   <g id="line2d_45">
    <path clip-path="url(#p4ee97b7288)" d="M 122.315807 636.390682 
L 143.210528 596.82383 
L 164.10525 632.174808 
L 184.999972 637.044986 
L 205.894693 541.046898 
L 226.789415 632.449157 
L 247.684137 630.161052 
L 268.578858 576.24382 
L 289.47358 660.511276 
L 310.368301 485.739511 
L 331.263023 635.367535 
L 352.157745 617.92416 
L 373.052466 630.027175 
L 393.947188 606.047141 
L 414.841909 622.531723 
L 435.736631 622.209133 
L 456.631353 649.013244 
L 477.526074 575.028788 
L 498.420796 624.573896 
L 519.315517 632.093405 
L 540.210239 614.686143 
L 561.104961 639.211211 
L 581.999682 612.699242 
L 602.894404 635.309118 
L 623.789126 622.667007 
L 644.683847 619.750342 
L 665.578569 625.440624 
L 686.47329 626.632311 
" style="fill:none;stroke:#000000;stroke-linecap:round;stroke-width:1.5;"/>
   </g>
   <g id="line2d_46">
    <path clip-path="url(#p4ee97b7288)" d="M 205.894693 664.307637 
L 226.789415 427.667822 
L 247.684137 650.785362 
L 268.578858 400.623272 
L 289.47358 642.671997 
L 310.368301 607.320906 
L 331.263023 608.37459 
L 352.157745 582.776272 
L 373.052466 613.507739 
L 393.947188 634.365456 
L 414.841909 619.39945 
L 435.736631 604.016171 
L 456.631353 616.100726 
L 477.526074 628.10686 
L 498.420796 621.455689 
L 519.315517 612.009949 
L 540.210239 609.384972 
L 561.104961 628.10031 
L 581.999682 627.347299 
L 602.894404 590.301003 
L 623.789126 602.43136 
L 644.683847 605.426003 
L 665.578569 625.979608 
L 686.47329 636.918362 
" style="fill:none;stroke:#ff0000;stroke-linecap:round;stroke-width:1.5;"/>
   </g>
   <g id="line2d_47"/>
   <g id="line2d_48"/>
   <g id="line2d_49"/>
   <g id="patch_9">
    <path d="M 50.09 680.72 
L 50.09 384.210909 
" style="fill:none;stroke:#262626;stroke-linecap:square;stroke-linejoin:miter;stroke-width:1.25;"/>
   </g>
   <g id="patch_10">
    <path d="M 719.69 680.72 
L 719.69 384.210909 
" style="fill:none;stroke:#262626;stroke-linecap:square;stroke-linejoin:miter;stroke-width:1.25;"/>
   </g>
   <g id="patch_11">
    <path d="M 50.09 680.72 
L 719.69 680.72 
" style="fill:none;stroke:#262626;stroke-linecap:square;stroke-linejoin:miter;stroke-width:1.25;"/>
   </g>
   <g id="patch_12">
    <path d="M 50.09 384.210909 
L 719.69 384.210909 
" style="fill:none;stroke:#262626;stroke-linecap:square;stroke-linejoin:miter;stroke-width:1.25;"/>
   </g>
   <g id="text_40">
    <!-- Growth Factor = $\Delta N_{d+1} / \Delta N_d$ -->
    <defs>
     <path d="M 52.828125 42.09375 
L 5.5625 42.09375 
L 5.5625 50.296875 
L 52.828125 50.296875 
z
M 52.828125 20.359375 
L 5.5625 20.359375 
L 5.5625 28.5625 
L 52.828125 28.5625 
z
" id="ArialMT-61"/>
     <path d="M 34.1875 63.1875 
L 14.15625 8.203125 
L 54.25 8.203125 
z
M 0.78125 0 
L 28.609375 72.90625 
L 39.796875 72.90625 
L 67.578125 0 
z
" id="DejaVuSans-916"/>
     <path d="M 25.390625 72.90625 
L 33.6875 72.90625 
L 8.296875 -9.28125 
L 0 -9.28125 
z
" id="DejaVuSans-47"/>
    </defs>
    <g style="fill:#262626;" transform="translate(255.59 378.210909)scale(0.2 -0.2)">
     <use transform="translate(0 0.09375)" xlink:href="#ArialMT-71"/>
     <use transform="translate(77.783203 0.09375)" xlink:href="#ArialMT-114"/>
     <use transform="translate(111.083984 0.09375)" xlink:href="#ArialMT-111"/>
     <use transform="translate(166.699219 0.09375)" xlink:href="#ArialMT-119"/>
     <use transform="translate(238.916016 0.09375)" xlink:href="#ArialMT-116"/>
     <use transform="translate(266.699219 0.09375)" xlink:href="#ArialMT-104"/>
     <use transform="translate(322.314453 0.09375)" xlink:href="#ArialMT-32"/>
     <use transform="translate(350.097656 0.09375)" xlink:href="#ArialMT-70"/>
     <use transform="translate(411.181641 0.09375)" xlink:href="#ArialMT-97"/>
     <use transform="translate(466.796875 0.09375)" xlink:href="#ArialMT-99"/>
     <use transform="translate(516.796875 0.09375)" xlink:href="#ArialMT-116"/>
     <use transform="translate(544.580078 0.09375)" xlink:href="#ArialMT-111"/>
     <use transform="translate(600.195312 0.09375)" xlink:href="#ArialMT-114"/>
     <use transform="translate(633.496094 0.09375)" xlink:href="#ArialMT-32"/>
     <use transform="translate(661.279297 0.09375)" xlink:href="#ArialMT-61"/>
     <use transform="translate(719.677734 0.09375)" xlink:href="#ArialMT-32"/>
     <use transform="translate(747.460938 0.09375)" xlink:href="#DejaVuSans-916"/>
     <use transform="translate(815.869141 0.09375)" xlink:href="#DejaVuSans-Oblique-78"/>
     <use transform="translate(890.673828 -16.3125)scale(0.7)" xlink:href="#DejaVuSans-Oblique-100"/>
     <use transform="translate(948.745117 -16.3125)scale(0.7)" xlink:href="#DejaVuSans-43"/>
     <use transform="translate(1021.035156 -16.3125)scale(0.7)" xlink:href="#DejaVuSans-49"/>
     <use transform="translate(1068.305664 0.09375)" xlink:href="#DejaVuSans-47"/>
     <use transform="translate(1101.99707 0.09375)" xlink:href="#DejaVuSans-916"/>
     <use transform="translate(1170.405273 0.09375)" xlink:href="#DejaVuSans-Oblique-78"/>
     <use transform="translate(1245.209961 -16.3125)scale(0.7)" xlink:href="#DejaVuSans-Oblique-100"/>
    </g>
   </g>
   <g id="legend_2">
    <g id="patch_13">
     <path d="M 610.755625 439.948253 
L 711.99 439.948253 
Q 714.19 439.948253 714.19 437.748253 
L 714.19 391.910909 
Q 714.19 389.710909 711.99 389.710909 
L 610.755625 389.710909 
Q 608.555625 389.710909 608.555625 391.910909 
L 608.555625 437.748253 
Q 608.555625 439.948253 610.755625 439.948253 
z
" style="fill:#ffffff;opacity:0.8;stroke:#cccccc;stroke-linejoin:miter;"/>
    </g>
    <g id="line2d_50">
     <path d="M 612.955625 398.134503 
L 634.955625 398.134503 
" style="fill:none;"/>
    </g>
    <g id="line2d_51"/>
    <g id="text_41">
     <!-- country -->
     <g style="fill:#262626;" transform="translate(643.755625 401.984503)scale(0.11 -0.11)">
      <use xlink:href="#ArialMT-99"/>
      <use x="50" xlink:href="#ArialMT-111"/>
      <use x="105.615234" xlink:href="#ArialMT-117"/>
      <use x="161.230469" xlink:href="#ArialMT-110"/>
      <use x="216.845703" xlink:href="#ArialMT-116"/>
      <use x="244.628906" xlink:href="#ArialMT-114"/>
      <use x="277.929688" xlink:href="#ArialMT-121"/>
     </g>
    </g>
    <g id="line2d_52">
     <path d="M 612.955625 413.823253 
L 634.955625 413.823253 
" style="fill:none;stroke:#000000;stroke-linecap:round;stroke-width:1.5;"/>
    </g>
    <g id="line2d_53"/>
    <g id="text_42">
     <!-- Italy -->
     <g style="fill:#262626;" transform="translate(643.755625 417.673253)scale(0.11 -0.11)">
      <use xlink:href="#ArialMT-73"/>
      <use x="27.783203" xlink:href="#ArialMT-116"/>
      <use x="55.566406" xlink:href="#ArialMT-97"/>
      <use x="111.181641" xlink:href="#ArialMT-108"/>
      <use x="133.398438" xlink:href="#ArialMT-121"/>
     </g>
    </g>
    <g id="line2d_54">
     <path d="M 612.955625 429.512003 
L 634.955625 429.512003 
" style="fill:none;stroke:#ff0000;stroke-linecap:round;stroke-width:1.5;"/>
    </g>
    <g id="line2d_55"/>
    <g id="text_43">
     <!-- United States -->
     <g style="fill:#262626;" transform="translate(643.755625 433.362003)scale(0.11 -0.11)">
      <use xlink:href="#ArialMT-85"/>
      <use x="72.216797" xlink:href="#ArialMT-110"/>
      <use x="127.832031" xlink:href="#ArialMT-105"/>
      <use x="150.048828" xlink:href="#ArialMT-116"/>
      <use x="177.832031" xlink:href="#ArialMT-101"/>
      <use x="233.447266" xlink:href="#ArialMT-100"/>
      <use x="289.0625" xlink:href="#ArialMT-32"/>
      <use x="316.845703" xlink:href="#ArialMT-83"/>
      <use x="383.544922" xlink:href="#ArialMT-116"/>
      <use x="411.328125" xlink:href="#ArialMT-97"/>
      <use x="466.943359" xlink:href="#ArialMT-116"/>
      <use x="494.726562" xlink:href="#ArialMT-101"/>
      <use x="550.341797" xlink:href="#ArialMT-115"/>
     </g>
    </g>
   </g>
  </g>
 </g>
 <defs>
  <clipPath id="pd35e560ff2">
   <rect height="296.509091" width="669.6" x="50.09" y="28.4"/>
  </clipPath>
  <clipPath id="p4ee97b7288">
   <rect height="296.509091" width="669.6" x="50.09" y="384.210909"/>
  </clipPath>
 </defs>
</svg>
